<svg xmlns="http://www.w3.org/2000/svg" xmlns:xlink="http://www.w3.org/1999/xlink" width="217" height="59" viewBox="0 0 217 59">
  <defs>
    <clipPath id="clip-path">
      <path id="Path_26" data-name="Path 26" d="M395.863-34.893a4.181,4.181,0,0,0,.554-.555c.484-.694.9-1.457,1.384-2.22.069-.069.069-.208,0-.208-.069-.139-.208-.069-.346,0h-.208c0-.139-.069-.208,0-.277.415-.555.83-1.11,1.246-1.734h.208c0,.069.069.139.069.208-.069.208-.138.486,0,.624a2.778,2.778,0,0,1,.277,2.081c-.277,1.873-.415,3.746-.554,5.619a10.892,10.892,0,0,1-.346,2.081.882.882,0,0,1-.761.763c-1.246.139-2.422.347-3.668.486a1.454,1.454,0,0,1-1.523-.555,1.511,1.511,0,0,0-.346.208c-.208,0-.277-.069-.277-.208a1.783,1.783,0,0,1,.458-.839l.124-.152.089.141a1.959,1.959,0,0,1,.159.365,31.659,31.659,0,0,0,2.63-4.093C395.379-33.714,395.586-34.338,395.863-34.893Zm-1.592,1.873a6.44,6.44,0,0,1-1.75,3.048l-.292.258.2-.521a10.223,10.223,0,0,1,1.4-2.26l.437-.526Zm-10.8,21.089a3.57,3.57,0,0,0,.477-.966l.077-.352h0a8.355,8.355,0,0,0,1.038-2.081l-.554.208h0a1.792,1.792,0,0,1,1.038-1.387c.277-.139.484-.416.069-.763-.138-.139-.069-.347,0-.486.208-.347.415-.694.623-.971a.6.6,0,0,1,.623-.347,3.63,3.63,0,0,1,1.177-.277l3.114-.277h0a5.252,5.252,0,0,0,1.73-.416.889.889,0,0,1,.831-.069c.761-.208,1.453-.347,2.215-.555,1.73-.486,1.938-.277,2.007,1.526,0,1.041.069,2.012.069,3.052a5.116,5.116,0,0,0,1.176,3.122,6.044,6.044,0,0,1,.761,1.249,4.955,4.955,0,0,0,.554,1.041,1.123,1.123,0,0,0,1.107.624.98.98,0,0,1,1.038.624c.139.277.485.208.692.069a3.923,3.923,0,0,0,.9-.555,1.96,1.96,0,0,0,1.038-1.734v-.624h0a34.166,34.166,0,0,1,.346-4.648,39.858,39.858,0,0,1,.484-4.023,1.356,1.356,0,0,0,.069-.555,18.442,18.442,0,0,1,.346-3.885l.308-2.359c.046-.393.084-.786.108-1.179.138-2.359.623-4.578.9-6.937l.277-1.665h0c.208-2.428.346-4.856.484-7.215a15.1,15.1,0,0,0-.208-3.052,19.5,19.5,0,0,1-.554-2.15,3.021,3.021,0,0,0-.9-1.734,1.8,1.8,0,0,1-.623-1.11,3.258,3.258,0,0,0-1.107-1.873,3.646,3.646,0,0,1-.83-.971,1.276,1.276,0,0,0-1.592-.624,5.839,5.839,0,0,0-2.284,1.11,20.918,20.918,0,0,0-3.6,3.4c-.554.694-1.177,1.457-1.8,2.15a34.549,34.549,0,0,0-3.322,4.37c-.554.9-1.038,1.873-1.522,2.775a39.748,39.748,0,0,0-2.422,4.093c-.83,1.734-1.73,3.538-2.63,5.272A37.949,37.949,0,0,0,383.129-29c-.623,1.457-1.246,2.844-1.938,4.232a30.655,30.655,0,0,0-1.661,3.746l-.384.971a4.713,4.713,0,0,1-.238.486,29.631,29.631,0,0,0-1.73,4.925,3.167,3.167,0,0,0,.692,3.191,7.578,7.578,0,0,1,.9,1.179,1.5,1.5,0,0,0,1.384,1.041c.208,0,.484.208.692.277a1.2,1.2,0,0,0,1.73-.832,2.764,2.764,0,0,1,.623-1.457A2.9,2.9,0,0,0,383.475-11.932Zm12.388-22.962c-.277.347-.554.624-.831.971a2.415,2.415,0,0,1-.761.9,9.485,9.485,0,0,1,1.937-3.3l.364-.334-.222.509C396.171-35.726,396-35.31,395.863-34.893Zm39.972-17.1-.545-.027.361-.181a5.862,5.862,0,0,1,3.051-.386c.138,0,.415,0,.415.208,0,.139-.277.139-.484.208C437.691-52.167,436.794-51.989,435.836-51.989Zm1.205,3.568c-.069,0-.069-.139-.069-.208a.242.242,0,0,1,.069-.139,3.272,3.272,0,0,1,2.145-.277.149.149,0,0,1,.138.139c.069.139,0,.277-.138.277-.415.069-.83.139-1.107.208C437.595-48.421,437.318-48.282,437.041-48.421ZM422.715-14.429a1,1,0,0,0-.208-.139.527.527,0,0,1,.138-.277,28.569,28.569,0,0,1,2.907-1.526,4.4,4.4,0,0,1,.484-.139c.069,0,.138.069.208.139,0,.069,0,.208-.069.208A7.136,7.136,0,0,1,422.715-14.429Zm2.7,4.509a.73.73,0,0,1-.346-.139.306.306,0,0,1,.069-.347,6.2,6.2,0,0,1,2.491-1.318c.138-.069.208.069.208.277a.255.255,0,0,1-.069.208A4.957,4.957,0,0,1,425.414-9.92Zm7.059-3.538a3.541,3.541,0,0,0,.831-1.387.436.436,0,0,1,.138-.555,2.345,2.345,0,0,0,.9-1.249,6.578,6.578,0,0,1,.346-1.249,17.176,17.176,0,0,0,.692-2.012,1.42,1.42,0,0,0-.069-1.387,3.855,3.855,0,0,1-.415-1.526,3.682,3.682,0,0,0-1.176-2.289,3.627,3.627,0,0,1-.83-1.179,1.823,1.823,0,0,0-1.107-1.041c-.554-.277-.969-.139-1.038.486a6.142,6.142,0,0,1-1.038,2.705,22.387,22.387,0,0,1-3.6,4.509,4.389,4.389,0,0,1-1.592,1.11l-1.592.624h0a5.933,5.933,0,0,1-2.215.347.637.637,0,0,1-.692-.624,3.492,3.492,0,0,1-.138-1.457,18.92,18.92,0,0,1,.692-3.954,1.143,1.143,0,0,0,.138-.694,2.919,2.919,0,0,1,.415-1.457c.415-1.041.83-2.012,1.246-3.052a4.836,4.836,0,0,1,1.315-1.942,1.349,1.349,0,0,0,.623-.971c-.138-.139-.208-.277-.138-.416a10.4,10.4,0,0,0,1.315-2.22c.069-.208.277-.277.484-.416a3.935,3.935,0,0,0,.564-.654l.128-.248h.069a4.788,4.788,0,0,0,.208-.555,2.268,2.268,0,0,1-.159.4l-.089.119-.083-.078c-.2-.238-.1-.476.193-.714l.415-.208a3.219,3.219,0,0,1,.83-1.6c.277-.416.692-.763.761-1.249a2.443,2.443,0,0,1,.969-1.526,11.316,11.316,0,0,0,1.177-1.387,2.714,2.714,0,0,1,1.453-1.179,3.012,3.012,0,0,0,1.107-.694.464.464,0,0,1,0-.694,9.464,9.464,0,0,1,4.5-2.567,3.5,3.5,0,0,1,.9-.139c.069,0,.138.069.208.139a1,1,0,0,1-.138.208l-.831.208h0a3.961,3.961,0,0,0-1.938.971c.692-.208,1.315-.416,1.938-.624.346-.069.623-.208.9.069s.069.624-.069.832c-.277.555-.554,1.041-.831,1.526-.346.624-.692,1.249-1.038,1.8a2.585,2.585,0,0,0-.346,1.387c.069.763.069,1.526.069,2.22a.62.62,0,0,0,.554.694,2.016,2.016,0,0,1,.623.139.229.229,0,0,1,0,.347c-.138.208-.208.347.138.347a3.369,3.369,0,0,0,1.176-.069h.277a1.452,1.452,0,0,1,.277-.416,28.383,28.383,0,0,0,2.561-4.44,9.4,9.4,0,0,0,.761-2.359,14.426,14.426,0,0,0-.9-6.868c-.138-.347-.346-.624-.484-.971a4.341,4.341,0,0,0-2.63-1.873,11.015,11.015,0,0,0-5.19.347,3.827,3.827,0,0,0-1.523.694,7.45,7.45,0,0,1-1.661.832,9.887,9.887,0,0,0-3.183,1.873c-1.177.971-2.422,2.012-3.6,3.052a23.736,23.736,0,0,0-2.284,2.289c-1.453,1.873-2.837,3.815-4.222,5.758-.484.694-.969,1.387-1.384,2.081a18.09,18.09,0,0,1-1.176,1.942,25.649,25.649,0,0,0-1.453,2.289c-.415.971-.831,1.873-1.246,2.775a16.231,16.231,0,0,0-1.315,3.469,15.047,15.047,0,0,0,.484,7.631,36.16,36.16,0,0,0,2.63,6.035,12.931,12.931,0,0,0,3.806,4.162c2.007,1.665,4.429,1.873,6.921,1.942.208,0,.346-.069.554-.069a9.03,9.03,0,0,0,5.744-3.885v-.208h0c-.415.069-.554.416-.831.624a11.332,11.332,0,0,1-4.36,2.844,9.165,9.165,0,0,1,2.007-1.665,26.234,26.234,0,0,0,2.63-2.22,3.332,3.332,0,0,1,1.107-.832A1.307,1.307,0,0,0,432.473-13.458Zm41.178-16.649a2.86,2.86,0,0,0,.692-.9l.64-1.665a15.491,15.491,0,0,0,.536-1.665,14.429,14.429,0,0,0,1.592-3.677,1.712,1.712,0,0,0-.069-.832l.069.069h0c.692-.971.623-2.22,1.453-3.052a.427.427,0,0,0,.069-.416c-.138-.555.208-1.041.346-1.6l.623-1.873c.069-.416,0-.624-.484-.624-.277,0-.346-.208-.277-.486a8.406,8.406,0,0,1,.346-1.249,1.874,1.874,0,0,0-1.938-2.359c-.138,0-.415.069-.484,0-.139-.208.138-.347.277-.555a.666.666,0,0,0-.208-.694,1.579,1.579,0,0,0-2.007-.277,3.955,3.955,0,0,0-1.107.763,16.728,16.728,0,0,0-2.907,3.33,25.241,25.241,0,0,1-2.422,3.607c-.138.069-.138.277-.277.416-.554.971-1.107,1.873-1.592,2.844a3.676,3.676,0,0,0-.415.694c-.554,1.6-1.384,3.052-2.076,4.578a1.867,1.867,0,0,1-1.453,1.11,3.937,3.937,0,0,0-.9.069c-1.384.069-2.837.139-4.221.139-.138,0-.346.069-.484,0a.486.486,0,0,1-.484-.624,5.207,5.207,0,0,1,.346-1.11,11.035,11.035,0,0,0-.9.9,4.607,4.607,0,0,1,.9-2.15,2.486,2.486,0,0,0,.761-1.734,1.709,1.709,0,0,1,.277-.763,12.338,12.338,0,0,0,1.523-3.191,22.006,22.006,0,0,0,.83-3.052c.059-.3-.136-.391-.41-.368l-.077.012-.047-.408a5.361,5.361,0,0,1-.019-1.249,2.592,2.592,0,0,0-1.107-2.567c-.346-.139-.415-.486-.554-.832a1.969,1.969,0,0,0-3.46-.624,1.839,1.839,0,0,0-.346.416,41.067,41.067,0,0,0-4.706,6.8,51.785,51.785,0,0,0-2.768,5.55c-.9,2.012-1.869,4.023-2.7,6.1a3.249,3.249,0,0,1-1.8,2.012,4.254,4.254,0,0,0-1.315.832,1.741,1.741,0,0,0-.346,2.289,1.462,1.462,0,0,1,.346,1.041,5.2,5.2,0,0,1-.692,2.914,80.933,80.933,0,0,0-3.668,9.3,4.138,4.138,0,0,0-.069,1.6c.069.971.415,1.665,1.522,1.8.208,0,.277.139.277.347v.763h0a1.9,1.9,0,0,0,.346,1.249,1.231,1.231,0,0,0,.761.555.835.835,0,0,0,.692-.208c.069-.069.138-.139.208-.139.277-.069.484,0,.554.208.069.139,0,.277.069.416.138.416.415.555.761.347a10.127,10.127,0,0,0,.9-.624c.208-.069.415-.208.623,0,.138.208.346.277.484-.069.346-.832.692-1.665,1.107-2.5.554-1.249,1.177-2.5,1.8-3.815.139-.208.415-.486.208-.9-.9,1.318-1.246,2.844-2.353,4.023a2.479,2.479,0,0,1,.415-1.318,25.368,25.368,0,0,0,1.246-2.359c.484-1.179,1.038-2.359,1.592-3.607a10.508,10.508,0,0,1,.623-1.249l.138-.139a.254.254,0,0,0,.208-.069.7.7,0,0,0,.069.208,5.514,5.514,0,0,1-.277.624c0,.208-.277.416,0,.763.484-.832.831-1.665,1.246-2.428.415-.9.9-1.8,1.315-2.705a2.1,2.1,0,0,1,1.592-1.249l1.038-.208a15.168,15.168,0,0,0,2.976-.624,16.215,16.215,0,0,1,2.561-.347c.623-.069.831.208.831.763a6.77,6.77,0,0,1-.692,2.5,17.764,17.764,0,0,0-.761,1.665,14.535,14.535,0,0,1-.761,2.081l-.415,1.249a37.973,37.973,0,0,1-1.453,4.232,13.019,13.019,0,0,0-.623,2.844,4.786,4.786,0,0,0,.208,2.22c.138.347.277.694.623.763.761.139.9.694,1.038,1.318a4.416,4.416,0,0,0,.415,1.249c.415.763.761.832,1.592.624A.982.982,0,0,1,459.6-5.2c.069,0,.208.139.277.208s.069.139.069.277c.208.624.346.763.969.486a2.27,2.27,0,0,1,1.177-.277c.415.069.623-.139.761-.555.277-.832.554-1.734.83-2.636-.138.069-.208.208-.346.208S463.2-7.7,463.2-7.77a2.9,2.9,0,0,1,.969-1.8c.346.069.554-.139.761-.416a20.291,20.291,0,0,1,.969-2.15c.969-2.359,1.938-4.717,3.114-6.937.554-1.11.969-2.359,1.453-3.538.138-.277.138-.486-.277-.416-.208,0-.208-.139-.208-.277a1.893,1.893,0,0,1,.623-.832,3.369,3.369,0,0,0,1.038-1.179,5.707,5.707,0,0,1,1.592-2.012.934.934,0,0,0,.415-.971A7.861,7.861,0,0,1,473.651-30.107Zm18.962-2.567a17.544,17.544,0,0,0,1.246-2.567c.069-.277.138-.486-.138-.694a.343.343,0,0,1,.069-.486c.277-.347.623-.694.9-1.041v-.555h0a15.326,15.326,0,0,1,.831-1.873c.484-1.734,1.038-3.4,1.592-5.064.069-.347.138-.763.208-1.179a.934.934,0,0,0-.138-.624,2.533,2.533,0,0,1-.415-1.873,2.715,2.715,0,0,0-.554-1.873,12.765,12.765,0,0,1-1.177-1.526,1.691,1.691,0,0,0-2.837-.347,14.575,14.575,0,0,0-3.114,3.954,26.032,26.032,0,0,1-1.661,2.5,4.556,4.556,0,0,0-.831,1.179c-.761,1.526-1.522,3.122-2.353,4.648a28.554,28.554,0,0,0-1.938,4.509c-.554,1.6-1.107,3.122-1.73,4.648-.277.694-.692,1.387-.969,2.081-.415.9-.623,1.873-1.038,2.775a110.35,110.35,0,0,0-3.875,10.406,6.992,6.992,0,0,0-.484,3.954,3.081,3.081,0,0,0,1.107,2.012,2.117,2.117,0,0,1,.969,1.665,4.065,4.065,0,0,0,.277,1.318,1.639,1.639,0,0,0,.831.971c.415.069.692-.208.969-.347a.6.6,0,0,1,.9.208c.138.277.208.624.346.832a.505.505,0,0,0,.692.277,12.721,12.721,0,0,1,1.73-.624,1.013,1.013,0,0,0,.831-1.249,16.987,16.987,0,0,1,.484-2.705c0-.139.208-.277.346-.416v.069a8.556,8.556,0,0,0,.969-2.15,22.494,22.494,0,0,0,1.107-3.677c-.208-.069-.277-.139-.138-.347a3.019,3.019,0,0,0,.415-.486c-.069-.416.277-.694.415-1.041.208-.347.554-.694.415-1.11-.138-.555.208-.9.484-1.249,0-.139.069-.208.138-.347v-.457a1,1,0,0,1,.485-.93.644.644,0,0,0,.208-.832c-.138-.416-.138-.624.277-.832a.854.854,0,0,0,.346-.971,1.263,1.263,0,0,1,.554-1.11,2.215,2.215,0,0,0,.623-1.11c-.069,0-.069.069-.138.069s-.277.069-.346.069c-.138-.069-.069-.277-.069-.347a2.112,2.112,0,0,1,.623-.9,3.393,3.393,0,0,0,1.176-1.734,14.838,14.838,0,0,1,.692-1.526A6.517,6.517,0,0,0,492.613-32.674ZM514.69-46.34a1.912,1.912,0,0,1-.623-.069c-.069,0-.208-.069-.208-.139s.069-.208.138-.208a3.114,3.114,0,0,1,.761-.208c.969-.139,2.007-.347,2.976-.416a30.623,30.623,0,0,1,5.121-.416c.554.139,1.384-.208,2.076.277a4.6,4.6,0,0,1-2.145.277A80.282,80.282,0,0,0,514.69-46.34Zm0,.624a.242.242,0,0,1-.069-.139.1.1,0,0,1,0-.139,1.167,1.167,0,0,1,.346-.139,64.137,64.137,0,0,1,7.336-.832c.554,0,1.177.069,1.8.069a.255.255,0,0,1-.069.208l-2.7.277h0c-2.076.139-4.083.486-6.09.694A1.486,1.486,0,0,1,514.69-45.715Zm.969,2.844h-.484a1.027,1.027,0,0,1-.415-.069.063.063,0,0,1-.067-.051l0-.3h0c.208-.069.415-.208.623-.277a44.8,44.8,0,0,1,5.329-.763c.9-.069,1.8-.139,2.7-.139a6.837,6.837,0,0,1,2.076.139c.069.069.138.139.138.208s-.069.208-.138.208a4.042,4.042,0,0,1-.9.139A54.014,54.014,0,0,0,515.659-42.871ZM509.084-25.39h-.277c-.069,0-.069-.069-.138-.139.069-.069.138-.139.208-.139.692-.139,1.453-.208,2.145-.277.969-.139,1.869-.208,2.768-.347,0,.069,0,.069.069.139-.069.069-.138.139-.208.139l-4.568.624ZM502.51-17.62a6.159,6.159,0,0,0,.761-2.15h-.208c.138-.139.208-.347.346-.486a7.312,7.312,0,0,0,1.177-2.012.311.311,0,0,0-.126-.366l-.064-.038.055-.2a1.7,1.7,0,0,1,.205-.437.3.3,0,0,1,.484-.139,3.053,3.053,0,0,1,1.107-.416,9.065,9.065,0,0,1,1.938.069,7.543,7.543,0,0,0,2.491-.139,45.476,45.476,0,0,1,6.09-.694c.277-.069.554-.069.761-.139a1.17,1.17,0,0,0,.692-.486.441.441,0,0,0-.208-.694c-.277-.069-.554-.139-.761-.208a.149.149,0,0,1-.138-.139c0-.139,0-.208.069-.277l.415-.208c.761-.486.831-.832.208-1.457-.277-.208-.554-.347-.761-.486-.277-.208-.484-.347-.761-.555a.531.531,0,0,1-.138-.624c.346-.486.069-.763-.277-1.11a2.538,2.538,0,0,0-1.384-.624,16.659,16.659,0,0,0-2.63-.069,4.458,4.458,0,0,1-1.661,0,.675.675,0,0,1-.484-.763,14.541,14.541,0,0,1,.9-2.428,25.269,25.269,0,0,0,2.076-4.37A3.73,3.73,0,0,1,514-41.19l.339-.225,0-.088c.009-.2.053-.342.275-.4a6.468,6.468,0,0,1,1.107-.277l3.945-.624h0a35.1,35.1,0,0,1,4.706-.208,5.508,5.508,0,0,1,2.561.555,2.206,2.206,0,0,0,.969.208c.346,0,.554-.208.484-.486a.986.986,0,0,1,.277-.971,1.267,1.267,0,0,0,.069-1.665,1.521,1.521,0,0,0-.208-.347,2.2,2.2,0,0,1-.484-1.6,2.181,2.181,0,0,0-.415-1.11,4.548,4.548,0,0,0-1.176-.832,6.228,6.228,0,0,0-2.976-.416c-.623.069-1.315.069-1.938.139-2.007.139-4.083.277-6.021.486a31.37,31.37,0,0,0-3.529.624,13.87,13.87,0,0,0-3.253,1.11,2.273,2.273,0,0,0-1.246,1.041.855.855,0,0,0-.069.9c.208.208.484.069.761,0,.138,0,.208-.069.346-.069s.277,0,.277.208c.069,0-.069.139-.138.139-.208.139-.623.139-.623.416,0,.624-.623.971-.831,1.6a6.9,6.9,0,0,1-.761,1.387c-1.453,1.873-2.907,3.815-4.221,5.827-1.73,2.636-3.668,5.064-4.983,7.908-.069.069-.138.139-.138.208a46.5,46.5,0,0,0-3.875,7.631,4.472,4.472,0,0,1-.761,1.387,3.525,3.525,0,0,0-.623,2.636,6.535,6.535,0,0,0,.761,2.5,7.367,7.367,0,0,1,1.107,2.359c.138.347.346.763.484,1.11a1.8,1.8,0,0,0,.692.763,9.823,9.823,0,0,0,6.436,2.22h2.353c2.422-.069,4.844.069,7.267.208,1.73.069,3.53.069,5.329.139a2.16,2.16,0,0,0,1.315-.277c.484-.277.623-.694.138-1.11-.277-.277-.484-.486-.277-.9a1.256,1.256,0,0,0-.415-1.734,4.85,4.85,0,0,0-.692-.555,2.315,2.315,0,0,1-.761-.9,2.917,2.917,0,0,0-1.8-1.457,9.783,9.783,0,0,0-1.523-.486c-2.284-.416-4.568-.763-6.851-.971-.969-.139-1.868-.277-2.768-.416-.415-.069-.554-.347-.484-.763A8.4,8.4,0,0,0,502.51-17.62ZM564.1-54.525c.208-.277.069-.486-.277-.624l.554-.555h0c.208-.277.761-.486.554-.971-.208-.416-.692-.277-1.107-.416a2.117,2.117,0,0,0-2.215.763c-.208.347-.484.624-.692.971a21.384,21.384,0,0,1-2.076,2.844,26.48,26.48,0,0,0-2.422,3.26,22.113,22.113,0,0,1-2.076,2.914,8.829,8.829,0,0,0-.9,1.318,54.929,54.929,0,0,1-3.322,5.48,2.865,2.865,0,0,0-.484.763,2.164,2.164,0,0,0-1.107,1.11,4.423,4.423,0,0,1-.692,1.249c-.692.763-1.177,1.734-1.8,2.567a17.167,17.167,0,0,1-1.315,1.8,21.648,21.648,0,0,0-2.353,3.26l-1.73,2.705h0a5.291,5.291,0,0,1-.623.624.379.379,0,0,1-.623-.208v-.694h0c.069-.486.208-.971.277-1.526.623-2.983,1.177-6.035,1.8-9.018.069-.347.346-.9-.346-1.041,0-.069-.069-.277,0-.416a6.413,6.413,0,0,1,.346-.694.255.255,0,0,1,.069-.208c.138,0,.138.139.208.208a6.518,6.518,0,0,0,.415-1.041,39.158,39.158,0,0,0,1.384-5.619,15.068,15.068,0,0,0,.277-1.734.343.343,0,0,1-.069-.486,2.206,2.206,0,0,0,.554-1.387h.069a.762.762,0,0,1-.208-.832,10.372,10.372,0,0,0,.138-1.457c-.069-.416-.208-.486-.623-.347-.484.069-.623,0-.692-.416a4.065,4.065,0,0,1,.138-1.318,1.342,1.342,0,0,0-.069-1.041c-.554-.763-.969-1.665-1.938-2.081a2.04,2.04,0,0,1-1.384-1.11,1.525,1.525,0,0,0-1.107-.832c-.346-.069-.761-.139-1.177-.208a1.527,1.527,0,0,0-1.661.763,2.864,2.864,0,0,0-.484.763c-.346.694-.623,1.387-.969,2.012a39.193,39.193,0,0,0-2.007,5.411c-.415,1.318-.692,2.636-1.177,3.954-.277.763-.277,1.526-.623,2.289a13.757,13.757,0,0,0-.692,2.914c-.069.416-.138.832-.208,1.318a27.965,27.965,0,0,0-.623,4.3l-.072,1.415a12.383,12.383,0,0,1-.274,2.123,48.763,48.763,0,0,0-1.038,7.77v.139h0a19.151,19.151,0,0,0-.208,5.272,1.183,1.183,0,0,1-.069.486c-.208,1.179-.138,2.289-.277,3.4a8.415,8.415,0,0,0,0,2.636,5.415,5.415,0,0,0,1.73,3.607,2.846,2.846,0,0,1,.9,1.6c.069.416.069.9.138,1.318a9.833,9.833,0,0,1,.277,1.387.882.882,0,0,0,.484.624,3.14,3.14,0,0,1,1.592,1.8,1.894,1.894,0,0,0,.623.832c.554.416.9.416,1.384-.139a15.076,15.076,0,0,0,2.63-3.607l1.038-1.665c0-.069.208-.208.277-.208a.242.242,0,0,1,.069.347c-.969,1.665-1.73,3.4-2.837,4.925l-.415.624c-.069.208-.069.416.069.486a.876.876,0,0,0,.415.069,3.077,3.077,0,0,0,1.315-1.179,87.672,87.672,0,0,0,4.775-7.631c1.523-2.636,3.114-5.272,4.706-7.908,1.592-2.705,3.322-5.342,4.983-8.047.969-1.457,1.869-2.983,2.768-4.509.692-1.041,1.453-2.081,2.076-3.191.9-1.526,1.938-3.052,2.907-4.578.415-.624.83-1.318,1.315-1.942a6.839,6.839,0,0,1,.875-1.157l.3-.231h0a2.555,2.555,0,0,1,.554-1.457,42.888,42.888,0,0,1,2.491-3.677c.138-.208.277-.486.415-.694.346-.555.692-1.179,1.107-1.8.623-.9,1.177-1.942,1.869-2.844a3.587,3.587,0,0,0,.415-.9.418.418,0,0,0-.069-.277h-.277l-.83.624c-.138.069-.277.139-.346,0-.069-.069,0-.208,0-.277a7.58,7.58,0,0,0,.554-1.041,2.052,2.052,0,0,0-.554-2.289c-.346-.347-.9-.208-1.177-.694-.415.069-.484.486-.692.763a8.377,8.377,0,0,1-1.107,1.11A2.08,2.08,0,0,0,564.1-54.525Zm2.076,7.561a15.668,15.668,0,0,0,2.145-3.4A7.7,7.7,0,0,0,566.179-46.964Zm-5.744,8.879a2.6,2.6,0,0,0,1.107-1.179,52.889,52.889,0,0,1,3.322-5.342,5.882,5.882,0,0,0,1.038-2.081c-.069.139-.277.208-.346.347-.761,1.179-1.592,2.359-2.353,3.607a14.762,14.762,0,0,1-1.73,2.359,5.441,5.441,0,0,1-.623,1.457Zm-2.63,4.232a1.619,1.619,0,0,0,.484-.486,20.677,20.677,0,0,0,1.869-3.122A6.87,6.87,0,0,0,557.805-33.853Zm-3.183,5.064a6.544,6.544,0,0,0,.692-.694,31.869,31.869,0,0,0,2.422-4.232c-.208.139-.346.208-.415.416A29.872,29.872,0,0,0,554.622-28.789ZM538.289-1.942a5.091,5.091,0,0,0,.969-1.249c2.007-2.775,3.6-5.827,5.329-8.741a48.477,48.477,0,0,1,2.7-4.509l1.038-1.665c1.8-2.914,3.6-5.9,5.329-8.81a5.669,5.669,0,0,0,.969-1.8,3.528,3.528,0,0,0-.9,1.11c-1.661,2.567-3.322,5.133-4.914,7.77-1.73,2.705-3.322,5.48-4.983,8.255-1.038,1.8-2.076,3.607-3.183,5.411-.554.971-1.177,1.873-1.73,2.775A4.025,4.025,0,0,0,538.289-1.942Zm41.385-44.4a1.911,1.911,0,0,1-.623-.069c-.069,0-.208-.069-.208-.139s.069-.208.138-.208a3.113,3.113,0,0,1,.761-.208c.969-.139,2.007-.347,2.976-.416a30.624,30.624,0,0,1,5.121-.416c.554.139,1.384-.208,2.076.277a4.6,4.6,0,0,1-2.145.277A80.276,80.276,0,0,0,579.674-46.34Zm0,.624a.242.242,0,0,1-.069-.139.1.1,0,0,1,0-.139,1.167,1.167,0,0,1,.346-.139,64.139,64.139,0,0,1,7.336-.832c.554,0,1.177.069,1.8.069a.255.255,0,0,1-.069.208l-2.7.277h0c-2.076.139-4.083.486-6.09.694A1.486,1.486,0,0,1,579.674-45.715Zm.969,2.844h-.484a1.026,1.026,0,0,1-.415-.069.064.064,0,0,1-.067-.051l0-.3h0c.208-.069.415-.208.623-.277a44.8,44.8,0,0,1,5.329-.763c.9-.069,1.8-.139,2.7-.139a6.837,6.837,0,0,1,2.076.139c.069.069.138.139.138.208s-.069.208-.138.208a4.042,4.042,0,0,1-.9.139A54.016,54.016,0,0,0,580.643-42.871ZM574.069-25.39h-.277c-.069,0-.069-.069-.138-.139.069-.069.138-.139.208-.139.692-.139,1.453-.208,2.145-.277.969-.139,1.869-.208,2.768-.347,0,.069,0,.069.069.139-.069.069-.138.139-.208.139l-4.568.624Zm-6.575,7.769a6.158,6.158,0,0,0,.761-2.15h-.208c.138-.139.208-.347.346-.486a7.311,7.311,0,0,0,1.177-2.012.311.311,0,0,0-.126-.366l-.064-.038.054-.2a1.7,1.7,0,0,1,.205-.437.3.3,0,0,1,.484-.139,3.053,3.053,0,0,1,1.107-.416,9.065,9.065,0,0,1,1.938.069,7.543,7.543,0,0,0,2.491-.139,45.478,45.478,0,0,1,6.09-.694c.277-.069.554-.069.761-.139a1.171,1.171,0,0,0,.692-.486.441.441,0,0,0-.208-.694c-.277-.069-.554-.139-.761-.208a.149.149,0,0,1-.138-.139c0-.139,0-.208.069-.277l.415-.208c.761-.486.831-.832.208-1.457-.277-.208-.554-.347-.761-.486-.277-.208-.484-.347-.761-.555a.531.531,0,0,1-.138-.624c.346-.486.069-.763-.277-1.11a2.539,2.539,0,0,0-1.384-.624,16.658,16.658,0,0,0-2.63-.069,4.457,4.457,0,0,1-1.661,0,.675.675,0,0,1-.484-.763,14.56,14.56,0,0,1,.9-2.428,25.267,25.267,0,0,0,2.076-4.37,3.73,3.73,0,0,1,1.322-1.926l.339-.225,0-.088c.009-.2.053-.342.275-.4a6.463,6.463,0,0,1,1.107-.277l3.945-.624h0a35.1,35.1,0,0,1,4.706-.208,5.509,5.509,0,0,1,2.561.555,2.206,2.206,0,0,0,.969.208c.346,0,.554-.208.484-.486a.986.986,0,0,1,.277-.971,1.268,1.268,0,0,0,.069-1.665,1.519,1.519,0,0,0-.208-.347,2.2,2.2,0,0,1-.484-1.6,2.181,2.181,0,0,0-.415-1.11,4.547,4.547,0,0,0-1.177-.832,6.228,6.228,0,0,0-2.976-.416c-.623.069-1.315.069-1.938.139-2.007.139-4.083.277-6.021.486a31.371,31.371,0,0,0-3.53.624,13.869,13.869,0,0,0-3.253,1.11,2.273,2.273,0,0,0-1.246,1.041.855.855,0,0,0-.069.9c.208.208.484.069.761,0,.138,0,.208-.069.346-.069s.277,0,.277.208c.069,0-.069.139-.138.139-.208.139-.623.139-.623.416,0,.624-.623.971-.831,1.6a6.889,6.889,0,0,1-.761,1.387c-1.453,1.873-2.907,3.815-4.221,5.827-1.73,2.636-3.668,5.064-4.983,7.908-.069.069-.138.139-.138.208a46.5,46.5,0,0,0-3.875,7.631,4.471,4.471,0,0,1-.761,1.387,3.525,3.525,0,0,0-.623,2.636,6.535,6.535,0,0,0,.761,2.5,7.367,7.367,0,0,1,1.107,2.359c.138.347.346.763.484,1.11a1.8,1.8,0,0,0,.692.763,9.823,9.823,0,0,0,6.436,2.22h2.353c2.422-.069,4.844.069,7.267.208,1.73.069,3.529.069,5.329.139a2.16,2.16,0,0,0,1.315-.277c.484-.277.623-.694.138-1.11-.277-.277-.484-.486-.277-.9a1.256,1.256,0,0,0-.415-1.734,4.857,4.857,0,0,0-.692-.555,2.317,2.317,0,0,1-.761-.9,2.917,2.917,0,0,0-1.8-1.457,9.786,9.786,0,0,0-1.523-.486c-2.284-.416-4.568-.763-6.851-.971-.969-.139-1.869-.277-2.768-.416-.415-.069-.554-.347-.484-.763A8.394,8.394,0,0,0,567.494-17.62Z" fill="none"/>
    </clipPath>
    <clipPath id="clip-path-2">
      <path id="Path_25" data-name="Path 25" d="M-386,2615H980V-1038H-386Z" fill="none"/>
    </clipPath>
  </defs>
  <g id="Group_20" data-name="Group 20" transform="translate(-377 59)" clip-path="url(#clip-path)">
    <g id="Group_19" data-name="Group 19" clip-path="url(#clip-path-2)">
      <path id="Path_24" data-name="Path 24" d="M372-64H599V5H372Z" fill="#fdd001"/>
    </g>
  </g>
</svg>
