<svg width="93" height="31" viewBox="0 0 93 31" fill="none" xmlns="http://www.w3.org/2000/svg">
<g clip-path="url(#clip0_6168_4453)">
<path d="M0 4.38889C0 1.96497 1.96497 0 4.38889 0H88.6111C91.035 0 93 1.96497 93 4.38889V26.6111C93 29.035 91.035 31 88.6111 31H4.38889C1.96497 31 0 29.035 0 26.6111V4.38889Z" fill="#000000"/>
<path d="M37.584 20.1985H34.6849L33.9887 22.084H32.7607L35.5067 15.1077H36.7825L39.5284 22.084H38.2796L37.584 20.1985ZM34.9852 19.3283H37.2831L36.1503 16.2681H36.1186L34.9852 19.3283ZM45.4586 19.5412C45.4586 21.1218 44.5363 22.1372 43.1446 22.1372C42.792 22.1542 42.4414 22.0797 42.1328 21.9223C41.8243 21.7649 41.5703 21.531 41.3999 21.2474H41.3736V23.7667H40.2353V16.9978H41.3371V17.8438H41.358C41.5362 17.5615 41.7945 17.3288 42.1054 17.1705C42.4163 17.0121 42.7682 16.9341 43.1236 16.9446C44.5309 16.9446 45.4586 17.9651 45.4586 19.5412ZM44.2887 19.5412C44.2887 18.5115 43.7086 17.8344 42.8234 17.8344C41.9537 17.8344 41.3688 18.5257 41.3688 19.5412C41.3688 20.566 41.9537 21.2524 42.8234 21.2524C43.7086 21.2524 44.2887 20.5804 44.2887 19.5412ZM51.562 19.5412C51.562 21.1218 50.6395 22.1372 49.2477 22.1372C48.8951 22.1542 48.5445 22.0797 48.2359 21.9223C47.9274 21.7649 47.6734 21.531 47.503 21.2474H47.4767V23.7667H46.3385V16.9978H47.4402V17.8438H47.4611C47.6393 17.5615 47.8976 17.3288 48.2085 17.1705C48.5194 17.0121 48.8713 16.9341 49.2267 16.9446C50.6341 16.9446 51.562 17.9651 51.562 19.5412ZM50.3919 19.5412C50.3919 18.5115 49.8117 17.8344 48.9265 17.8344C48.0568 17.8344 47.4719 18.5257 47.4719 19.5412C47.4719 20.566 48.0568 21.2524 48.9265 21.2524C49.8117 21.2524 50.3919 20.5804 50.3919 19.5412ZM55.5951 20.1403C55.6794 20.8321 56.4121 21.2864 57.4133 21.2864C58.3727 21.2864 59.0629 20.8321 59.0629 20.2083C59.0629 19.6668 58.6466 19.3426 57.661 19.1204L56.6753 18.9026C55.2787 18.5931 54.6304 17.994 54.6304 17.0219C54.6304 15.8182 55.7739 14.9914 57.3972 14.9914C59.0049 14.9914 60.1066 15.8182 60.1438 17.0219H58.9948C58.926 16.3257 58.2985 15.9054 57.3817 15.9054C56.4647 15.9054 55.8373 16.3306 55.8373 16.9495C55.8373 17.4427 56.2381 17.7329 57.2184 17.9551L58.0563 18.1438C59.6168 18.4823 60.2645 19.0573 60.2645 20.0777C60.2645 21.3829 59.1317 22.2003 57.329 22.2003C55.6423 22.2003 54.5035 21.402 54.43 20.1403L55.5951 20.1403ZM62.7222 15.7941V16.9978H63.7766V17.8246H62.7222V20.6286C62.7222 21.0642 62.9333 21.2671 63.3969 21.2671C63.522 21.2651 63.647 21.2571 63.7713 21.243V22.0649C63.5629 22.1006 63.351 22.1167 63.1391 22.1131C62.0164 22.1131 61.5786 21.7264 61.5786 20.7399V17.8246H60.7723V16.9978H61.5786V15.7941H62.7222ZM64.3867 19.5412C64.3867 17.9408 65.4142 16.9352 67.0166 16.9352C68.6244 16.9352 69.6471 17.9408 69.6471 19.5412C69.6471 21.1459 68.6297 22.1471 67.0166 22.1471C65.4041 22.1471 64.3867 21.1459 64.3867 19.5412ZM68.4873 19.5412C68.4873 18.4434 67.9389 17.7955 67.0166 17.7955C66.0943 17.7955 65.5459 18.4483 65.5459 19.5412C65.5459 20.6434 66.0943 21.2864 67.0166 21.2864C67.9389 21.2864 68.4873 20.6434 68.4873 19.5412ZM70.5855 16.9978H71.6711V17.8635H71.6974C71.7708 17.5931 71.9435 17.3542 72.1864 17.1868C72.4293 17.0195 72.7276 16.9339 73.0312 16.9446C73.1624 16.9441 73.2932 16.9572 73.4212 16.9835V17.9601C73.2556 17.9136 73.0828 17.8923 72.9098 17.897C72.7444 17.8908 72.5796 17.9176 72.4265 17.9754C72.2735 18.0332 72.136 18.1206 72.0233 18.2318C71.9106 18.343 71.8255 18.4752 71.7738 18.6194C71.7221 18.7636 71.705 18.9164 71.7237 19.0672V22.084H70.5855V16.9978ZM78.6689 20.5901C78.5158 21.5135 77.5355 22.1471 76.2813 22.1471C74.6682 22.1471 73.667 21.1558 73.667 19.5653C73.667 17.9699 74.6736 16.9352 76.2335 16.9352C77.7676 16.9352 78.7323 17.9019 78.7323 19.4441V19.8018H74.8159V19.8649C74.7979 20.0521 74.8234 20.2406 74.8909 20.4181C74.9584 20.5955 75.0662 20.7578 75.2073 20.894C75.3484 21.0303 75.5195 21.1375 75.7092 21.2084C75.8989 21.2794 76.1029 21.3125 76.3077 21.3056C76.5766 21.3287 76.8465 21.2715 77.0773 21.1426C77.308 21.0137 77.4872 20.82 77.5882 20.5901H78.6689ZM74.8213 19.0721H77.5936C77.6038 18.9038 77.576 18.7354 77.5119 18.5774C77.4478 18.4194 77.3488 18.2753 77.221 18.1541C77.0933 18.0328 76.9397 17.9371 76.7697 17.873C76.5998 17.8088 76.4172 17.7776 76.2335 17.7812C76.0481 17.7802 75.8644 17.8128 75.6929 17.8773C75.5214 17.9418 75.3654 18.0367 75.2342 18.1568C75.1029 18.2768 74.9988 18.4195 74.9279 18.5766C74.8571 18.7337 74.8208 18.9021 74.8213 19.0721ZM34.1126 8.94855C34.3512 8.93284 34.5907 8.9659 34.8137 9.04536C35.0367 9.12482 35.2377 9.24868 35.4022 9.40803C35.5667 9.56737 35.6906 9.75821 35.7649 9.9668C35.8393 10.1754 35.8622 10.3965 35.8321 10.6142C35.8321 11.6851 35.2011 12.3007 34.1126 12.3007H32.7925V8.94849L34.1126 8.94855ZM33.3602 11.8266H34.0492C34.2197 11.8359 34.3903 11.8103 34.5487 11.7515C34.707 11.6927 34.8491 11.6023 34.9645 11.4868C35.08 11.3714 35.1659 11.2337 35.216 11.0839C35.2661 10.9342 35.2792 10.776 35.2543 10.621C35.2774 10.4666 35.263 10.3094 35.2121 10.1607C35.1612 10.0121 35.0751 9.87555 34.9599 9.76098C34.8447 9.64642 34.7034 9.55664 34.5459 9.49807C34.3885 9.43951 34.2188 9.41362 34.0492 9.42225H33.3602V11.8266ZM36.4733 11.0347C36.456 10.8685 36.4767 10.7007 36.5342 10.5423C36.5917 10.3838 36.6846 10.2381 36.8071 10.1145C36.9295 9.99092 37.0788 9.89218 37.2453 9.82461C37.4118 9.75704 37.5918 9.72213 37.7739 9.72213C37.956 9.72213 38.136 9.75704 38.3025 9.82461C38.469 9.89218 38.6183 9.99092 38.7407 10.1145C38.8632 10.2381 38.9561 10.3838 39.0136 10.5423C39.0711 10.7007 39.0918 10.8685 39.0745 11.0347C39.0922 11.2011 39.0717 11.3691 39.0144 11.5279C38.9571 11.6866 38.8643 11.8327 38.7418 11.9565C38.6193 12.0804 38.4699 12.1794 38.3032 12.2471C38.1365 12.3148 37.9562 12.3498 37.7739 12.3498C37.5916 12.3498 37.4113 12.3148 37.2446 12.2471C37.0779 12.1794 36.9285 12.0804 36.806 11.9565C36.6835 11.8327 36.5907 11.6866 36.5334 11.5279C36.4761 11.3691 36.4556 11.2011 36.4733 11.0347ZM38.5147 11.0347C38.5147 10.4863 38.2461 10.1657 37.7748 10.1657C37.3017 10.1657 37.0356 10.4863 37.0356 11.0347C37.0356 11.5874 37.3017 11.9056 37.7748 11.9056C38.2461 11.9056 38.5147 11.5853 38.5147 11.0347ZM42.5322 12.3006H41.9675L41.3975 10.4375H41.3545L40.7869 12.3006H40.2277L39.4675 9.7709H40.0195L40.5136 11.7012H40.5542L41.1213 9.7709H41.6434L42.2104 11.7012H42.2535L42.7451 9.7709H43.2894L42.5322 12.3006ZM43.9287 9.77095H44.4527V10.1728H44.4934C44.5624 10.0285 44.6787 9.90745 44.8263 9.82666C44.9738 9.74586 45.1451 9.7093 45.3164 9.72208C45.4506 9.71283 45.5853 9.73139 45.7106 9.77638C45.8359 9.82138 45.9486 9.89166 46.0403 9.98202C46.132 10.0724 46.2003 10.1805 46.2402 10.2984C46.2802 10.4163 46.2907 10.5409 46.271 10.663V12.3006H45.7267V10.7884C45.7267 10.3818 45.5341 10.1797 45.1316 10.1797C45.0404 10.1758 44.9495 10.19 44.8649 10.2214C44.7804 10.2527 44.7042 10.3005 44.6417 10.3614C44.5791 10.4223 44.5317 10.4948 44.5026 10.5741C44.4735 10.6534 44.4634 10.7375 44.473 10.8207V12.3006H43.9287V9.77095ZM47.1382 8.78338H47.6825V12.3006H47.1382V8.78338ZM48.4391 11.0347C48.4218 10.8684 48.4425 10.7007 48.5 10.5422C48.5574 10.3837 48.6504 10.238 48.7729 10.1144C48.8954 9.99078 49.0446 9.89202 49.2112 9.82445C49.3777 9.75687 49.5578 9.72196 49.7399 9.72196C49.9219 9.72196 50.102 9.75687 50.2685 9.82445C50.4351 9.89202 50.5843 9.99078 50.7068 10.1144C50.8293 10.238 50.9223 10.3837 50.9797 10.5422C51.0372 10.7007 51.0579 10.8684 51.0406 11.0347C51.0582 11.2011 51.0377 11.3691 50.9804 11.5278C50.923 11.6865 50.8301 11.8324 50.7076 11.9562C50.5851 12.08 50.4357 12.179 50.2691 12.2467C50.1024 12.3144 49.9221 12.3494 49.7399 12.3494C49.5576 12.3494 49.3773 12.3144 49.2106 12.2467C49.044 12.179 48.8946 12.08 48.7721 11.9562C48.6496 11.8324 48.5567 11.6865 48.4993 11.5278C48.442 11.3691 48.4215 11.2011 48.4391 11.0347ZM50.4804 11.0347C50.4804 10.4863 50.2119 10.1657 49.7406 10.1657C49.2675 10.1657 49.0013 10.4863 49.0013 11.0347C49.0013 11.5874 49.2675 11.9056 49.7406 11.9056C50.2119 11.9056 50.4804 11.5853 50.4804 11.0347ZM51.6136 11.5853C51.6136 11.1299 51.9832 10.8673 52.6393 10.83L53.3863 10.7905V10.5722C53.3863 10.305 53.1938 10.1541 52.8218 10.1541C52.5179 10.1541 52.3074 10.2565 52.247 10.4353H51.72C51.7756 10.0008 52.2212 9.72213 52.8469 9.72213C53.5383 9.72213 53.9282 10.0379 53.9282 10.5722V12.3006H53.4043V11.9451H53.3612C53.2738 12.0727 53.1511 12.1766 53.0056 12.2464C52.86 12.3162 52.6969 12.3493 52.5329 12.3423C52.4171 12.3534 52.3001 12.342 52.1894 12.3091C52.0787 12.2761 51.9767 12.2222 51.8901 12.1509C51.8035 12.0795 51.7341 11.9924 51.6865 11.8949C51.6389 11.7975 51.614 11.692 51.6136 11.5853ZM53.3863 11.3691V11.1576L52.7129 11.1971C52.3331 11.2204 52.1608 11.3389 52.1608 11.5619C52.1608 11.7896 52.3761 11.9221 52.6722 11.9221C52.759 11.9302 52.8466 11.9221 52.9299 11.8985C53.0132 11.8748 53.0905 11.8361 53.1571 11.7845C53.2237 11.7329 53.2783 11.6695 53.3177 11.5981C53.3571 11.5268 53.3804 11.4489 53.3863 11.3691ZM54.6436 11.0347C54.6436 10.2353 55.0916 9.72899 55.7884 9.72899C55.9607 9.7217 56.1318 9.75956 56.2815 9.83815C56.4313 9.91674 56.5536 10.0328 56.6341 10.1728H56.6748V8.78333H57.219V12.3006H56.6975V11.9009H56.6544C56.5677 12.0399 56.4412 12.1545 56.2885 12.2323C56.1359 12.3101 55.9629 12.3482 55.7884 12.3423C55.0868 12.3423 54.6436 11.8359 54.6436 11.0347ZM55.2058 11.0347C55.2058 11.5712 55.4816 11.8941 55.9426 11.8941C56.4014 11.8941 56.6849 11.5666 56.6849 11.0368C56.6849 10.5097 56.3984 10.1775 55.9426 10.1775C55.4845 10.1775 55.2058 10.5025 55.2058 11.0347ZM59.4709 11.0347C59.4536 10.8685 59.4743 10.7007 59.5318 10.5423C59.5892 10.3838 59.6822 10.2381 59.8046 10.1145C59.9271 9.99092 60.0764 9.89218 60.2429 9.82461C60.4094 9.75704 60.5894 9.72213 60.7715 9.72213C60.9536 9.72213 61.1336 9.75704 61.3001 9.82461C61.4666 9.89218 61.6159 9.99092 61.7383 10.1145C61.8608 10.2381 61.9537 10.3838 62.0112 10.5423C62.0687 10.7007 62.0894 10.8685 62.0721 11.0347C62.0898 11.2011 62.0693 11.3691 62.012 11.5279C61.9547 11.6866 61.8618 11.8327 61.7394 11.9565C61.6169 12.0804 61.4675 12.1794 61.3008 12.2471C61.1341 12.3148 60.9538 12.3498 60.7715 12.3498C60.5892 12.3498 60.4089 12.3148 60.2422 12.2471C60.0755 12.1794 59.9261 12.0804 59.8036 11.9565C59.6811 11.8327 59.5882 11.6866 59.5309 11.5279C59.4736 11.3691 59.4532 11.2011 59.4709 11.0347ZM61.5123 11.0347C61.5123 10.4863 61.2437 10.1657 60.7724 10.1657C60.2993 10.1657 60.0332 10.4863 60.0332 11.0347C60.0332 11.5874 60.2993 11.9056 60.7724 11.9056C61.2437 11.9056 61.5123 11.5853 61.5123 11.0347ZM62.8024 9.77095H63.3263V10.1728H63.367C63.436 10.0285 63.5523 9.90745 63.6999 9.82666C63.8474 9.74586 64.0187 9.7093 64.19 9.72208C64.3242 9.71283 64.4589 9.73139 64.5842 9.77638C64.7096 9.82138 64.8222 9.89166 64.9139 9.98202C65.0056 10.0724 65.0739 10.1805 65.1138 10.2984C65.1538 10.4163 65.1643 10.5409 65.1446 10.663V12.3006H64.6003V10.7884C64.6003 10.3818 64.4077 10.1797 64.0052 10.1797C63.9141 10.1758 63.8231 10.19 63.7386 10.2214C63.654 10.2527 63.5779 10.3005 63.5153 10.3614C63.4528 10.4223 63.4053 10.4948 63.3762 10.5741C63.3471 10.6534 63.337 10.7375 63.3466 10.8207V12.3006H62.8024L62.8024 9.77095ZM68.2201 9.14113V9.78247H68.8176V10.203H68.2201V11.5037C68.2201 11.7687 68.3391 11.8848 68.61 11.8848C68.6794 11.8846 68.7487 11.8807 68.8175 11.8732V12.2891C68.7198 12.3052 68.6208 12.3137 68.5215 12.3146C67.9162 12.3146 67.6752 12.1193 67.6752 11.6316V10.203H67.2374V9.78241H67.6752V9.14119L68.2201 9.14113ZM69.561 8.78338H70.1005V10.1775H70.1436C70.2159 10.0318 70.3355 9.91009 70.486 9.82899C70.6365 9.74789 70.8105 9.71132 70.9845 9.72427C71.118 9.7176 71.2515 9.73805 71.3754 9.78414C71.4992 9.83023 71.6105 9.90084 71.7012 9.99092C71.792 10.081 71.8599 10.1883 71.9002 10.3053C71.9405 10.4222 71.9521 10.5459 71.9343 10.6674V12.3006H71.3895V10.7905C71.3895 10.3864 71.1843 10.1818 70.7997 10.1818C70.7062 10.1748 70.6121 10.1866 70.524 10.2164C70.436 10.2462 70.3561 10.2933 70.2899 10.3544C70.2238 10.4155 70.173 10.4891 70.1411 10.5701C70.1092 10.651 70.097 10.7374 70.1053 10.8232V12.3006H69.561V8.78338ZM75.1079 11.6176C75.034 11.8488 74.8738 12.0488 74.6553 12.1826C74.4368 12.3164 74.174 12.3754 73.9129 12.3495C73.7312 12.3539 73.5506 12.3219 73.3837 12.2559C73.2168 12.1899 73.0676 12.0913 72.9464 11.9671C72.8251 11.8429 72.7349 11.6959 72.6818 11.5365C72.6287 11.377 72.614 11.2089 72.6389 11.0437C72.6147 10.8781 72.6296 10.7096 72.6825 10.5496C72.7355 10.3897 72.8253 10.2421 72.9459 10.1167C73.0665 9.99142 73.215 9.89133 73.3814 9.82323C73.5478 9.75514 73.7283 9.72064 73.9105 9.72208C74.6778 9.72208 75.1408 10.203 75.1408 10.9973V11.1716H73.1934V11.1995C73.1848 11.2924 73.1976 11.3858 73.2307 11.4739C73.2638 11.5619 73.3167 11.6427 73.3858 11.7109C73.455 11.7791 73.5389 11.8333 73.6323 11.8701C73.7256 11.9068 73.8263 11.9253 73.9278 11.9242C74.058 11.9386 74.1899 11.9171 74.3068 11.8625C74.4236 11.8079 74.5201 11.7226 74.584 11.6176H75.1079ZM73.1934 10.8023H74.5863C74.5932 10.7174 74.5806 10.6322 74.5494 10.552C74.5182 10.4718 74.4691 10.3985 74.4051 10.3368C74.3412 10.2751 74.2639 10.2263 74.1782 10.1936C74.0925 10.1609 74.0003 10.1451 73.9075 10.147C73.8133 10.1459 73.7199 10.1621 73.6327 10.1947C73.5455 10.2272 73.4663 10.2755 73.3998 10.3366C73.3332 10.3976 73.2807 10.4703 73.2452 10.5503C73.2098 10.6303 73.1921 10.716 73.1934 10.8023Z" fill="white"/>
<path d="M22.4065 13.9215C22.0624 14.4899 21.8773 15.1307 21.8683 15.7842C21.8691 16.5193 22.1008 17.2379 22.5343 17.8504C22.9678 18.4629 23.5841 18.9422 24.3062 19.2286C24.0223 20.0933 23.5943 20.9106 23.0381 21.65C22.2913 22.6976 21.5081 23.721 20.2651 23.7399C19.0573 23.766 18.6515 23.0734 17.2661 23.0734C15.868 23.0734 15.4353 23.721 14.2769 23.766C13.0932 23.8071 12.1885 22.648 11.4145 21.6103C9.86735 19.491 8.66257 15.638 10.2777 13.0163C10.6506 12.3881 11.1906 11.8612 11.8452 11.4869C12.4999 11.1126 13.2467 10.9037 14.0131 10.8805C15.198 10.8576 16.2983 11.6307 17.0267 11.6307C17.7413 11.6307 19.1009 10.7058 20.5032 10.8439C21.1606 10.8631 21.8042 11.0259 22.3828 11.3192C22.9614 11.6124 23.4591 12.0281 23.8363 12.5333C23.2425 12.8756 22.7506 13.3531 22.4065 13.9215Z" fill="white"/>
<path d="M20.5178 6.71704C20.5987 7.70693 20.2648 8.68739 19.587 9.45018C19.2625 9.82863 18.8507 10.133 18.3825 10.3406C17.9142 10.5482 17.4019 10.6534 16.884 10.6484C16.8509 10.1724 16.9183 9.69493 17.0822 9.24334C17.2461 8.79174 17.5033 8.37486 17.8391 8.01653C18.526 7.283 19.4824 6.81902 20.5178 6.71704Z" fill="white"/>
</g>
<defs>
<clipPath id="clip0_6168_4453">
<rect width="93" height="31" rx="4.42857" fill="white"/>
</clipPath>
</defs>
</svg>
