<svg width="40" height="39" viewBox="0 0 40 39" fill="none" xmlns="http://www.w3.org/2000/svg">
<path d="M22.8064 38.6597C22.6443 38.6861 22.4816 38.7104 22.3184 38.7327C22.4816 38.7104 22.6443 38.6861 22.8064 38.6597Z" fill="white"/>
<path d="M23.1953 38.5929C23.1179 38.6072 23.0404 38.6202 22.9629 38.6336C23.0404 38.6202 23.1179 38.6072 23.1953 38.5929Z" fill="white"/>
<path d="M21.8836 38.7866C21.6939 38.808 21.503 38.827 21.3115 38.843C21.503 38.827 21.6939 38.808 21.8836 38.7866Z" fill="white"/>
<path d="M22.2567 38.7412C22.1656 38.7534 22.0739 38.7647 21.9824 38.7754C22.0739 38.7647 22.1656 38.7534 22.2567 38.7412Z" fill="white"/>
<path d="M23.726 38.4881C23.6577 38.5026 23.5891 38.5171 23.5205 38.5311C23.5891 38.5171 23.6577 38.5026 23.726 38.4881Z" fill="white"/>
<path d="M25.0407 38.1616C24.9854 38.1774 24.9302 38.1922 24.875 38.2076C24.9302 38.1922 24.9854 38.1774 25.0407 38.1616Z" fill="white"/>
<path d="M24.6434 38.27C24.5834 38.2858 24.5232 38.3018 24.4629 38.3169C24.5232 38.3018 24.5834 38.2861 24.6434 38.27Z" fill="white"/>
<path d="M24.1225 38.4007C24.0589 38.4155 23.9948 38.4295 23.9307 38.4437C23.9948 38.4295 24.0589 38.4155 24.1225 38.4007Z" fill="white"/>
<path d="M21.3046 38.8438C21.2022 38.8524 21.0998 38.8601 20.9971 38.8669C21.0998 38.8601 21.2022 38.8524 21.3046 38.8438Z" fill="white"/>
<path d="M39.1259 19.4565C39.1259 8.71262 30.4133 0 19.6694 0C8.92551 0 0.212891 8.71262 0.212891 19.4565C0.212891 30.2004 8.92551 38.913 19.6694 38.913C19.7837 38.913 19.8974 38.9107 20.0114 38.9086V23.7625H15.8313V18.891H20.0114V15.3061C20.0114 11.1485 22.5495 8.88571 26.2581 8.88571C28.0341 8.88571 29.5607 9.01812 30.0057 9.0772V13.4224H27.4483C25.4307 13.4224 25.04 14.3813 25.04 15.7882V18.891H29.8644L29.2356 23.7625H25.04V38.1613C33.1725 35.8299 39.1259 28.3375 39.1259 19.4565Z" fill="#393939"/>
<path d="M20.9555 38.8692C20.753 38.8822 20.5497 38.8926 20.3457 38.8995C20.5497 38.8926 20.753 38.8822 20.9555 38.8692Z" fill="white"/>
<path d="M20.3347 38.9009C20.2273 38.9044 20.1195 38.9071 20.0117 38.9089C20.1195 38.9071 20.2273 38.9044 20.3347 38.9009Z" fill="white"/>
</svg>
