<svg xmlns="http://www.w3.org/2000/svg" xmlns:xlink="http://www.w3.org/1999/xlink" width="132" height="60" viewBox="0 0 132 60">
  <defs>
    <clipPath id="clip-path">
      <path id="Path_20" data-name="Path 20" d="M29.777-55.973c-.07,0-.209,0-.209-.208,0-.069.07-.139.139-.208A10.453,10.453,0,0,1,33.6-57.43c.139,0,.348.069.487.069a.242.242,0,0,1,.07.139.068.068,0,0,1-.07.069c0,.069-.07.069-.07.139C32.628-56.667,31.237-56.32,29.777-55.973Zm1.113.694c0-.139,0-.208.07-.277a7.519,7.519,0,0,1,2.5-.763c.07,0,.139.069.209.139v.069c0,.069,0,.069-.07.139a10.849,10.849,0,0,1-2.573.694A.1.1,0,0,1,30.889-55.279Zm.626,3.745c0-.069.07-.208.139-.208a8.939,8.939,0,0,1,3.2-1.457,1.379,1.379,0,0,1,.765.139.254.254,0,0,1,.07.208c0,.139-.07.208-.139.208a.383.383,0,0,1-.348.208,26.636,26.636,0,0,0-3.338,1.04A.254.254,0,0,1,31.515-51.534ZM29.846-12c.07-.069.139-.139.139-.208a31.975,31.975,0,0,0,3.477-5.687,4,4,0,0,0,.348-.971l-.417.555h0c-1.043,1.6-1.878,3.4-3.06,4.925A3.318,3.318,0,0,0,29.846-12Zm-12.309.208-.031-.139A.094.094,0,0,1,17.538-12a1.3,1.3,0,0,1,.417-.486A72.349,72.349,0,0,0,23.587-17.2a6.351,6.351,0,0,1,.9-.555c0-.069.07,0,.07,0,.07,0,.07.069.07.139l-.07.208h0a21.5,21.5,0,0,1-6.467,5.549A.787.787,0,0,1,17.538-11.791Zm2.573,0a.243.243,0,0,1-.139-.069V-12h0a1.515,1.515,0,0,0,.209-.347,41.1,41.1,0,0,1,4.59-3.884,1.652,1.652,0,0,1-.417.763,16.7,16.7,0,0,1-4.033,3.607l-.209.069Zm1.53,4.508a2.492,2.492,0,0,1,.765-1.457,40.044,40.044,0,0,0,4.311-4.092l.417-.277h0a.212.212,0,0,1,.278,0c.07,0,.07.139.07.208l-.626,1.11h0a18.126,18.126,0,0,1-4.033,3.953A2.649,2.649,0,0,1,21.64-7.283Zm4.242,0a9.959,9.959,0,0,0,3.686-4.439c-1.113,1.179-2.156,2.428-3.268,3.676A7.559,7.559,0,0,0,25.882-7.283Zm-9.527-24a4.4,4.4,0,0,1-.417,1.248,46.777,46.777,0,0,0-3.407,7.907c-.07.139-.07.277-.278.208v-.277h0a.752.752,0,0,1,.07-.347l.626-2.011h0a42.058,42.058,0,0,1,2.017-4.855A6.293,6.293,0,0,1,16-30.94l.352-.341Zm.7-1.8c.974-1.457,1.947-2.913,2.99-4.3a17.764,17.764,0,0,1,1.391-1.8A45.391,45.391,0,0,1,25.4-43.419a4.191,4.191,0,0,0,.556-.555,10.256,10.256,0,0,1,1.878-2.011c.487-.555,1.043-1.11,1.53-1.6a21.518,21.518,0,0,1,4.59-3.329,3.043,3.043,0,0,1,1.46-.486.243.243,0,0,1,.139.069.13.13,0,0,1,0,.208,1.744,1.744,0,0,1-.487.277A20.828,20.828,0,0,0,29.5-46.887c-1.878,1.8-3.547,3.884-5.355,5.826a2.351,2.351,0,0,0-.626.971,7.954,7.954,0,0,0,2.225-2.081c1.182-1.457,2.573-2.774,3.894-4.162A17.558,17.558,0,0,1,34.018-49.8a5.549,5.549,0,0,1,1.113-.555.641.641,0,0,1,.7-.069.649.649,0,0,1,.139.763l-.834,1.942h0c-.348.694-.7,1.318-.974,2.011a3.073,3.073,0,0,0-.139,2.219,7.106,7.106,0,0,1,.348,1.665c.139.555.209.624.9.694.278,0,.348.139.417.347.139.416.278.486.556.347a6.008,6.008,0,0,0,1.113-.694,8.546,8.546,0,0,0,2.782-3.121,10.1,10.1,0,0,0,.834-7.768,22.166,22.166,0,0,0-1.808-4.162,6.917,6.917,0,0,0-7.649-3.676,11.48,11.48,0,0,0-3.616,1.11,2.911,2.911,0,0,1-.7.277,8.537,8.537,0,0,0-2.225,1.179c-.765.486-1.53.971-2.225,1.387a5.133,5.133,0,0,0-.9.555c-1.043.971-2.225,1.665-3.268,2.5a15.2,15.2,0,0,0-2.921,2.636A24.1,24.1,0,0,1,11.9-45.985,18.727,18.727,0,0,0,8.775-42.1L6.967-39.188h0A5.416,5.416,0,0,0,6.2-37.8a20.613,20.613,0,0,1-1.669,3.26A6.289,6.289,0,0,0,3.49-32.113a3,3,0,0,1-.348.832A6.183,6.183,0,0,0,2.1-29.131a13.875,13.875,0,0,1-.7,1.8,13.15,13.15,0,0,0-.974,2.774,33.17,33.17,0,0,0-.417,5.9,18.127,18.127,0,0,0,.07,1.942,12.533,12.533,0,0,0,2.782,6.173C4.047-9.155,5.229-7.907,6.481-6.658A7.262,7.262,0,0,0,9.123-4.716a14.736,14.736,0,0,0,7.3,1.318A12.887,12.887,0,0,0,23.24-5.826,7.591,7.591,0,0,1,24-6.242,5.476,5.476,0,0,1,25.4-7.976,34.172,34.172,0,0,0,29.359-12.9c.556-.763,1.113-1.665,1.669-2.5a44.453,44.453,0,0,0,3.129-5.618l.209-.486h0c.07-.277-.07-.416-.417-.277a1.177,1.177,0,0,0-.348.139c-.278.069-.487-.139-.417-.486A1.4,1.4,0,0,1,34.3-23.3a13.263,13.263,0,0,1,4.937-.624,8.437,8.437,0,0,0,1.321.069,2.964,2.964,0,0,0,2.017-1.11c.209-.277.07-.624-.209-.624-.278-.069-.487-.069-.765-.139-.348-.069-.487-.277-.417-.555.07-.139.139-.208.139-.347.556-1.457.556-1.457-.626-2.5a.149.149,0,0,0-.139-.139,5.415,5.415,0,0,1-1.669-2.081,3.122,3.122,0,0,0-1.6-1.526,9.022,9.022,0,0,0-3.477-.971,24.412,24.412,0,0,0-6.745,0,11.817,11.817,0,0,1-1.6.069,2.733,2.733,0,0,0-1.252.277l-3.825,1.457h0a6.008,6.008,0,0,0-1.113.694,1.368,1.368,0,0,0-.417.832,4.788,4.788,0,0,0,.348,1.942.488.488,0,0,0,.626.277c.278-.069.487-.208.765-.277.834-.347,1.669-.763,2.573-1.04a6.848,6.848,0,0,1,1.113-.347.527.527,0,0,1,.278.069l-.139.208h0a2.221,2.221,0,0,1-1.113.624,15.7,15.7,0,0,0-2.99,1.665c-.139.069-.348.208-.209.347,0,.069.209.069.348.069l.626-.069h0c-.139.208-.209.486-.348.694a1.575,1.575,0,0,0,.209,1.8,1.871,1.871,0,0,0,.487.555,1.1,1.1,0,0,0,1.182.347,2.376,2.376,0,0,1,1.391,0,2.6,2.6,0,0,0-.556,1.734,1.629,1.629,0,0,1-.348,1.11,9.487,9.487,0,0,1-1.6,1.734,42.93,42.93,0,0,1-5.146,3.607,32.2,32.2,0,0,1-3.686,2.011c-.556.277-1.043.069-1.113-.486a6.33,6.33,0,0,1,.07-1.179,34.335,34.335,0,0,1,.834-4.786,40.235,40.235,0,0,1,6.05-13.248c.974-1.526,2.017-2.982,3.06-4.439a3.839,3.839,0,0,0,.834-1.318,11.227,11.227,0,0,0-2.921,3.329,30.815,30.815,0,0,1-3.129,4.3A2.564,2.564,0,0,1,17.051-33.084Zm42.837.416a17.515,17.515,0,0,0,1.252-2.566c.07-.277.139-.486-.139-.694-.139-.139-.07-.347.07-.486l.9-1.04h0v-.555h0a15.285,15.285,0,0,1,.834-1.873c.487-1.734,1.043-3.4,1.6-5.063.07-.347.139-.763.209-1.179a.931.931,0,0,0-.139-.624,2.523,2.523,0,0,1-.417-1.873,2.7,2.7,0,0,0-.556-1.873,12.763,12.763,0,0,1-1.182-1.526,1.7,1.7,0,0,0-2.851-.347,14.583,14.583,0,0,0-3.129,3.953,26.014,26.014,0,0,1-1.669,2.5,4.557,4.557,0,0,0-.834,1.179c-.765,1.526-1.53,3.121-2.364,4.647a28.472,28.472,0,0,0-1.947,4.508c-.556,1.6-1.113,3.121-1.738,4.647-.278.694-.7,1.387-.974,2.081-.417.9-.626,1.873-1.043,2.774a109.978,109.978,0,0,0-3.894,10.4,6.959,6.959,0,0,0-.487,3.953A3.076,3.076,0,0,0,42.5-9.71a2.114,2.114,0,0,1,.974,1.665,4.047,4.047,0,0,0,.278,1.318,1.641,1.641,0,0,0,.834.971c.417.069.7-.208.974-.347a.609.609,0,0,1,.9.208c.139.277.209.624.348.832a.508.508,0,0,0,.7.277,12.824,12.824,0,0,1,1.738-.624,1.013,1.013,0,0,0,.834-1.248,16.906,16.906,0,0,1,.487-2.705c0-.139.209-.277.348-.416v.069a8.533,8.533,0,0,0,.974-2.15A22.415,22.415,0,0,0,53-15.536c-.209-.069-.278-.139-.139-.347a3.019,3.019,0,0,0,.417-.486c-.07-.416.278-.694.417-1.04.209-.347.556-.694.417-1.11-.139-.555.209-.9.487-1.248,0-.139.07-.208.139-.347v-.457a1,1,0,0,1,.488-.93.642.642,0,0,0,.209-.832c-.139-.416-.139-.624.278-.832a.852.852,0,0,0,.348-.971,1.261,1.261,0,0,1,.556-1.11,2.212,2.212,0,0,0,.626-1.11c-.07,0-.07.069-.139.069s-.278.069-.348.069c-.139-.069-.07-.277-.07-.347a2.112,2.112,0,0,1,.626-.9A3.392,3.392,0,0,0,58.5-29.2a14.822,14.822,0,0,1,.7-1.526A6.5,6.5,0,0,0,59.887-32.668Zm42.072-21.848c.209-.277.07-.486-.278-.624l.556-.555c.209-.277.765-.486.556-.971-.209-.416-.7-.277-1.113-.416a2.133,2.133,0,0,0-2.225.763c-.209.347-.487.624-.7.971a21.388,21.388,0,0,1-2.086,2.844,26.473,26.473,0,0,0-2.434,3.26,22.112,22.112,0,0,1-2.086,2.913,8.831,8.831,0,0,0-.9,1.318,54.86,54.86,0,0,1-3.338,5.479,2.863,2.863,0,0,0-.487.763,2.169,2.169,0,0,0-1.113,1.11,4.414,4.414,0,0,1-.7,1.248c-.7.763-1.182,1.734-1.808,2.566a17.176,17.176,0,0,1-1.321,1.8,21.641,21.641,0,0,0-2.364,3.26l-1.739,2.705h0a5.3,5.3,0,0,1-.626.624.382.382,0,0,1-.626-.208v-.694h0c.07-.486.209-.971.278-1.526.626-2.982,1.182-6.034,1.808-9.017.07-.347.348-.9-.348-1.04,0-.069-.07-.277,0-.416a6.41,6.41,0,0,1,.348-.694.254.254,0,0,1,.07-.208c.139,0,.139.139.209.208a6.5,6.5,0,0,0,.417-1.04,39,39,0,0,0,1.391-5.618,14.984,14.984,0,0,0,.278-1.734c-.139-.139-.209-.347-.07-.486a2.2,2.2,0,0,0,.556-1.387h.07a.759.759,0,0,1-.209-.832A10.321,10.321,0,0,0,82.07-51.6c-.07-.416-.209-.486-.626-.347-.487.069-.626,0-.7-.416a4.044,4.044,0,0,1,.139-1.318,1.336,1.336,0,0,0-.07-1.04c-.556-.763-.974-1.665-1.947-2.081a2.048,2.048,0,0,1-1.391-1.11,1.532,1.532,0,0,0-1.113-.832c-.348-.069-.765-.139-1.182-.208a1.538,1.538,0,0,0-1.669.763,2.863,2.863,0,0,0-.487.763c-.348.694-.626,1.387-.974,2.011a39.059,39.059,0,0,0-2.017,5.41c-.417,1.318-.7,2.636-1.182,3.953-.278.763-.278,1.526-.626,2.289a13.692,13.692,0,0,0-.7,2.913c-.07.416-.139.832-.209,1.318a27.835,27.835,0,0,0-.626,4.3L66.63-33.82a12.324,12.324,0,0,1-.275,2.122,48.517,48.517,0,0,0-1.043,7.768v.139h0a19.056,19.056,0,0,0-.209,5.271,1.177,1.177,0,0,1-.07.486c-.209,1.179-.139,2.289-.278,3.4a8.373,8.373,0,0,0,0,2.636,5.4,5.4,0,0,0,1.739,3.607,2.842,2.842,0,0,1,.9,1.6c.07.416.07.9.139,1.318a9.8,9.8,0,0,1,.278,1.387.883.883,0,0,0,.487.624,3.145,3.145,0,0,1,1.6,1.8,1.894,1.894,0,0,0,.626.832c.556.416.9.416,1.391-.139A15.076,15.076,0,0,0,74.56-4.578L75.6-6.242c0-.069.209-.208.278-.208a.241.241,0,0,1,.07.347A56.88,56.88,0,0,1,73.1-1.179l-.417.624c-.07.208-.07.416.07.486A.884.884,0,0,0,73.169,0a3.086,3.086,0,0,0,1.321-1.179,87.6,87.6,0,0,0,4.8-7.63c1.53-2.636,3.129-5.271,4.729-7.907,1.6-2.705,3.338-5.341,5.007-8.046C90-26.218,90.9-27.744,91.806-29.27c.7-1.04,1.46-2.081,2.086-3.191.9-1.526,1.947-3.052,2.921-4.578.417-.624.834-1.318,1.321-1.942a6.84,6.84,0,0,1,.879-1.156l.3-.231h0a2.547,2.547,0,0,1,.556-1.457,42.857,42.857,0,0,1,2.5-3.676l.417-.694h0c.348-.555.7-1.179,1.113-1.8.626-.9,1.182-1.942,1.878-2.844a3.58,3.58,0,0,0,.417-.9.416.416,0,0,0-.069-.277h-.278l-.834.624h0c-.139.069-.278.139-.348,0-.07-.069,0-.208,0-.277a7.579,7.579,0,0,0,.556-1.04A2.045,2.045,0,0,0,104.671-55c-.348-.347-.9-.208-1.182-.694-.417.069-.487.486-.7.763a8.4,8.4,0,0,1-1.113,1.11A2.075,2.075,0,0,0,101.959-54.516Zm2.086,7.56a15.652,15.652,0,0,0,2.156-3.4A7.692,7.692,0,0,0,104.045-46.956Zm-5.772,8.878a2.6,2.6,0,0,0,1.113-1.179,52.856,52.856,0,0,1,3.338-5.341,5.866,5.866,0,0,0,1.043-2.081c-.069.139-.278.208-.348.347-.765,1.179-1.6,2.358-2.364,3.607a14.762,14.762,0,0,1-1.739,2.358,5.428,5.428,0,0,1-.626,1.457l-.417.832Zm-2.643,4.231a1.623,1.623,0,0,0,.487-.486A20.653,20.653,0,0,0,98-37.454,6.866,6.866,0,0,0,95.631-33.847Zm-3.2,5.063a6.548,6.548,0,0,0,.7-.694,31.813,31.813,0,0,0,2.434-4.231c-.209.139-.348.208-.417.416A29.835,29.835,0,0,0,92.432-28.784ZM76.02-1.942a5.091,5.091,0,0,0,.974-1.248c2.017-2.774,3.616-5.826,5.355-8.739a48.422,48.422,0,0,1,2.712-4.508L86.1-18.1c1.808-2.913,3.616-5.9,5.355-8.809a5.658,5.658,0,0,0,.974-1.8,3.531,3.531,0,0,0-.9,1.11c-1.669,2.566-3.338,5.133-4.937,7.768-1.739,2.705-3.338,5.479-5.007,8.254-1.043,1.8-2.086,3.607-3.2,5.41C77.828-5.2,77.2-4.3,76.646-3.4A4.014,4.014,0,0,0,76.02-1.942Zm41.585-44.39a1.93,1.93,0,0,1-.626-.069c-.07,0-.209-.069-.209-.139s.07-.208.139-.208a3.14,3.14,0,0,1,.765-.208c.974-.139,2.017-.347,2.99-.416a30.922,30.922,0,0,1,5.146-.416c.556.139,1.391-.208,2.086.277a4.642,4.642,0,0,1-2.156.277A81.051,81.051,0,0,0,117.605-46.332Zm0,.624a.242.242,0,0,1-.07-.139.1.1,0,0,1,0-.139,1.178,1.178,0,0,1,.348-.139,64.755,64.755,0,0,1,7.371-.832c.556,0,1.182.069,1.808.069a.254.254,0,0,1-.07.208l-2.712.277h0c-2.086.139-4.1.486-6.119.694A1.5,1.5,0,0,1,117.605-45.708Zm.973,2.844h-.487a1.036,1.036,0,0,1-.417-.069.068.068,0,0,1-.069-.069v-.277h0c.209-.069.417-.208.626-.277a45.227,45.227,0,0,1,5.355-.763c.9-.069,1.808-.139,2.712-.139a6.9,6.9,0,0,1,2.086.139c.07.069.139.139.139.208s-.069.208-.139.208a4.079,4.079,0,0,1-.9.139A54.537,54.537,0,0,0,118.579-42.864Zm-6.606,17.479h-.278c-.07,0-.07-.069-.139-.139.07-.069.139-.139.209-.139.7-.139,1.46-.208,2.156-.277.974-.139,1.878-.208,2.782-.347,0,.069,0,.069.07.139-.07.069-.139.139-.209.139l-4.59.624Zm-6.606,7.768a6.137,6.137,0,0,0,.765-2.15h-.209c.139-.139.209-.347.348-.486a7.3,7.3,0,0,0,1.182-2.011.311.311,0,0,0-.127-.366l-.067-.038.058-.2a1.7,1.7,0,0,1,.206-.437.3.3,0,0,1,.487-.139,3.077,3.077,0,0,1,1.113-.416,9.154,9.154,0,0,1,1.947.069,7.617,7.617,0,0,0,2.5-.139,45.912,45.912,0,0,1,6.119-.694c.278-.069.556-.069.765-.139a1.176,1.176,0,0,0,.7-.486.44.44,0,0,0-.209-.694c-.278-.069-.556-.139-.765-.208a.149.149,0,0,1-.139-.139c0-.139,0-.208.07-.277l.417-.208c.765-.486.834-.832.209-1.457-.278-.208-.556-.347-.765-.486-.278-.208-.487-.347-.765-.555a.529.529,0,0,1-.139-.624c.348-.486.07-.763-.278-1.11a2.556,2.556,0,0,0-1.391-.624,16.822,16.822,0,0,0-2.643-.069,4.5,4.5,0,0,1-1.669,0,.675.675,0,0,1-.487-.763,14.509,14.509,0,0,1,.9-2.428,25.2,25.2,0,0,0,2.086-4.37,3.685,3.685,0,0,1,1.669-2.15v.069c0-.277,0-.486.278-.555a6.525,6.525,0,0,1,1.113-.277l3.964-.624h0A35.442,35.442,0,0,1,127.341-43a5.558,5.558,0,0,1,2.573.555,2.226,2.226,0,0,0,.974.208c.348,0,.556-.208.487-.486a.982.982,0,0,1,.278-.971,1.263,1.263,0,0,0,.07-1.665,1.512,1.512,0,0,0-.209-.347,2.192,2.192,0,0,1-.487-1.6,2.174,2.174,0,0,0-.417-1.11,4.567,4.567,0,0,0-1.182-.832,6.286,6.286,0,0,0-2.99-.416c-.626.069-1.321.069-1.947.139-2.017.139-4.1.277-6.05.486a31.667,31.667,0,0,0-3.546.624,13.985,13.985,0,0,0-3.268,1.11,2.281,2.281,0,0,0-1.252,1.04.851.851,0,0,0-.07.9c.209.208.487.069.765,0,.139,0,.209-.069.348-.069s.278,0,.278.208c.07,0-.07.139-.139.139-.209.139-.626.139-.626.416,0,.624-.626.971-.834,1.6a6.883,6.883,0,0,1-.765,1.387c-1.46,1.873-2.921,3.815-4.242,5.826-1.738,2.636-3.686,5.063-5.007,7.907-.069.069-.139.139-.139.208a46.407,46.407,0,0,0-3.894,7.63,4.464,4.464,0,0,1-.765,1.387,3.511,3.511,0,0,0-.626,2.636,6.51,6.51,0,0,0,.765,2.5,7.351,7.351,0,0,1,1.113,2.358c.139.347.348.763.487,1.11a1.8,1.8,0,0,0,.7.763,9.9,9.9,0,0,0,6.467,2.219h2.364c2.434-.069,4.868.069,7.3.208,1.739.069,3.547.069,5.355.139a2.179,2.179,0,0,0,1.321-.277c.487-.277.626-.694.139-1.11-.278-.277-.487-.486-.278-.9a1.252,1.252,0,0,0-.417-1.734,4.869,4.869,0,0,0-.7-.555,2.317,2.317,0,0,1-.765-.9,2.928,2.928,0,0,0-1.808-1.457,9.863,9.863,0,0,0-1.53-.486c-2.295-.416-4.59-.763-6.884-.971-.974-.139-1.878-.277-2.782-.416-.417-.069-.556-.347-.487-.763A8.386,8.386,0,0,0,105.366-17.617Z" fill="none"/>
    </clipPath>
    <clipPath id="clip-path-2">
      <path id="Path_19" data-name="Path 19" d="M-386,2615H980V-1038H-386Z" fill="none"/>
    </clipPath>
  </defs>
  <g id="Group_16" data-name="Group 16" transform="translate(0 60)" clip-path="url(#clip-path)">
    <g id="Group_15" data-name="Group 15" clip-path="url(#clip-path-2)">
      <path id="Path_18" data-name="Path 18" d="M-5-65H137V5H-5Z" fill="#ed507e"/>
    </g>
  </g>
</svg>
