<svg width="40" height="39" viewBox="0 0 40 39" fill="none" xmlns="http://www.w3.org/2000/svg">
<path d="M19.8833 0C9.13938 0 0.426758 8.71262 0.426758 19.4565C0.426758 30.2004 9.13938 38.913 19.8833 38.913C30.6272 38.913 39.3398 30.2004 39.3398 19.4565C39.3398 8.71262 30.6272 0 19.8833 0ZM30.9882 24.0627C30.9342 25.252 30.745 26.0639 30.4689 26.7747C29.8885 28.2754 28.7022 29.4618 27.2014 30.0422C26.491 30.3183 25.6787 30.5071 24.4897 30.5614C23.2983 30.6158 22.9177 30.6288 19.8836 30.6288C16.8491 30.6288 16.4688 30.6158 15.2771 30.5614C14.0881 30.5071 13.2759 30.3183 12.5654 30.0422C11.8196 29.7616 11.1445 29.3219 10.5864 28.7534C10.0182 28.1956 9.57847 27.5202 9.29792 26.7747C9.02182 26.0642 8.8327 25.252 8.77867 24.063C8.72375 22.8713 8.71098 22.4907 8.71098 19.4565C8.71098 16.4224 8.72375 16.0418 8.77837 14.8504C8.8324 13.6611 9.02122 12.8491 9.29732 12.1384C9.57788 11.3929 10.0179 10.7175 10.5864 10.1596C11.1442 9.5911 11.8196 9.15142 12.5651 8.87086C13.2759 8.59476 14.0878 8.40594 15.2771 8.35161C16.4685 8.29728 16.8491 8.28422 19.8833 8.28422C22.9174 8.28422 23.298 8.29728 24.4894 8.35191C25.6787 8.40594 26.4907 8.59476 27.2014 8.87057C27.9469 9.15112 28.6223 9.5911 29.1805 10.1596C29.7487 10.7178 30.1887 11.3929 30.4689 12.1384C30.7453 12.8491 30.9342 13.6611 30.9885 14.8504C31.0428 16.0418 31.0556 16.4224 31.0556 19.4565C31.0556 22.4907 31.0428 22.8713 30.9882 24.0627V24.0627Z" fill="#393939"/>
<path d="M23.6074 19.4564C23.6074 21.5132 21.9401 23.1805 19.8833 23.1805C17.8265 23.1805 16.1592 21.5132 16.1592 19.4564C16.1592 17.3996 17.8265 15.7323 19.8833 15.7323C21.9401 15.7323 23.6074 17.3996 23.6074 19.4564Z" fill="#393939"/>
<path d="M28.5924 12.8675C28.4134 12.3824 28.1278 11.9433 27.7567 11.5829C27.3963 11.2118 26.9575 10.9262 26.4721 10.7471C26.0784 10.5942 25.487 10.4123 24.3978 10.3627C23.2194 10.3089 22.8661 10.2974 19.8831 10.2974C16.8997 10.2974 16.5464 10.3086 15.3684 10.3624C14.2791 10.4123 13.6874 10.5942 13.294 10.7471C12.8086 10.9262 12.3696 11.2118 12.0094 11.5829C11.6383 11.9433 11.3527 12.3821 11.1734 12.8675C11.0205 13.2611 10.8385 13.8528 10.7889 14.9421C10.7352 16.1201 10.7236 16.4734 10.7236 19.4568C10.7236 22.4399 10.7352 22.7932 10.7889 23.9715C10.8385 25.0608 11.0205 25.6521 11.1734 26.0458C11.3527 26.5312 11.638 26.97 12.0091 27.3304C12.3696 27.7015 12.8083 27.9871 13.2937 28.1662C13.6874 28.3193 14.2791 28.5013 15.3684 28.5509C16.5464 28.6046 16.8994 28.6159 19.8828 28.6159C22.8664 28.6159 23.2197 28.6046 24.3975 28.5509C25.4867 28.5013 26.0784 28.3193 26.4721 28.1662C27.4465 27.7903 28.2166 27.0202 28.5924 26.0458C28.7453 25.6521 28.9273 25.0608 28.9772 23.9715C29.0309 22.7932 29.0422 22.4399 29.0422 19.4568C29.0422 16.4734 29.0309 16.1201 28.9772 14.9421C28.9276 13.8528 28.7456 13.2611 28.5924 12.8675V12.8675ZM19.8831 25.1935C16.7144 25.1935 14.1458 22.6251 14.1458 19.4565C14.1458 16.2879 16.7144 13.7195 19.8831 13.7195C23.0514 13.7195 25.62 16.2879 25.62 19.4565C25.62 22.6251 23.0514 25.1935 19.8831 25.1935ZM25.8468 14.8334C25.1064 14.8334 24.5061 14.2331 24.5061 13.4927C24.5061 12.7523 25.1064 12.152 25.8468 12.152C26.5873 12.152 27.1876 12.7523 27.1876 13.4927C27.1873 14.2331 26.5873 14.8334 25.8468 14.8334Z" fill="#393939"/>
</svg>
