<svg width="40" height="39" viewBox="0 0 40 39" fill="none" xmlns="http://www.w3.org/2000/svg">
    <path fill-rule="evenodd" clip-rule="evenodd" d="M20.31 38.913C31.0556 38.913 39.7666 30.2021 39.7666 19.4565C39.7666 8.71098 31.0556 0 20.31 0C9.5645 0 0.853516 8.71098 0.853516 19.4565C0.853516 30.2021 9.5645 38.913 20.31 38.913ZM15.8904 15.1724V28.3003H11.712V15.1724H15.8904ZM16.1654 11.1114C16.1654 12.3724 15.2587 13.379 13.8021 13.379H13.7742C12.3715 13.379 11.4648 12.3724 11.4648 11.1114C11.4648 9.82493 12.3994 8.84375 13.8299 8.84375C15.2604 8.84375 16.1393 9.82312 16.1654 11.1114ZM22.3434 20.9686V28.3003H18.1667C18.1667 28.3003 18.2189 16.4043 18.1667 15.1724H22.3434V17.0294L22.3156 17.0748H22.3434V17.0294C22.9003 16.1336 23.894 14.8617 26.1112 14.8617C28.8609 14.8617 30.9214 16.7368 30.9214 20.7706V28.3003H26.7429V21.2775C26.7429 19.5114 26.139 18.3085 24.6267 18.3085C23.4712 18.3085 22.7837 19.1207 22.4827 19.9039C22.3713 20.1837 22.3434 20.5762 22.3434 20.9686Z" fill="#393939"/>
</svg>
