<svg width="160" height="48" viewBox="0 0 160 48" fill="none" xmlns="http://www.w3.org/2000/svg">
<mask id="mask0_8828_729" style="mask-type:luminance" maskUnits="userSpaceOnUse" x="58" y="0" width="54" height="48">
<path fill-rule="evenodd" clip-rule="evenodd" d="M79.1713 47.9974C82.997 48.0526 86.7853 47.2386 90.2499 45.6169C93.4486 44.124 96.1611 41.7603 98.0759 38.7972C100.026 35.6993 101.023 32.0975 100.942 28.4388C100.942 24.3211 99.096 20.6967 95.4032 17.5656C98.212 17.5992 101.004 17.1307 103.648 16.1822C105.946 15.3901 107.999 14.0157 109.606 12.1935C111.068 10.5082 111.859 8.34482 111.828 6.11495C111.843 4.94041 111.601 3.77683 111.119 2.7051C110.673 1.70149 109.87 0.899042 108.865 0.453105C108.113 0.131444 107.3 -0.0223029 106.482 0.00260889C105.403 -0.0216001 104.344 0.293592 103.454 0.903601C102.574 1.54029 102.011 2.52478 101.909 3.6056C101.769 4.35032 101.882 5.12026 102.231 5.79337C102.574 6.43685 102.875 6.77999 103.133 6.8228C103.219 6.77999 103.605 6.47966 104.292 5.92181C105.065 5.34176 106.045 5.10881 106.997 5.27866C108.586 5.49304 109.38 6.24371 109.38 7.53065C109.371 8.32615 109.033 9.08255 108.448 9.62186C107.78 10.2716 106.978 10.7659 106.097 11.0694C103.843 11.6808 101.533 12.0679 99.2031 12.2248C96.275 12.5408 93.3704 13.0458 90.5076 13.7366C88.3102 14.2954 86.3064 15.4407 84.7108 17.0499C83.0793 18.6797 82.2633 21.0388 82.263 24.1274C82.1853 25.9277 82.7062 27.703 83.7446 29.1765C84.6469 30.4414 86.1191 31.1761 87.6735 31.1373C88.8539 31.1741 90.0083 30.786 90.9262 30.0437C91.8149 29.297 92.3034 28.1783 92.2468 27.0196C92.2581 26.3756 92.091 25.7409 91.7639 25.1858C91.4419 24.6495 91.1735 24.36 90.9586 24.3172C90.8725 24.36 90.486 24.6601 89.7989 25.2177C89.0257 25.7979 88.0459 26.031 87.0939 25.8613C86.4448 25.7796 85.8543 25.4448 85.4514 24.9299C85.0797 24.4161 84.8872 23.7945 84.9037 23.1608C84.8827 21.9103 85.5675 20.7542 86.6748 20.1705C87.7668 19.4884 89.0263 19.1209 90.3142 19.1087C92.5481 19.0252 94.6756 20.0637 95.9823 21.8755C97.368 23.7552 98.0926 26.0398 98.0435 28.3736C98.0777 31.1333 97.2688 33.8379 95.7247 36.1266C94.1526 38.4442 91.998 40.3081 89.477 41.5311C86.7942 42.8534 83.8371 43.5252 80.8457 43.4919C78.1433 43.5391 75.4661 42.9668 73.0198 41.8189C70.8076 40.7791 68.9409 39.1267 67.6417 37.058C66.3232 34.8891 65.6529 32.3889 65.7096 29.852C65.6701 27.4446 66.4293 25.0919 67.8689 23.1608C69.3084 21.2307 71.4232 20.1369 74.2133 19.8793H76.4678C76.8259 19.8937 77.1664 19.7236 77.3698 19.4289C77.5907 19.1078 77.7035 18.7247 77.6917 18.3352C77.6488 17.6061 77.5093 17.1664 77.2731 17.0161C76.8372 16.8277 76.3614 16.7504 75.8882 16.7911H73.7628C71.1435 15.3757 69.8338 13.1025 69.8338 9.97137C69.7826 8.265 70.3942 6.60499 71.5407 5.33895C72.6785 4.09515 74.2781 3.47324 76.3392 3.47324C77.5458 3.4307 78.726 3.83187 79.6562 4.60071C80.5325 5.34218 81.0193 6.44457 80.9768 7.59095C80.9883 8.19501 80.8201 8.7889 80.4934 9.29734C80.1965 9.76086 79.839 10.1827 79.4304 10.5518C79.2114 10.7171 79.0164 10.912 78.8508 11.1307C78.8508 11.431 79.1407 11.7956 79.7204 12.2243C80.3287 12.6624 81.0643 12.8886 81.814 12.868C83.0528 12.9117 84.238 12.3618 85.0038 11.3881C85.8041 10.3845 86.2259 9.13195 86.1954 7.84928C86.2853 5.83072 85.2733 3.92193 83.5512 2.86196C81.5956 1.67216 79.3344 1.07954 77.0459 1.15704C73.4389 1.15704 70.6048 2.01489 68.5437 3.7306C66.5042 5.39762 65.3608 7.92006 65.452 10.5508C65.452 13.5534 66.8046 16.0626 69.51 18.0783V18.2715C66.1176 18.83 63.4981 20.2785 61.6516 22.6171C59.7995 24.9705 58.8208 27.892 58.8818 30.8849C58.8818 34.7023 59.8265 37.8871 61.7159 40.4394C63.6127 42.9964 66.1913 44.969 69.1571 46.1317C72.3422 47.3971 75.7436 48.0308 79.1713 47.9974Z" fill="white"/>
</mask>
<g mask="url(#mask0_8828_729)">
<mask id="mask1_8828_729" style="mask-type:luminance" maskUnits="userSpaceOnUse" x="-257" y="-12" width="671" height="1791">
<path fill-rule="evenodd" clip-rule="evenodd" d="M-256.647 1778.94H413.704V-11.7456H-256.647V1778.94Z" fill="white"/>
</mask>
<g mask="url(#mask1_8828_729)">
<mask id="mask2_8828_729" style="mask-type:luminance" maskUnits="userSpaceOnUse" x="25" y="-6" width="122" height="92">
<rect x="25.0374" y="-5.86279" width="121.705" height="91.6679" fill="white"/>
</mask>
<g mask="url(#mask2_8828_729)">
<mask id="mask3_8828_729" style="mask-type:luminance" maskUnits="userSpaceOnUse" x="58" y="-1" width="54" height="50">
<path fill-rule="evenodd" clip-rule="evenodd" d="M58.4089 48.0599H111.9V-0.470215H58.4089V48.0599Z" fill="white"/>
</mask>
<g mask="url(#mask3_8828_729)">
<path d="M56.4263 -2.44873H114.279V50.45H56.4263V-2.44873Z" fill="#EE507F"/>
</g>
<mask id="mask4_8828_729" style="mask-type:luminance" maskUnits="userSpaceOnUse" x="25" y="-6" width="105" height="71">
<path fill-rule="evenodd" clip-rule="evenodd" d="M25.4429 49.9651L95.4725 9.46948L102.577 -2.92088L121.215 -5.41602L129.693 9.35722L33.9215 64.7384L25.4429 49.9651Z" fill="white"/>
</mask>
<g mask="url(#mask4_8828_729)">
<mask id="mask5_8828_729" style="mask-type:luminance" maskUnits="userSpaceOnUse" x="58" y="-1" width="54" height="50">
<path fill-rule="evenodd" clip-rule="evenodd" d="M58.4094 48.0603H111.901V-0.469727H58.4094V48.0603Z" fill="white"/>
</mask>
<g mask="url(#mask5_8828_729)">
<path d="M18.4043 42.7928L118.536 -14.9531L133.156 10.3413L33.0241 68.0862L18.4043 42.7928Z" fill="#00C0B3"/>
</g>
</g>
<mask id="mask6_8828_729" style="mask-type:luminance" maskUnits="userSpaceOnUse" x="36" y="6" width="111" height="80">
<path fill-rule="evenodd" clip-rule="evenodd" d="M36.886 61.6842L132.617 6.23291L146.477 30.3185L50.7462 85.7698L36.886 61.6842Z" fill="white"/>
</mask>
<g mask="url(#mask6_8828_729)">
<mask id="mask7_8828_729" style="mask-type:luminance" maskUnits="userSpaceOnUse" x="58" y="-1" width="54" height="50">
<path fill-rule="evenodd" clip-rule="evenodd" d="M58.4094 48.0599H111.901V-0.470215H58.4094V48.0599Z" fill="white"/>
</mask>
<g mask="url(#mask7_8828_729)">
<path d="M33.3831 60.6321L133.515 2.88623L149.981 31.3714L49.8491 89.1173L33.3831 60.6321Z" fill="#FDD002"/>
</g>
</g>
</g>
</g>
</g>
<path fill-rule="evenodd" clip-rule="evenodd" d="M111.816 35.5814C112.449 35.5831 113.079 35.5114 113.695 35.3676C114.264 35.2408 114.804 35.0111 115.29 34.6897C115.75 34.3787 116.127 33.9613 116.39 33.473C116.681 32.9016 116.823 32.2658 116.802 31.625C116.801 31.3213 116.764 31.0189 116.692 30.724C116.618 30.4194 116.498 30.128 116.335 29.8602C116.166 29.5822 115.952 29.3338 115.702 29.1249C115.422 28.8968 115.098 28.7299 114.749 28.6347V28.5984C115.243 28.3216 115.639 27.9002 115.886 27.3911C116.138 26.8891 116.27 26.3352 116.271 25.7734C116.282 25.2529 116.168 24.7372 115.941 24.269C115.725 23.84 115.411 23.4678 115.024 23.1822C114.602 22.8766 114.127 22.6529 113.622 22.5229C113.033 22.3685 112.426 22.2935 111.817 22.2998H108.004C107.723 22.2615 107.441 22.3576 107.243 22.5591C107.044 22.7606 106.952 23.0438 106.995 23.3234V34.5603C106.953 34.8393 107.045 35.1218 107.243 35.3228C107.442 35.5237 107.723 35.6197 108.003 35.5819H111.816L111.816 35.5814ZM111.851 27.444H110.202V25.0852H111.796C112.139 25.0528 112.479 25.1755 112.722 25.4195C112.911 25.642 113.012 25.9261 113.006 26.2181C113.011 26.5253 112.914 26.8255 112.731 27.0725C112.518 27.3341 112.188 27.4732 111.851 27.444ZM112.126 32.7925H110.201V30.0434H112.146C112.534 30.0128 112.915 30.1598 113.182 30.443C113.408 30.7096 113.529 31.0499 113.521 31.3993C113.526 31.7557 113.402 32.1019 113.172 32.3743C112.907 32.6672 112.522 32.8215 112.128 32.7925H112.126ZM127.882 35.5786C128.162 35.6164 128.444 35.5205 128.642 35.3195C128.84 35.1185 128.932 34.8361 128.89 34.557V33.8139C128.932 33.5348 128.84 33.2524 128.642 33.0514C128.444 32.8505 128.162 32.7545 127.882 32.7923H123.535V23.323C123.577 23.044 123.485 22.7615 123.286 22.5606C123.088 22.3596 122.807 22.2636 122.527 22.3015H121.335C121.055 22.2636 120.774 22.3596 120.576 22.5606C120.377 22.7615 120.285 23.044 120.327 23.323V34.56C120.285 34.839 120.377 35.1215 120.576 35.3224C120.774 35.5234 121.055 35.6194 121.335 35.5816H127.879L127.882 35.5786ZM134.119 35.5787C134.399 35.6165 134.68 35.5205 134.878 35.3196C135.077 35.1186 135.169 34.8361 135.127 34.5571V23.3231C135.169 23.0441 135.077 22.7616 134.878 22.5607C134.68 22.3597 134.399 22.2637 134.119 22.3015H132.927C132.647 22.2635 132.366 22.3595 132.167 22.5604C131.969 22.7614 131.877 23.044 131.919 23.3231V34.56C131.877 34.8392 131.969 35.1217 132.167 35.3227C132.366 35.5237 132.647 35.6196 132.927 35.5816H134.119V35.5787ZM143.291 35.8038C143.96 35.8152 144.626 35.7018 145.254 35.4695C145.792 35.2692 146.285 34.9628 146.702 34.5685C147.089 34.1971 147.392 33.7476 147.591 33.2498C147.794 32.7448 147.896 32.2055 147.894 31.6616C147.916 31.0538 147.766 30.452 147.463 29.9248C147.184 29.4695 146.82 29.0723 146.391 28.7547C145.961 28.4377 145.493 28.1757 144.997 27.9748C144.496 27.7705 144.032 27.5754 143.604 27.3895C143.226 27.2314 142.866 27.0322 142.532 26.7953C142.263 26.6186 142.101 26.3185 142.101 25.9968C142.101 25.7374 142.223 25.493 142.431 25.3375C142.757 25.1286 143.144 25.034 143.531 25.0684C143.916 25.0609 144.299 25.1275 144.659 25.2644C144.983 25.3952 145.298 25.5345 145.603 25.6826C145.83 25.8114 146.086 25.879 146.346 25.8787C146.584 25.8724 146.795 25.6898 146.979 25.3306L147.42 24.4576C147.547 24.2283 147.598 23.9651 147.567 23.7051C147.506 23.4393 147.341 23.2088 147.109 23.0644C146.664 22.7815 146.183 22.5597 145.679 22.4051C144.998 22.1812 144.285 22.0713 143.569 22.0801C142.94 22.0751 142.315 22.1723 141.717 22.3678C141.173 22.543 140.668 22.8239 140.232 23.1943C139.818 23.5511 139.484 23.9908 139.251 24.485C139.008 25.0053 138.886 25.5734 138.893 26.1473C138.871 26.7551 139.021 27.3569 139.324 27.8841C139.605 28.3409 139.968 28.7409 140.397 29.0635C140.827 29.3871 141.295 29.6583 141.79 29.8714C142.291 30.088 142.755 30.2923 143.183 30.4841C143.562 30.648 143.922 30.8535 144.255 31.0969C144.521 31.2728 144.682 31.5681 144.686 31.8861C144.686 32.1475 144.56 32.3927 144.347 32.5454C144.035 32.7491 143.665 32.8437 143.293 32.8145C143.027 32.8165 142.763 32.7853 142.505 32.7219C142.275 32.665 142.051 32.5873 141.836 32.4895C141.634 32.3967 141.457 32.307 141.304 32.2204L140.912 31.9974C140.679 31.8421 140.401 31.7672 140.121 31.7841C139.863 31.8417 139.643 32.0075 139.516 32.239L138.948 33.0748C138.842 33.2134 138.765 33.3711 138.719 33.5391C138.688 33.6642 138.688 33.7948 138.719 33.9199C138.748 34.0349 138.801 34.1425 138.875 34.2356C138.949 34.3296 139.036 34.4138 139.131 34.4861C139.347 34.6511 139.577 34.7971 139.819 34.9224C140.131 35.0885 140.456 35.2312 140.79 35.3494C141.173 35.4856 141.565 35.5942 141.964 35.6744C142.401 35.7623 142.845 35.8057 143.291 35.8038ZM155.395 35.8035C156.065 35.8149 156.73 35.7015 157.358 35.4692C157.896 35.2688 158.389 34.9624 158.806 34.5682C159.193 34.1968 159.496 33.7472 159.696 33.2495C159.898 32.7445 160.001 32.2052 159.998 31.6613C160.02 31.0535 159.871 30.4517 159.567 29.9245C159.288 29.4693 158.924 29.072 158.495 28.7544C158.065 28.4376 157.596 28.1757 157.101 27.975C156.6 27.7707 156.136 27.5756 155.708 27.3897C155.33 27.2316 154.97 27.0324 154.635 26.7955C154.366 26.6188 154.204 26.3187 154.205 25.997C154.204 25.7376 154.326 25.4932 154.534 25.3377C154.861 25.1288 155.248 25.0342 155.634 25.0686C156.02 25.0611 156.403 25.1277 156.763 25.2646C157.087 25.3954 157.402 25.5347 157.707 25.6828C157.933 25.8116 158.189 25.8792 158.45 25.8789C158.688 25.8726 158.899 25.69 159.082 25.3308L159.524 24.4578C159.651 24.2285 159.702 23.9653 159.671 23.7053C159.609 23.4395 159.444 23.209 159.213 23.0646C158.768 22.7817 158.287 22.5599 157.783 22.4053C157.102 22.1814 156.389 22.0715 155.672 22.0803C155.044 22.0753 154.418 22.1725 153.821 22.368C153.276 22.5432 152.772 22.8241 152.336 23.1945C151.922 23.5513 151.587 23.991 151.354 24.4852C151.112 25.0055 150.99 25.5736 150.997 26.1475C150.975 26.7553 151.124 27.357 151.428 27.8843C151.708 28.3411 152.072 28.7411 152.5 29.0637C152.931 29.3873 153.399 29.6585 153.893 29.8716C154.394 30.0882 154.859 30.2925 155.287 30.4843C155.666 30.6482 156.025 30.8537 156.359 31.0971C156.624 31.273 156.785 31.5683 156.79 31.8863C156.789 32.1477 156.663 32.3929 156.451 32.5456C156.139 32.7493 155.768 32.8439 155.397 32.8147C155.131 32.8166 154.866 32.7855 154.608 32.7221C154.379 32.6652 154.155 32.5875 153.94 32.4897C153.738 32.3969 153.561 32.3072 153.408 32.2206L153.016 31.9976C152.783 31.8426 152.506 31.7675 152.227 31.7838C151.97 31.8415 151.749 32.0072 151.622 32.2387L151.054 33.0745C150.949 33.2132 150.871 33.3708 150.825 33.5388C150.794 33.6639 150.794 33.7945 150.825 33.9197C150.854 34.0346 150.907 34.1422 150.981 34.2353C151.055 34.3294 151.142 34.4135 151.238 34.4858C151.454 34.6508 151.683 34.7968 151.925 34.9221C152.238 35.0882 152.562 35.2309 152.896 35.3491C153.279 35.4853 153.671 35.5939 154.07 35.6741C154.506 35.7619 154.95 35.8053 155.395 35.8035Z" fill="#4C4C4C"/>
<path fill-rule="evenodd" clip-rule="evenodd" d="M4.84104 35.5814C5.47487 35.5831 6.10676 35.5114 6.72404 35.3676C7.29374 35.2409 7.83544 35.0111 8.3224 34.6897C8.78273 34.3789 9.16091 33.9615 9.42462 33.473C9.7164 32.9017 9.85856 32.2659 9.83783 31.6249C9.83699 31.3213 9.79993 31.0188 9.72741 30.7239C9.6534 30.4193 9.53255 30.1279 9.36916 29.8602C9.19966 29.5821 8.98563 29.3337 8.73561 29.1249C8.45498 28.8968 8.12968 28.7298 7.78061 28.6347V28.5984C8.27501 28.3218 8.67257 27.9004 8.91964 27.3911C9.17261 26.8892 9.3047 26.3353 9.30537 25.7734C9.31632 25.2528 9.20293 24.7371 8.9746 24.269C8.75783 23.8398 8.44315 23.4675 8.05592 23.1822C7.63286 22.8765 7.15611 22.6528 6.65042 22.5228C6.05991 22.3685 5.45141 22.2935 4.84104 22.2998H1.02057C0.739958 22.2614 0.457637 22.3574 0.258763 22.5588C0.0598898 22.7603 -0.0322542 23.0436 0.0101241 23.3234V34.5603C-0.031562 34.8397 0.0608909 35.1224 0.25967 35.3234C0.458448 35.5244 0.740351 35.6201 1.02057 35.5819H4.84104V35.5814ZM4.87597 27.4432H3.22264V25.0844H4.82101C5.16465 25.0519 5.50484 25.1745 5.74852 25.4187C5.93813 25.6411 6.03941 25.9252 6.03315 26.2173C6.03797 26.5246 5.9412 26.8249 5.75784 27.0717C5.54311 27.3339 5.21237 27.4731 4.8745 27.4432H4.87597ZM5.15128 32.7922H3.22264V30.0431H5.16993C5.55863 30.0124 5.94032 30.1593 6.20786 30.4426C6.43443 30.7092 6.55525 31.0495 6.54746 31.399C6.55283 31.7555 6.4289 32.1018 6.19854 32.374C5.93254 32.6671 5.5462 32.8213 5.15128 32.7922ZM18.1508 35.8038C19.1086 35.8152 20.0586 35.6317 20.9432 35.2646C21.761 34.9241 22.5015 34.4218 23.1201 33.7881C23.7309 33.1555 24.2086 32.4071 24.5251 31.5871C24.8612 30.7163 25.0295 29.7899 25.0213 28.8567C25.029 27.9447 24.8605 27.0397 24.5251 26.1915C24.2061 25.387 23.7281 24.6549 23.1196 24.039C22.4992 23.4167 21.7585 22.927 20.9427 22.5997C20.0554 22.2445 19.1067 22.0673 18.1508 22.0782C17.1949 22.0667 16.246 22.2435 15.3585 22.5983C14.5425 22.926 13.8018 23.4162 13.1815 24.039C12.5728 24.6563 12.0949 25.3898 11.7765 26.1959C11.4411 27.0441 11.2726 27.9491 11.2803 28.8611C11.2721 29.7943 11.4405 30.7207 11.7765 31.5915C12.093 32.4115 12.5707 33.1599 13.1815 33.7925C13.8005 34.4247 14.541 34.9254 15.3585 35.2646C16.243 35.6317 17.193 35.8152 18.1508 35.8038ZM18.1536 32.8321C17.6623 32.837 17.1761 32.7324 16.7304 32.5257C16.3034 32.3271 15.9219 32.0426 15.61 31.6899C15.2882 31.3217 15.0385 30.8963 14.8739 30.436C14.6923 29.9296 14.602 29.395 14.6074 28.8571C14.6025 28.3404 14.6928 27.8273 14.8739 27.3433C15.0403 26.8978 15.2901 26.488 15.61 26.1359C15.9236 25.7946 16.3052 25.5225 16.7304 25.3374C17.1793 25.1427 17.6642 25.0447 18.1536 25.0497C18.6429 25.0447 19.1279 25.1427 19.5767 25.3374C20.0019 25.5225 20.3836 25.7946 20.6971 26.1359C21.017 26.488 21.2669 26.8978 21.4332 27.3433C21.6144 27.8273 21.7047 28.3404 21.6997 28.8571C21.7051 29.395 21.6149 29.9296 21.4332 30.436C21.2687 30.8963 21.019 31.3217 20.6971 31.6899C20.3852 32.0426 20.0038 32.3271 19.5767 32.5257C19.1311 32.7324 18.6449 32.837 18.1536 32.8321ZM33.3735 35.8038C34.3312 35.8152 35.2813 35.6317 36.1658 35.2646C36.9837 34.9241 37.7242 34.4218 38.3428 33.7881C38.9536 33.1555 39.4313 32.4071 39.7478 31.5871C40.0838 30.7163 40.2522 29.7899 40.2439 28.8567C40.2517 27.9447 40.0832 27.0397 39.7478 26.1915C39.4287 25.387 38.9507 24.6549 38.3423 24.039C37.7219 23.4167 36.9812 22.927 36.1653 22.5997C35.278 22.2445 34.3294 22.0673 33.3735 22.0782C32.4175 22.0667 31.4687 22.2435 30.5811 22.5983C29.7653 22.926 29.0248 23.4162 28.4047 24.039C27.7964 24.6551 27.3185 25.3873 26.9997 26.1919C26.6643 27.0402 26.4958 27.9452 26.5035 28.8572C26.4952 29.7906 26.6636 30.7171 26.9997 31.5881C27.3162 32.4081 27.7939 33.1565 28.4047 33.7891C29.0235 34.4225 29.7642 34.9244 30.5821 35.2646C31.4663 35.6316 32.416 35.815 33.3735 35.8038ZM33.3769 32.8321C32.8856 32.837 32.3994 32.7324 31.9537 32.5257C31.5258 32.3274 31.1435 32.0428 30.8309 31.6899C30.5091 31.3217 30.2594 30.8963 30.0948 30.436C29.9131 29.9296 29.8229 29.395 29.8283 28.8571C29.8233 28.3404 29.9137 27.8273 30.0948 27.3433C30.2612 26.8978 30.511 26.488 30.8309 26.1359C31.1445 25.7946 31.5261 25.5225 31.9513 25.3374C32.4002 25.1427 32.8851 25.0447 33.3745 25.0497C33.8638 25.0447 34.3487 25.1427 34.7976 25.3374C35.2228 25.5225 35.6044 25.7946 35.918 26.1359C36.2379 26.488 36.4877 26.8978 36.6541 27.3433C36.8352 27.8273 36.9256 28.3404 36.9206 28.8571C36.926 29.395 36.8358 29.9296 36.6541 30.436C36.4895 30.8963 36.2398 31.3217 35.918 31.6899C35.6061 32.0426 35.2247 32.3271 34.7976 32.5257C34.3527 32.732 33.8674 32.8367 33.3769 32.8321ZM44.6135 35.5816C44.8937 35.6199 45.1756 35.5241 45.3744 35.3231C45.5731 35.1222 45.6656 34.8394 45.6239 34.56V29.3962C45.6239 29.1857 45.6179 28.9504 45.6058 28.6903C45.5937 28.4302 45.5753 28.1825 45.5508 27.9472L45.4772 27.13H45.514C45.6121 27.3914 45.7284 27.6576 45.8629 27.9285C45.9611 28.1638 46.0774 28.4147 46.2118 28.681C46.3344 28.926 46.4692 29.1647 46.6157 29.3962L49.8669 34.8938C50.0965 35.336 50.5628 35.604 51.0609 35.5801H52.4939C52.7735 35.6175 53.0545 35.5214 53.2526 35.3208C53.4507 35.1202 53.543 34.8383 53.5019 34.5595V23.3231C53.5436 23.0437 53.4511 22.7609 53.2523 22.56C53.0536 22.359 52.7716 22.2632 52.4914 22.3015H51.2974C51.0172 22.2632 50.7353 22.359 50.5365 22.56C50.3378 22.7609 50.2453 23.0437 50.287 23.3231V28.505C50.287 28.7155 50.293 28.9508 50.3051 29.2109C50.3173 29.471 50.3356 29.7188 50.3601 29.9541L50.4337 30.7712H50.3969C50.2746 30.5098 50.152 30.2436 50.0294 29.9727C49.9191 29.7374 49.8028 29.4897 49.6804 29.2295C49.5644 28.9816 49.4357 28.7397 49.2947 28.505L46.0621 22.9888C45.8267 22.5434 45.3535 22.2755 44.85 22.3025H43.417C43.1368 22.2642 42.8549 22.36 42.6561 22.5609C42.4573 22.7619 42.3649 23.0446 42.4066 23.3241V34.561C42.3649 34.8404 42.4573 35.1231 42.6561 35.3241C42.8549 35.5251 43.1368 35.6208 43.417 35.5826H44.611L44.6135 35.5816Z" fill="#4C4C4C"/>
</svg>
