<svg xmlns="http://www.w3.org/2000/svg" width="459" height="459" viewBox="0 0 459 459">
  <g id="Group_8" data-name="Group 8" transform="translate(-1167.891 -572)">
    <ellipse id="Oval_Copy_3" data-name="Oval Copy 3" cx="81" cy="81.5" rx="81" ry="81.5" transform="translate(1361.891 694.707)" fill="#00bfb3"/>
    <g id="Group_129_Copy" data-name="Group 129 Copy" transform="translate(1167.891 572)">
      <path id="Fill_1" data-name="Fill 1" d="M17.076,2.934a10,10,0,1,1-14.141,0,10,10,0,0,1,14.141,0" transform="translate(0 224)" fill="#393939"/>
      <path id="Fill_4" data-name="Fill 4" d="M17.072,2.928a10,10,0,1,1-14.141,0,10,10,0,0,1,14.141,0" transform="translate(39 189)" fill="#393939"/>
      <path id="Fill_6" data-name="Fill 6" d="M17.076,2.934a10,10,0,1,1-14.145,0,10.006,10.006,0,0,1,14.145,0" transform="translate(74 150)" fill="#393939"/>
      <path id="Fill_8" data-name="Fill 8" d="M17.07,2.931a10,10,0,1,1-14.136,0,9.993,9.993,0,0,1,14.136,0" transform="translate(114 114)" fill="#393939"/>
      <path id="Fill_10" data-name="Fill 10" d="M17.069,2.927a10,10,0,1,1-14.141,0,9.991,9.991,0,0,1,14.141,0" transform="translate(151 76)" fill="#393939"/>
      <path id="Fill_12" data-name="Fill 12" d="M17.081,2.926a10.006,10.006,0,1,1-14.155.009,10.008,10.008,0,0,1,14.155-.009" transform="translate(186 37)" fill="#393939"/>
      <path id="Fill_14" data-name="Fill 14" d="M17.08,2.928a10.006,10.006,0,1,1-14.157,0,10,10,0,0,1,14.157,0" transform="translate(228 0)" fill="#393939"/>
      <path id="Fill_17" data-name="Fill 17" d="M17.072,2.934a10,10,0,1,1-14.141,0,10,10,0,0,1,14.141,0" transform="translate(25 250)" fill="#393939"/>
      <path id="Fill_19" data-name="Fill 19" d="M17.073,2.928a10,10,0,1,1-14.14,0,10,10,0,0,1,14.14,0" transform="translate(64 215)" fill="#393939"/>
      <path id="Fill_21" data-name="Fill 21" d="M17.076,2.931a10,10,0,1,1-14.148,0,10.013,10.013,0,0,1,14.148,0" transform="translate(99 176)" fill="#393939"/>
      <path id="Fill_23" data-name="Fill 23" d="M17.073,2.931a10,10,0,1,1-14.138,0,10,10,0,0,1,14.138,0" transform="translate(139 137)" fill="#393939"/>
      <path id="Fill_25" data-name="Fill 25" d="M17.069,2.927a10,10,0,1,1-14.141,0,10,10,0,0,1,14.141,0" transform="translate(178 102)" fill="#393939"/>
      <path id="Fill_27" data-name="Fill 27" d="M17.083,2.926a10.008,10.008,0,1,1-14.156.009,10.016,10.016,0,0,1,14.156-.009" transform="translate(218 63)" fill="#393939"/>
      <path id="Fill_29" data-name="Fill 29" d="M17.083,2.928a10.007,10.007,0,1,1-14.16,0,10.008,10.008,0,0,1,14.16,0" transform="translate(253 24)" fill="#393939"/>
      <path id="Fill_31" data-name="Fill 31" d="M17.072,2.934a10,10,0,1,1-14.141,0,10,10,0,0,1,14.141,0" transform="translate(52 280)" fill="#393939"/>
      <path id="Fill_33" data-name="Fill 33" d="M17.073,2.927a10,10,0,1,1-14.14,0,10.007,10.007,0,0,1,14.14,0" transform="translate(91 241)" fill="#393939"/>
      <path id="Fill_35" data-name="Fill 35" d="M17.075,2.931a10,10,0,1,1-14.144,0,10.007,10.007,0,0,1,14.144,0" transform="translate(129 202)" fill="#393939"/>
      <path id="Fill_37" data-name="Fill 37" d="M17.07,2.932a10,10,0,1,1-14.138,0,9.991,9.991,0,0,1,14.138,0" transform="translate(166 167)" fill="#393939"/>
      <path id="Fill_39" data-name="Fill 39" d="M17.072,2.927a10,10,0,1,1-14.144,0,10,10,0,0,1,14.144,0" transform="translate(204 129)" fill="#393939"/>
      <path id="Fill_41" data-name="Fill 41" d="M17.08,2.926a10,10,0,1,1-14.15.009,10.012,10.012,0,0,1,14.15-.009" transform="translate(241 90)" fill="#393939"/>
      <path id="Fill_43" data-name="Fill 43" d="M17.078,2.929a10,10,0,1,1-14.152,0,9.992,9.992,0,0,1,14.152,0" transform="translate(280 55)" fill="#393939"/>
      <path id="Fill_45" data-name="Fill 45" d="M17.075,2.933a10,10,0,1,1-14.144,0,10.005,10.005,0,0,1,14.144,0" transform="translate(80 307)" fill="#393939"/>
      <path id="Fill_47" data-name="Fill 47" d="M17.073,2.927a10,10,0,1,1-14.14,0,10.007,10.007,0,0,1,14.14,0" transform="translate(115 268)" fill="#393939"/>
      <path id="Fill_49" data-name="Fill 49" d="M17.075,2.934a10,10,0,1,1-14.144,0,10,10,0,0,1,14.144,0" transform="translate(154 233)" fill="#393939"/>
      <path id="Fill_51" data-name="Fill 51" d="M17.069,2.932a10,10,0,1,1-14.139,0,10,10,0,0,1,14.139,0" transform="translate(194 194)" fill="#393939"/>
      <path id="Fill_53" data-name="Fill 53" d="M17.072,2.928a10,10,0,1,1-14.144,0,10,10,0,0,1,14.144,0" transform="translate(228 154)" fill="#393939"/>
      <path id="Fill_55" data-name="Fill 55" d="M17.078,2.926a10,10,0,1,1-14.148,0,10,10,0,0,1,14.148,0" transform="translate(268 115)" fill="#393939"/>
      <path id="Fill_57" data-name="Fill 57" d="M17.078,2.925a10.006,10.006,0,1,1-14.155,0,10,10,0,0,1,14.155,0" transform="translate(307 80)" fill="#393939"/>
      <path id="Fill_59" data-name="Fill 59" d="M17.072,2.934a10,10,0,1,1-14.141,0,10,10,0,0,1,14.141,0" transform="translate(107 332)" fill="#393939"/>
      <path id="Fill_61" data-name="Fill 61" d="M17.069,2.925a10,10,0,1,1-14.139,0,10,10,0,0,1,14.139,0" transform="translate(142 293)" fill="#393939"/>
      <path id="Fill_63" data-name="Fill 63" d="M17.076,2.931a10,10,0,1,1-14.148,0,10.007,10.007,0,0,1,14.148,0" transform="translate(181 256)" fill="#393939"/>
      <path id="Fill_65" data-name="Fill 65" d="M17.073,2.932a10,10,0,1,1-14.139,0,10,10,0,0,1,14.139,0" transform="translate(219 220)" fill="#393939"/>
      <path id="Fill_67" data-name="Fill 67" d="M17.072,2.927a10,10,0,1,1-14.141,0,10,10,0,0,1,14.141,0" transform="translate(258 181)" fill="#393939"/>
      <path id="Fill_69" data-name="Fill 69" d="M17.078,2.926a10,10,0,1,1-14.147,0,10.006,10.006,0,0,1,14.147,0" transform="translate(293 143)" fill="#393939"/>
      <path id="Fill_71" data-name="Fill 71" d="M17.08,2.929a10,10,0,1,1-14.153,0,10,10,0,0,1,14.153,0" transform="translate(332 107)" fill="#393939"/>
      <path id="Fill_73" data-name="Fill 73" d="M17.072,2.93a10,10,0,1,1-14.141,0,10,10,0,0,1,14.141,0" transform="translate(132 357)" fill="#393939"/>
      <path id="Fill_75" data-name="Fill 75" d="M17.073,2.927a10,10,0,1,1-14.139,0,10.005,10.005,0,0,1,14.139,0" transform="translate(171 322)" fill="#393939"/>
      <path id="Fill_77" data-name="Fill 77" d="M17.075,2.93a10,10,0,1,1-14.146,0,10.007,10.007,0,0,1,14.146,0" transform="translate(206 282)" fill="#393939"/>
      <path id="Fill_79" data-name="Fill 79" d="M17.073,2.932a10,10,0,1,1-14.14,0,10,10,0,0,1,14.14,0" transform="translate(245 244)" fill="#393939"/>
      <path id="Fill_81" data-name="Fill 81" d="M17.072,2.928a10,10,0,1,1-14.141,0,10,10,0,0,1,14.141,0" transform="translate(285 209)" fill="#393939"/>
      <path id="Fill_83" data-name="Fill 83" d="M17.079,2.927a10,10,0,1,1-14.148,0,10.016,10.016,0,0,1,14.148,0" transform="translate(320 169)" fill="#393939"/>
      <path id="Fill_85" data-name="Fill 85" d="M17.078,2.927a10,10,0,1,1-14.148,0,10,10,0,0,1,14.148,0" transform="translate(359 131)" fill="#393939"/>
      <path id="Fill_87" data-name="Fill 87" d="M17.072,2.93a10,10,0,1,1-14.141,0,10,10,0,0,1,14.141,0" transform="translate(159 383)" fill="#393939"/>
      <path id="Fill_89" data-name="Fill 89" d="M17.07,2.929a10,10,0,1,1-14.138,0,9.994,9.994,0,0,1,14.138,0" transform="translate(198 348)" fill="#393939"/>
      <path id="Fill_91" data-name="Fill 91" d="M17.076,2.93a10,10,0,1,1-14.148,0,10,10,0,0,1,14.148,0" transform="translate(235 308)" fill="#393939"/>
      <path id="Fill_93" data-name="Fill 93" d="M17.073,2.932a10,10,0,1,1-14.14,0,10,10,0,0,1,14.14,0" transform="translate(272 270)" fill="#393939"/>
      <path id="Fill_95" data-name="Fill 95" d="M17.072,2.928a10,10,0,1,1-14.141,0,10,10,0,0,1,14.141,0" transform="translate(310 235)" fill="#393939"/>
      <path id="Fill_97" data-name="Fill 97" d="M17.075,2.927a10,10,0,1,1-14.144,0,10,10,0,0,1,14.144,0" transform="translate(348 195)" fill="#393939"/>
      <path id="Fill_99" data-name="Fill 99" d="M17.077,2.925a10,10,0,1,1-14.151,0,10,10,0,0,1,14.151,0" transform="translate(384 157)" fill="#393939"/>
      <path id="Fill_101" data-name="Fill 101" d="M17.072,2.934a10,10,0,1,1-14.141,0,10,10,0,0,1,14.141,0" transform="translate(185 414)" fill="#393939"/>
      <path id="Fill_103" data-name="Fill 103" d="M17.07,2.925a10,10,0,1,1-14.138,0,10,10,0,0,1,14.138,0" transform="translate(221 375)" fill="#393939"/>
      <path id="Fill_105" data-name="Fill 105" d="M17.075,2.931a10,10,0,1,1-14.15,0,10.006,10.006,0,0,1,14.15,0" transform="translate(261 335)" fill="#393939"/>
      <path id="Fill_107" data-name="Fill 107" d="M17.072,2.934a10,10,0,1,1-14.141,0,10,10,0,0,1,14.141,0" transform="translate(300 300)" fill="#393939"/>
      <path id="Fill_109" data-name="Fill 109" d="M17.072,2.928a10,10,0,1,1-14.141,0,10,10,0,0,1,14.141,0" transform="translate(335 261)" fill="#393939"/>
      <path id="Fill_111" data-name="Fill 111" d="M17.074,2.927a10,10,0,1,1-14.14,0,10.009,10.009,0,0,1,14.14,0" transform="translate(375 221)" fill="#393939"/>
      <path id="Fill_113" data-name="Fill 113" d="M17.078,2.925a10,10,0,1,1-14.148,0,10,10,0,0,1,14.148,0" transform="translate(414 186)" fill="#393939"/>
      <path id="Fill_115" data-name="Fill 115" d="M17.072,2.93a10,10,0,1,1-14.144,0,10,10,0,0,1,14.144,0" transform="translate(213 439)" fill="#393939"/>
      <path id="Fill_117" data-name="Fill 117" d="M17.07,2.927a10,10,0,1,1-14.136,0,10,10,0,0,1,14.136,0" transform="translate(248 400)" fill="#393939"/>
      <path id="Fill_119" data-name="Fill 119" d="M17.075,2.93a10,10,0,1,1-14.146,0,10,10,0,0,1,14.146,0" transform="translate(288 363)" fill="#393939"/>
      <path id="Fill_121" data-name="Fill 121" d="M17.072,2.934a10,10,0,1,1-14.141,0,10,10,0,0,1,14.141,0" transform="translate(325 325)" fill="#393939"/>
      <path id="Fill_123" data-name="Fill 123" d="M17.072,2.928a10,10,0,1,1-14.141,0,10,10,0,0,1,14.141,0" transform="translate(360 288)" fill="#393939"/>
      <path id="Fill_125" data-name="Fill 125" d="M17.076,2.927a10,10,0,1,1-14.141,0,10.012,10.012,0,0,1,14.141,0" transform="translate(400 250)" fill="#393939"/>
      <path id="Fill_127" data-name="Fill 127" d="M17.078,2.923a10,10,0,1,1-14.148,0,10,10,0,0,1,14.148,0" transform="translate(439 213)" fill="#393939"/>
    </g>
  </g>
</svg>
