<svg id="Group_4" data-name="Group 4" xmlns="http://www.w3.org/2000/svg" xmlns:xlink="http://www.w3.org/1999/xlink" width="305" height="511" viewBox="0 0 305 511">
  <defs>
    <clipPath id="clip-path">
      <path id="Clip_2" data-name="Clip 2" d="M0,0H245V511H0Z" fill="none"/>
    </clipPath>
  </defs>
  <ellipse id="Oval_Copy_4" data-name="Oval Copy 4" cx="99" cy="98.5" rx="99" ry="98.5" transform="translate(0 217)" fill="#fdd002"/>
  <g id="Group_3" data-name="Group 3" transform="translate(60)">
    <path id="Clip_2-2" data-name="Clip 2" d="M0,0H245V511H0Z" fill="none"/>
    <g id="Group_3-2" data-name="Group 3" clip-path="url(#clip-path)">
      <path id="Fill_1" data-name="Fill 1" d="M.136,511v0h0L0,511V481.269l25.875,14.906Zm54.647-7.156h0V481.269L80.59,496.136a256.843,256.843,0,0,1-25.806,7.708Zm54.782-20.121v-2.454l2.264,1.306c-.756.39-1.534.782-2.263,1.148Zm0-32.808V421.108l25.875,14.906-25.873,14.9Zm-54.782,0V421.108l25.875,14.906-25.874,14.9ZM0,450.915V421.108l25.875,14.906L0,450.914Zm164.349-4.326V421.108l16.509,9.515c-5.22,5.519-10.774,10.89-16.507,15.964Zm0-55.828v-29.81l25.87,14.907-25.869,14.9Zm-54.784,0v-29.81l25.875,14.907-25.873,14.9Zm-54.782,0v-29.81l25.875,14.907-25.874,14.9ZM0,390.761v-29.81l25.875,14.907L0,390.76Zm219.133-12.525h0V360.951l6.859,3.952C223.87,369.342,221.563,373.828,219.133,378.236Zm0-47.635V300.793l24.579,14.164c-.106.447-.218.906-.327,1.35l0,.011-.091.371L219.133,330.6Zm-54.782,0V300.793l25.87,14.906L164.35,330.6Zm-54.784,0V300.793L135.44,315.7l-25.873,14.9Zm-54.782,0V300.793L80.658,315.7,54.785,330.6ZM0,330.6V300.793L25.875,315.7,0,330.6Zm219.131-60.158V240.635L245,255.541l-25.867,14.9Zm-54.782,0V240.635l25.87,14.906-25.869,14.9Zm-54.784,0V240.635l25.875,14.906-25.873,14.9Zm-54.782,0V240.635l25.875,14.906-25.874,14.9ZM0,270.444V240.635l25.875,14.906L0,270.443Zm219.131-60.157V180.476L243.7,194.631q.056.229.113.458l.006.024c.065.258.138.551.2.833l-24.889,14.34Zm-54.782,0V180.476l25.87,14.907-25.869,14.9Zm-54.784,0V180.476l25.875,14.907-25.873,14.9Zm-54.782,0V180.476l25.875,14.907-25.874,14.9ZM0,210.287V180.476l25.875,14.907L0,210.286Zm219.131-60.159V131.391c2.611,4.735,5.1,9.606,7.393,14.478l-7.391,4.258Zm-54.782,0V120.317l25.87,14.906-25.869,14.9Zm-54.784,0V120.317l25.875,14.906-25.873,14.9Zm-54.782,0V120.317l25.875,14.906-25.874,14.9ZM0,150.128V120.317l25.875,14.906L0,150.127ZM164.349,89.97V63.045c6.03,5.336,11.879,11.024,17.388,16.907L164.35,89.969Zm-54.784,0V60.161l25.875,14.9-25.873,14.9Zm-54.782,0V60.161l25.875,14.9-25.874,14.9ZM0,89.97V60.161l25.875,14.9L0,89.969Zm109.565-60.16v-3.9c1.116.562,2.286,1.165,3.577,1.842l-3.576,2.058Zm-54.782,0V5.791c6.743,1.633,13.441,3.544,19.908,5.679l5.967,3.436L54.785,29.81ZM0,29.811V0L25.875,14.906,0,29.81Z" transform="translate(7 0)" fill="#ee507f"/>
    </g>
  </g>
</svg>
