<svg width="94" height="31" viewBox="0 0 94 31" fill="none" xmlns="http://www.w3.org/2000/svg">
<g clip-path="url(#clip0_6168_4458)">
<path d="M0.0292969 4.38889C0.0292969 1.96497 1.99427 0 4.41818 0H89.5261C91.95 0 93.915 1.96497 93.915 4.38889V26.6111C93.915 29.035 91.95 31 89.5261 31H4.41818C1.99427 31 0.0292969 29.035 0.0292969 26.6111V4.38889Z" fill="#000000"/>
<path d="M36.975 9.84593C36.975 10.3509 36.8213 10.753 36.5136 11.053C36.164 11.4097 35.7084 11.5882 35.1484 11.5882C34.612 11.5882 34.156 11.4073 33.781 11.0452C33.4053 10.6833 33.2178 10.2346 33.2178 9.69923C33.2178 9.1636 33.4053 8.71514 33.781 8.35298C34.156 7.99114 34.612 7.81006 35.1484 7.81006C35.4145 7.81006 35.6693 7.86071 35.9112 7.96172C36.1531 8.06298 36.3472 8.19738 36.4923 8.36571L36.1657 8.68377C35.9197 8.39772 35.581 8.25481 35.1484 8.25481C34.7572 8.25481 34.419 8.38857 34.1335 8.65625C33.848 8.9242 33.7053 9.27168 33.7053 9.69923C33.7053 10.1268 33.848 10.4743 34.1335 10.7422C34.419 11.0099 34.7572 11.1436 35.1484 11.1436C35.5633 11.1436 35.9093 11.0092 36.1863 10.7399C36.3661 10.5644 36.47 10.3206 36.4979 10.0074H35.1483V9.57303H36.9491C36.9665 9.66748 36.975 9.75812 36.975 9.84593" fill="white"/>
<path d="M36.9754 9.84603H36.9134C36.9129 10.3395 36.7648 10.7228 36.4701 11.0105L36.4695 11.011L36.4692 11.0115C36.1308 11.3558 35.6957 11.5273 35.1487 11.528C34.6267 11.5273 34.1897 11.354 33.8248 11.0027C33.4608 10.6507 33.2808 10.221 33.2801 9.69932C33.2808 9.17737 33.4608 8.74792 33.8248 8.39619C34.1897 8.04467 34.6267 7.87115 35.1487 7.87042C35.4069 7.87042 35.6527 7.91945 35.8871 8.01713C36.1218 8.11556 36.3071 8.24455 36.4452 8.4047L36.4927 8.3658L36.4489 8.32319L36.1223 8.64147L36.166 8.68386L36.2137 8.64529C35.9563 8.34508 35.5949 8.19374 35.1487 8.19463C34.743 8.19414 34.3862 8.33522 34.091 8.61305C33.7929 8.89179 33.6432 9.25882 33.6437 9.69932C33.6432 10.1399 33.7929 10.5069 34.091 10.7856C34.3862 11.0635 34.743 11.2045 35.1487 11.204C35.5774 11.2047 35.9428 11.0632 36.2304 10.7826C36.4225 10.5951 36.5314 10.3355 36.5599 10.0127L36.5657 9.94723H35.2106V9.63339H36.9495V9.57312L36.8885 9.58371C36.9054 9.67511 36.9134 9.76195 36.9134 9.84603H37.0373C37.0373 9.75442 37.0286 9.66026 37.0104 9.56234L37.0012 9.51285H35.0868V10.0678H36.4982V10.0075L36.4366 10.0023C36.4092 10.3056 36.31 10.534 36.1428 10.6974C35.8767 10.9554 35.5501 11.0827 35.1487 11.0835C34.7721 11.083 34.4525 10.9568 34.1769 10.699C33.904 10.4421 33.7683 10.1142 33.7676 9.69932C33.7683 9.28448 33.904 8.95653 34.1769 8.69965C34.4525 8.44186 34.772 8.31566 35.1487 8.31517C35.5675 8.31615 35.8838 8.4508 36.1187 8.72273L36.1622 8.77312L36.5365 8.40843L36.5766 8.36937L36.5401 8.32717C36.3879 8.15064 36.1852 8.01052 35.936 7.9065C35.6863 7.80216 35.4229 7.74988 35.1487 7.74988C34.5981 7.74942 34.123 7.93776 33.7375 8.31049C33.3507 8.68248 33.1557 9.15007 33.1563 9.69932C33.1557 10.2483 33.3507 10.7162 33.7378 11.0884C34.123 11.4609 34.5981 11.649 35.1487 11.6485C35.7221 11.649 36.1978 11.4637 36.5588 11.0947L36.5139 11.0531L36.5577 11.0957C36.8786 10.7838 37.0377 10.3623 37.0373 9.84603H36.9754H36.9754ZM39.8301 8.33543H38.1378V9.48205H39.664V9.91659H38.1378V11.0632H39.8301V11.5075H37.6607V7.89117H39.8301V8.33543Z" fill="white"/>
<path d="M39.8299 8.33571V8.27544H38.0757V9.5426H39.6018V9.85644L38.0757 9.8566V11.1238H39.768V11.4475H37.7225V7.95172H39.768V8.33571H39.8299H39.8919V7.83118H37.5986V11.568H39.8919V11.0032H38.1996V9.97714H39.7257V9.42206H38.1996V8.39598H39.8919V8.33571H39.8299ZM41.8435 11.5078H41.3657V8.33568H40.3278V7.89142H42.8815V8.33568H41.8435V11.5078Z" fill="white"/>
<path d="M41.8433 11.5078V11.4475H41.4274V8.27544H40.3895V7.95174H42.8192V8.27544H41.7813V11.5078H41.8433V11.4475V11.5078H41.9052V8.39598H42.9431V7.83118H40.2656V8.39595H41.3035V11.568H41.9052V11.5077H41.8433V11.5078ZM44.7288 11.5078V7.89142H45.2061V11.5077H44.7288" fill="white"/>
<path d="M44.7289 11.5078H44.7909V7.95172H45.1443V11.4475H44.7289V11.5078H44.7909H44.7289V11.568H45.2682V7.83118H44.667V11.568H44.7289V11.5078V11.5078ZM47.3243 11.5078H46.8465V8.33568H45.8087V7.89142H48.3622V8.33568H47.3243V11.5077" fill="white"/>
<path d="M47.3247 11.5074V11.4471H46.9088V8.27507H45.8709V7.95137H48.3006V8.27507H47.2627V11.5074H47.3247V11.4471V11.5074H47.3866V8.39561H48.4245V7.83081H45.7471V8.39558H46.7849V11.5676H47.3866V11.5074H47.3247V11.5074ZM50.8245 10.7373C51.0995 11.0083 51.4361 11.1436 51.8341 11.1436C52.2321 11.1436 52.5688 11.0083 52.8434 10.7373C53.1187 10.4663 53.2566 10.1199 53.2566 9.69923C53.2566 9.27856 53.1187 8.93216 52.8434 8.66118C52.5688 8.39019 52.2321 8.25481 51.8341 8.25481C51.4361 8.25481 51.0995 8.39019 50.8245 8.66118C50.5499 8.93216 50.412 9.27853 50.412 9.69923C50.412 10.1199 50.5499 10.4663 50.8245 10.7373ZM53.1966 11.04C52.8313 11.4056 52.377 11.5882 51.8341 11.5882C51.2907 11.5882 50.8365 11.4056 50.472 11.04C50.1064 10.6748 49.9245 10.2278 49.9245 9.69923C49.9245 9.17064 50.1064 8.72353 50.472 8.35842C50.8366 7.99274 51.2907 7.81006 51.8341 7.81006C52.3741 7.81006 52.8272 7.99371 53.1942 8.36078C53.5607 8.72781 53.7441 9.17395 53.7441 9.69923C53.7441 10.2278 53.5612 10.6748 53.1966 11.04Z" fill="white"/>
<path d="M50.8242 10.7374L50.7802 10.7798C51.0654 11.0616 51.4213 11.2047 51.8338 11.204C52.2461 11.2047 52.6024 11.0616 52.8872 10.7798C53.1743 10.4977 53.3188 10.1327 53.3183 9.69932C53.3187 9.26592 53.1743 8.90097 52.8872 8.61888C52.6024 8.33706 52.2461 8.19393 51.8338 8.19463C51.4213 8.19393 51.0654 8.33706 50.7802 8.61888C50.4937 8.90097 50.349 9.26592 50.3498 9.69932C50.349 10.1327 50.4937 10.4977 50.7802 10.7798L50.8242 10.7374L50.8683 10.695C50.6055 10.4348 50.4742 10.1076 50.4737 9.69932C50.4742 9.29111 50.6055 8.96384 50.8682 8.70363C51.1334 8.44351 51.4501 8.3159 51.8338 8.3152C52.2173 8.3159 52.5347 8.44351 52.7991 8.70363C53.0624 8.96384 53.1937 9.29111 53.1942 9.69932C53.1937 10.1075 53.0624 10.4348 52.7991 10.695C52.5347 10.9552 52.2173 11.0827 51.8338 11.0834C51.4501 11.0827 51.1334 10.9552 50.8682 10.695L50.8242 10.7374ZM53.1964 11.0401L53.1521 10.9982C52.797 11.3523 52.3627 11.5273 51.8338 11.528C51.3047 11.5272 50.8704 11.3523 50.516 10.9982L50.5143 10.9964L50.516 10.9982C50.1616 10.6429 49.9867 10.2145 49.9862 9.69932C49.9867 9.18417 50.1616 8.7557 50.516 8.40041C50.8704 8.0463 51.3047 7.87115 51.8338 7.87045C52.3593 7.87115 52.7926 8.04703 53.1497 8.40299C53.5053 8.75992 53.6812 9.18772 53.682 9.69932C53.6812 10.2145 53.5058 10.6429 53.1521 10.9982L53.1964 11.0401L53.2409 11.082C53.6164 10.7068 53.8062 10.2413 53.8058 9.69932C53.8063 9.16044 53.6156 8.69591 53.2384 8.31899C52.8611 7.94058 52.3883 7.74923 51.8338 7.74988C51.2764 7.74923 50.8022 7.93968 50.4272 8.31663V8.31636C50.051 8.69188 49.8618 9.15735 49.8623 9.69932C49.8618 10.2413 50.051 10.7068 50.4272 11.0822L50.4289 11.084L50.4272 11.082C50.8022 11.459 51.2764 11.649 51.8338 11.6485C52.391 11.649 52.8652 11.459 53.2409 11.082L53.1964 11.0401ZM54.414 11.5075V7.89114H54.9952L56.8012 10.7044H56.8218L56.8012 10.0075V7.89114H57.279V11.5074H56.7806L54.8911 8.55787H54.8705L54.8911 9.25503V11.5074H54.414" fill="white"/>
<path d="M54.4137 11.5078H54.4756V7.95172H54.9605L56.7665 10.765H56.885L56.8628 10.0069V7.95174H57.2167V11.4475H56.8147L54.9252 8.49791H54.8066L54.8289 9.25631V11.4475H54.4137L54.4137 11.5078L54.4137 11.568H54.9527V9.25439L54.9322 8.55656L54.8702 8.55818V8.61845H54.8908V8.55818L54.8383 8.59023L56.7459 11.568H57.3406V7.83118H56.7389V10.0085L56.7595 10.7063L56.8214 10.7047V10.6444H56.8009V10.7047L56.8534 10.6727L55.0291 7.83118H54.3518V11.568H54.4137L54.4137 11.5078ZM73.8368 21.754H74.9925V14.2193H73.8368L73.8368 21.754ZM84.2462 16.9335L82.9214 20.2001H82.8818L81.5068 16.9334H80.2619L82.3237 21.4992L81.1482 24.0389H82.3541L85.5314 16.9334L84.2462 16.9335ZM77.6923 20.8982C77.3132 20.8982 76.7855 20.7141 76.7855 20.2583C76.7855 19.6767 77.4433 19.4538 78.0106 19.4538C78.5191 19.4538 78.7576 19.5604 79.0666 19.706C78.9768 20.4038 78.3593 20.8982 77.6923 20.8982ZM77.8316 16.7686C76.9949 16.7686 76.1284 17.1274 75.7698 17.9223L76.7954 18.339C77.0147 17.9223 77.4229 17.7864 77.8515 17.7864C78.4491 17.7864 79.0567 18.1356 79.0666 18.7559V18.8334C78.8573 18.7171 78.4095 18.5426 77.8613 18.5426C76.7558 18.5426 75.6298 19.1338 75.6298 20.2389C75.6298 21.2471 76.5366 21.8967 77.5523 21.8967C78.3296 21.8967 78.7576 21.5574 79.027 21.16H79.0666V21.7415H80.1821V18.8527C80.1821 17.5152 79.1564 16.7686 77.8316 16.7686ZM70.6893 17.8507H69.0456V15.268H70.6893C71.5533 15.268 72.0438 15.9641 72.0438 16.5593C72.0438 17.1432 71.5533 17.8507 70.6893 17.8507ZM70.6596 14.2193H67.8905V21.754H69.0455V18.8993H70.6596C71.9404 18.8993 73.1995 17.9969 73.1995 16.5593C73.1995 15.1217 71.9404 14.2193 70.6596 14.2193ZM55.5593 20.8996C54.7609 20.8996 54.0924 20.2491 54.0924 19.3556C54.0924 18.4527 54.7609 17.7923 55.5593 17.7923C56.3475 17.7923 56.9661 18.4527 56.9661 19.3556C56.9661 20.2491 56.3475 20.8996 55.5593 20.8996ZM56.8863 17.3554H56.8463C56.587 17.0544 56.0879 16.7825 55.4594 16.7825C54.1423 16.7825 52.935 17.9088 52.935 19.3556C52.935 20.7927 54.1422 21.9094 55.4594 21.9094C56.0879 21.9094 56.587 21.6374 56.8463 21.3269H56.8863V21.6958C56.8863 22.6767 56.3475 23.201 55.4794 23.201C54.771 23.201 54.3319 22.7056 54.1522 22.2882L53.1446 22.696C53.4339 23.3757 54.2023 24.2108 55.4794 24.2108C56.8364 24.2108 57.9839 23.4338 57.9839 21.5404V16.9379H56.8863V17.3554ZM58.782 21.754H59.9395V14.219H58.782V21.754ZM61.6458 19.2683C61.6158 18.2777 62.434 17.773 63.0226 17.773C63.4819 17.773 63.8709 17.9962 64.0003 18.3169L61.6458 19.2683ZM65.2378 18.4138C65.0185 17.8408 64.3496 16.7825 62.9827 16.7825C61.6257 16.7825 60.4983 17.8215 60.4983 19.3459C60.4983 20.7831 61.6158 21.9094 63.1124 21.9094C64.3199 21.9094 65.0185 21.1908 65.3078 20.7734L64.4097 20.1906C64.1106 20.618 63.7012 20.8996 63.1124 20.8996C62.5238 20.8996 62.1048 20.6373 61.8352 20.1228L65.3573 18.7051L65.2378 18.4138ZM37.1763 17.5691V18.6566H39.8503C39.7705 19.2683 39.5609 19.7149 39.2416 20.0256C38.8526 20.4044 38.2439 20.8219 37.1762 20.8219C35.5298 20.8219 34.2428 19.5305 34.2428 17.9283C34.2428 16.3262 35.5299 15.0346 37.1763 15.0346C38.0644 15.0346 38.7127 15.3746 39.1917 15.8115L39.98 15.0445C39.3115 14.4229 38.4234 13.9472 37.1763 13.9472C34.9212 13.9472 33.0254 15.7339 33.0254 17.9283C33.0254 20.1228 34.9212 21.9094 37.1763 21.9094C38.3937 21.9094 39.3115 21.5212 40.0298 20.7927C40.7682 20.0741 40.9978 19.0644 40.9978 18.2488C40.9978 17.9962 40.978 17.7633 40.9378 17.5691H37.1763ZM44.038 20.8996C43.2396 20.8996 42.551 20.2587 42.551 19.3459C42.551 18.4235 43.2396 17.7923 44.038 17.7923C44.8361 17.7923 45.5246 18.4235 45.5246 19.3459C45.5246 20.2587 44.8361 20.8996 44.038 20.8996ZM44.038 16.7825C42.581 16.7825 41.3936 17.8603 41.3936 19.3459C41.3936 20.8219 42.581 21.9094 44.038 21.9094C45.4946 21.9094 46.682 20.8219 46.682 19.3459C46.682 17.8603 45.4946 16.7825 44.038 16.7825ZM49.8061 20.8996C49.008 20.8996 48.3194 20.2587 48.3194 19.3459C48.3194 18.4235 49.008 17.7923 49.8061 17.7923C50.6042 17.7923 51.2928 18.4235 51.2928 19.3459C51.2928 20.2587 50.6042 20.8996 49.8061 20.8996ZM49.8061 16.7825C48.3492 16.7825 47.162 17.8603 47.162 19.3459C47.162 20.8219 48.3492 21.9094 49.8061 21.9094C51.2628 21.9094 52.4502 20.8219 52.4502 19.3459C52.4502 17.8603 51.2628 16.7825 49.8061 16.7825Z" fill="white"/>
<path d="M9.97477 7.63751C9.7588 7.82713 9.62988 8.14342 9.62988 8.56325V8.46834V22.3224V22.2312C9.62988 22.6189 9.74046 22.9183 9.92772 23.1111L9.97552 23.1557V23.1559C10.1271 23.289 10.3215 23.3597 10.5442 23.3594C10.7619 23.3594 11.0067 23.2919 11.2652 23.1493L20.6066 17.9842L23.8153 16.2098C24.2229 15.9845 24.4516 15.6938 24.4899 15.3978V15.3966C24.4516 15.0999 24.2229 14.8095 23.8154 14.5841L20.6064 12.81L11.2652 7.64483C11.0062 7.50198 10.7612 7.4342 10.5429 7.4342C10.3204 7.4342 10.1263 7.50466 9.97483 7.63751H9.97477Z" fill="#00C1FF"/>
<path d="M9.97555 23.1554L9.92772 23.1109C9.74046 22.9181 9.62988 22.6186 9.62988 22.2309V22.3221V8.4715V8.56297C9.62988 8.14314 9.7588 7.82686 9.97477 7.63723L17.9484 15.3966L9.97555 23.1554Z" fill="url(#paint0_linear_6168_4458)"/>
<path d="M20.6075 17.984L17.9492 15.3967L20.6072 12.8098L23.8162 14.584C24.2237 14.8093 24.4525 15.0997 24.4907 15.3965V15.3976C24.4525 15.6937 24.2237 15.9844 23.8162 16.2096L20.6075 17.984" fill="url(#paint1_linear_6168_4458)"/>
<path d="M10.5452 23.3594C10.3225 23.3596 10.1281 23.2889 9.97656 23.1558V23.1556L17.9494 15.3968L20.6076 17.9841L11.2662 23.1492C11.0077 23.2919 10.7628 23.3594 10.5452 23.3594Z" fill="url(#paint2_linear_6168_4458)"/>
<path d="M17.9492 15.3965L9.97559 7.63717C10.1272 7.50431 10.3213 7.43386 10.5437 7.43386C10.7619 7.43386 11.007 7.50161 11.266 7.64448L20.6072 12.8096L17.9492 15.3965" fill="url(#paint3_linear_6168_4458)"/>
<path d="M10.5444 23.451C10.3217 23.451 10.1271 23.3803 9.97551 23.2473L9.97525 23.2475C9.97462 23.2469 9.97395 23.2463 9.97325 23.2458L9.93179 23.2064C9.93049 23.2052 9.92927 23.2037 9.92773 23.2023L9.97553 23.1558C10.1271 23.2888 10.3214 23.3595 10.5442 23.3593C10.7618 23.3593 11.0067 23.2918 11.2652 23.1492L20.6066 17.984L20.6665 18.0423L20.6058 18.0758L11.2651 23.2407C11.0296 23.3706 10.8056 23.4383 10.6032 23.4496C10.5836 23.4505 10.564 23.451 10.5444 23.451" fill="url(#paint4_linear_6168_4458)"/>
<path d="M9.92773 23.2021C9.74046 23.0093 9.62988 22.7101 9.62988 22.3222V22.2309C9.62988 22.6186 9.74046 22.9181 9.92773 23.1109L9.97553 23.1554L9.92773 23.2021Z" fill="url(#paint5_linear_6168_4458)"/>
<path d="M20.6673 18.0425L20.6074 17.9842L23.8161 16.2098C24.2237 15.9846 24.4524 15.6939 24.4907 15.3978C24.4907 15.5065 24.4658 15.6151 24.4163 15.7208C24.3165 15.9339 24.1164 16.1352 23.8162 16.3013L20.6673 18.0425" fill="url(#paint6_linear_6168_4458)"/>
<path d="M24.49 15.3965C24.4517 15.0997 24.223 14.8093 23.8155 14.584L20.6064 12.8098L20.6663 12.7516H20.6666L23.8155 14.4927C24.2647 14.7413 24.4897 15.0689 24.49 15.3965Z" fill="url(#paint7_linear_6168_4458)"/>
<path d="M9.62988 8.56323V8.46753C9.62988 8.43302 9.63084 8.39928 9.63266 8.36651V8.36502C9.63266 8.36457 9.63266 8.36409 9.63284 8.36359V8.3599C9.65222 8.02594 9.7588 7.76544 9.92772 7.59149L9.97477 7.63745C9.7588 7.82711 9.62988 8.14339 9.62988 8.56323Z" fill="url(#paint8_linear_6168_4458)"/>
<path d="M20.6063 12.8099L11.2652 7.64475C11.0062 7.5019 10.7611 7.43415 10.5429 7.43415C10.3204 7.43415 10.1263 7.5046 9.97478 7.63746L9.92773 7.59146C9.94243 7.57633 9.9577 7.56173 9.97351 7.5477C9.974 7.54719 9.97478 7.54668 9.97527 7.5462C10.1256 7.41436 10.3177 7.34391 10.5382 7.34265H10.5429C10.7611 7.34265 11.0062 7.41042 11.2652 7.55333L20.6665 12.7515L20.6662 12.7517L20.6063 12.8099Z" fill="url(#paint9_linear_6168_4458)"/>
</g>
<defs>
<linearGradient id="paint0_linear_6168_4458" x1="14.7255" y1="8.32511" x2="8.0524" y2="15.2045" gradientUnits="userSpaceOnUse">
<stop stop-color="#00A0FF"/>
<stop offset="0.00657" stop-color="#00A1FF"/>
<stop offset="0.2601" stop-color="#00BEFF"/>
<stop offset="0.5122" stop-color="#00D2FF"/>
<stop offset="0.7604" stop-color="#00DFFF"/>
<stop offset="1" stop-color="#00E3FF"/>
</linearGradient>
<linearGradient id="paint1_linear_6168_4458" x1="24.9872" y1="15.352" x2="9.41491" y2="15.352" gradientUnits="userSpaceOnUse">
<stop stop-color="#FFE000"/>
<stop offset="0.4087" stop-color="#FFBD00"/>
<stop offset="0.7754" stop-color="#FFA500"/>
<stop offset="1" stop-color="#FF9C00"/>
</linearGradient>
<linearGradient id="paint2_linear_6168_4458" x1="19.1963" y1="17.8567" x2="7.88587" y2="29.4316" gradientUnits="userSpaceOnUse">
<stop stop-color="#FF3A44"/>
<stop offset="1" stop-color="#C31162"/>
</linearGradient>
<linearGradient id="paint3_linear_6168_4458" x1="7.92056" y1="6.48681" x2="12.9611" y2="11.6532" gradientUnits="userSpaceOnUse">
<stop stop-color="#32A071"/>
<stop offset="0.0685" stop-color="#2DA771"/>
<stop offset="0.4762" stop-color="#15CF74"/>
<stop offset="0.8009" stop-color="#06E775"/>
<stop offset="1" stop-color="#00F076"/>
</linearGradient>
<linearGradient id="paint4_linear_6168_4458" x1="19.1895" y1="19.6513" x2="10.1335" y2="28.9874" gradientUnits="userSpaceOnUse">
<stop stop-color="#CC2E36"/>
<stop offset="1" stop-color="#9C0E4E"/>
</linearGradient>
<linearGradient id="paint5_linear_6168_4458" x1="10.6921" y1="8.3251" x2="4.81319" y2="14.3859" gradientUnits="userSpaceOnUse">
<stop stop-color="#008DE0"/>
<stop offset="0.00657" stop-color="#008DE0"/>
<stop offset="0.2601" stop-color="#00A7E0"/>
<stop offset="0.5122" stop-color="#00B8E0"/>
<stop offset="0.7604" stop-color="#00C4E0"/>
<stop offset="1" stop-color="#00C7E0"/>
</linearGradient>
<linearGradient id="paint6_linear_6168_4458" x1="24.9872" y1="15.3973" x2="9.41487" y2="15.3973" gradientUnits="userSpaceOnUse">
<stop stop-color="#E0C500"/>
<stop offset="0.4087" stop-color="#E0A600"/>
<stop offset="0.7754" stop-color="#E09100"/>
<stop offset="1" stop-color="#E08900"/>
</linearGradient>
<linearGradient id="paint7_linear_6168_4458" x1="24.9865" y1="15.3971" x2="9.41416" y2="15.3971" gradientUnits="userSpaceOnUse">
<stop stop-color="#FFE840"/>
<stop offset="0.4087" stop-color="#FFCE40"/>
<stop offset="0.7754" stop-color="#FFBC40"/>
<stop offset="1" stop-color="#FFB540"/>
</linearGradient>
<linearGradient id="paint8_linear_6168_4458" x1="10.6855" y1="8.336" x2="5.01581" y2="13.9277" gradientUnits="userSpaceOnUse">
<stop stop-color="#40B8FF"/>
<stop offset="0.00657" stop-color="#40B9FF"/>
<stop offset="0.2601" stop-color="#40CEFF"/>
<stop offset="0.5122" stop-color="#40DDFF"/>
<stop offset="0.7604" stop-color="#40E7FF"/>
<stop offset="1" stop-color="#40EAFF"/>
</linearGradient>
<linearGradient id="paint9_linear_6168_4458" x1="7.9081" y1="8.12805" x2="11.952" y2="12.297" gradientUnits="userSpaceOnUse">
<stop stop-color="#65B895"/>
<stop offset="0.0685" stop-color="#62BD95"/>
<stop offset="0.4762" stop-color="#50DB97"/>
<stop offset="0.8009" stop-color="#44ED98"/>
<stop offset="1" stop-color="#40F498"/>
</linearGradient>
<clipPath id="clip0_6168_4458">
<rect x="0.0292969" width="93.8857" height="31" rx="4.42857" fill="white"/>
</clipPath>
</defs>
</svg>
