<svg xmlns="http://www.w3.org/2000/svg" xmlns:xlink="http://www.w3.org/1999/xlink" width="218" height="59" viewBox="0 0 218 59">
  <defs>
    <clipPath id="clip-path">
      <path id="Path_23" data-name="Path 23" d="M173.672-19.84a4.78,4.78,0,0,1,.555-.208v-.069a9.931,9.931,0,0,0,1.041-.763c-.069-.208,0-.277.278-.277a5.086,5.086,0,0,0,1.6-1.11,13.072,13.072,0,0,1,2.5-2.289,21.616,21.616,0,0,0,1.944-1.6.615.615,0,0,1,.416-.694c.486-.277,1.041-.486,1.249-.971a9.656,9.656,0,0,1,1.944-2.428,17.587,17.587,0,0,0,2.5-4.023,2.9,2.9,0,0,0,.278-1.041,20.03,20.03,0,0,0,.139-4.093,37,37,0,0,0-.9-5.55,11.543,11.543,0,0,0-2.36-4.578,13.365,13.365,0,0,0-7.982-4.717,45.127,45.127,0,0,0-5.345-.832,15.1,15.1,0,0,0-1.8-.069l-5.414.277h0a9.742,9.742,0,0,0-2.846.416,10.33,10.33,0,0,1-3.262.486c-.139,0-.347.069-.486.069a25.322,25.322,0,0,0-6.039,1.8,2.614,2.614,0,0,0-1.041.624,1.211,1.211,0,0,0-.278,1.665c.208.277.208.486,0,.694l-.139.208h0c-.486.763,0,1.318.764,1.387a4.53,4.53,0,0,0,1.666-.139,52.123,52.123,0,0,1,10.342-1.318,1.182,1.182,0,0,1,.486.069c.069,0,.208.069.208.139a.253.253,0,0,1-.139.347,2.786,2.786,0,0,1-1.319.208c-1.666.069-3.4.277-5.067.486-1.735.208-3.471.555-5.275.694a2.028,2.028,0,0,0-.625.139c-.069,0-.139.139-.139.208,0,.139.139.208.278.277h.625c.555-.069,1.111-.139,1.735-.208,2.429-.347,4.928-.694,7.427-.832a1.264,1.264,0,0,1,.278.021l.139.049a.149.149,0,0,1,.139.139c0,.069-.07.139-.139.208a3.744,3.744,0,0,0-.694.208,4.426,4.426,0,0,1,.486.139c.417.208.555.486.347.832a3.856,3.856,0,0,1-.417.555l-.725,1.11c-.116.185-.224.37-.316.555C158.887-41,157.29-38.5,156.11-35.726l-1.666,3.469h0c-.625,1.457-1.111,2.983-1.666,4.44a30.065,30.065,0,0,0-2.291,6.035,1.286,1.286,0,0,1-.139.486c-.764,1.318-1.249,2.705-1.874,4.024a27.761,27.761,0,0,0-2.36,6.868,5.259,5.259,0,0,0-.069,1.8,2.667,2.667,0,0,0,1.319,2.15c.417.139.486.416.555.832a2.891,2.891,0,0,0,.833,1.873,1.127,1.127,0,0,0,1.111.555.793.793,0,0,1,.9.347c.347.555.833.486,1.388.347.347-.069.625-.416.972-.277a.745.745,0,0,0,.972-.347,3.236,3.236,0,0,0,.833-1.387l-.486.416h0a.211.211,0,0,1-.278,0l-.031-.139a.094.094,0,0,1,.031-.069A16.469,16.469,0,0,0,155.9-9.088a8.286,8.286,0,0,1,.764-1.8,1.409,1.409,0,0,1,.9-.763A10.267,10.267,0,0,0,160-10.336a.664.664,0,0,0,.625,0c.486-.347,1.041-.069,1.527.069l1.666.524c.278.092.555.193.833.308.416.139,1.18.139,1.111.971,0,.069.208.139.347.208l1.249.347h0a.417.417,0,0,1-.069-.277.242.242,0,0,1,.069-.139.133.133,0,0,1,.208.069c.069,0,.069.139,0,.208a.255.255,0,0,1-.208.069,24.041,24.041,0,0,0,6.108,2.289,3.265,3.265,0,0,1,2.152,1.11,1.109,1.109,0,0,0,.694.347c.139-.069.347-.139.486,0A15.4,15.4,0,0,0,179.71-2.5a2.328,2.328,0,0,0,1.666.416c.347-.069.9.139.972-.347.069-.347-.417-.486-.694-.694l-.347-.208h0c-.139-.208-.555-.416-.417-.624.139-.277.417,0,.625.069a5.485,5.485,0,0,0,.9.208c.555.139.9-.208.9-.763a2.932,2.932,0,0,0-.347-1.387,5.846,5.846,0,0,1-.417-.971c0-.347.069-.555.486-.624.347-.069.486-.277.417-.555a3.161,3.161,0,0,0-1.249-2.22,11.994,11.994,0,0,0-2.221-1.387,4.6,4.6,0,0,1-1.527-1.041,4,4,0,0,0-1.6-.9,57.641,57.641,0,0,1-5.969-2.636c-.347-.208-.764-.277-.972-.624-.208-.416.208-.694.208-1.041.069-.555.208-.694.625-.624a2.483,2.483,0,0,0,1.814-.608l.265-.224h.072a.958.958,0,0,0,.208-.277c-.046.046-.093.123-.159.19l-.089.064-.091-.066c-.228-.176-.245-.337-.007-.4.278-.139.625-.208.9-.347v.277ZM154.445-51.057l-.208-.069h0a1,1,0,0,0,.139-.208c.9-.208,1.735-.416,2.638-.555a64.07,64.07,0,0,1,11.523-.971,31.006,31.006,0,0,1,5.622.624c.208.069.555,0,.694.416-.833-.069-1.527-.069-2.291-.208a23.537,23.537,0,0,0-3.124-.139,63.412,63.412,0,0,0-10.9.555c-1.249.139-2.429.347-3.679.555l-.278.031A.3.3,0,0,1,154.445-51.057Zm1.041.624a.215.215,0,0,1-.07-.139c0-.069.07-.069.139-.139.278-.069.625-.139.972-.208l2.666-.423a33.893,33.893,0,0,1,4-.41,55.635,55.635,0,0,1,6.8,0c.208,0,.347.069.555.069-2.568.347-5.136.277-7.635.486S157.915-50.71,155.486-50.432ZM173.394-47.8h-.417l-4.165-.416h0c-.069-.069-.208-.069-.347-.139a.255.255,0,0,1-.069-.208c0-.069.069-.208.139-.208.278-.069.486-.069.833-.139,1.041.208,2.152.347,3.332.555a1.466,1.466,0,0,1,.694.277c.069,0,.069.139.069.208ZM164.3-26.083a5.429,5.429,0,0,1,.347-.971c.416-.763.833-1.526,1.249-2.359.139-.277.208-.555-.139-.763-.208-.139-.069-.347,0-.486l.069-.069c.9-.277,1.111-1.11,1.458-1.8a16.94,16.94,0,0,1,.694-1.665,1.756,1.756,0,0,0,.139-1.179c.208-.555.764-.9.764-1.665,0-.486.486-.9.555-1.526a2.435,2.435,0,0,1,.417-1.11,4.6,4.6,0,0,0,.416-1.387.4.4,0,0,0-.208-.555.469.469,0,0,0-.416.277c-.208.277-.347.624-.555.9-.07.139-.139.277-.278.139-.069,0-.069-.208,0-.347.347-.832.555-1.734.833-2.636a2.824,2.824,0,0,0,.069-1.526c-.347-1.457-.208-1.6,1.18-1.8.347-.069.625-.069.833.277,0,.139.347.139.555.139a8.444,8.444,0,0,1,3.471.763l2.707.971h0a12.266,12.266,0,0,1,3.471,2.359c.694.694.694.971.278,1.734a3.819,3.819,0,0,1-.486.624c-.764.971-1.6,1.873-2.36,2.844a34.1,34.1,0,0,1-4.512,4.44c-1.249,1.11-2.638,2.081-3.956,3.052l-1.874,1.457h0A17.751,17.751,0,0,1,165-25.667l-.208.069h0A.413.413,0,0,1,164.3-26.083ZM177.42-10.128a12.925,12.925,0,0,1-1.735-.694c-2.707-1.11-5.484-2.289-8.26-3.469a8.282,8.282,0,0,1-1.111-.555.133.133,0,0,1-.069-.208c0-.069.139-.139.208-.139a2.028,2.028,0,0,1,.625.139c1.458.555,2.915,1.179,4.373,1.8,1.735.763,3.54,1.526,5.275,2.359a4.064,4.064,0,0,1,1.18.694A.347.347,0,0,1,177.42-10.128Zm.833,4.925a4.014,4.014,0,0,1-.972-.347c-.764-.277-1.527-.694-2.291-1.041-3.471-1.457-6.941-2.775-10.481-4.023a48.976,48.976,0,0,1-5.275-2.081c-.208-.139-.555-.208-.694-.486,0-.069,0-.208.069-.208a.664.664,0,0,1,.625,0c1.874.624,3.748,1.318,5.622,2.012,1.18.416,2.429.971,3.679,1.387,3.124,1.179,6.178,2.567,9.162,4.023a6.1,6.1,0,0,0,.694.416l.069.208h0C178.392-5.272,178.322-5.2,178.253-5.2ZM209.766-46.34a1.923,1.923,0,0,1-.625-.069c-.069,0-.208-.069-.208-.139s.069-.208.139-.208a3.131,3.131,0,0,1,.764-.208c.972-.139,2.013-.347,2.985-.416a30.8,30.8,0,0,1,5.136-.416c.555.139,1.388-.208,2.082.277a4.624,4.624,0,0,1-2.152.277A80.749,80.749,0,0,0,209.766-46.34Zm0,.624a.242.242,0,0,1-.069-.139.1.1,0,0,1,0-.139,1.173,1.173,0,0,1,.347-.139,64.51,64.51,0,0,1,7.358-.832c.555,0,1.18.069,1.8.069a.255.255,0,0,1-.069.208c-.9.069-1.8.208-2.707.277-2.082.139-4.1.486-6.108.694A1.5,1.5,0,0,1,209.766-45.715Zm.972,2.844h-.486a1.033,1.033,0,0,1-.417-.069.064.064,0,0,1-.067-.051l0-.3h0c.208-.069.416-.208.625-.277a45.06,45.06,0,0,1,5.345-.763c.9-.069,1.8-.139,2.707-.139a6.876,6.876,0,0,1,2.082.139c.069.069.139.139.139.208s-.069.208-.139.208a4.064,4.064,0,0,1-.9.139A54.331,54.331,0,0,0,210.738-42.871ZM204.144-25.39h-.278c-.069,0-.069-.069-.139-.139.069-.069.139-.139.208-.139.694-.139,1.458-.208,2.152-.277.972-.139,1.874-.208,2.776-.347,0,.069,0,.069.069.139-.069.069-.139.139-.208.139Zm-6.594,7.769a6.148,6.148,0,0,0,.764-2.15H198.1c.139-.139.208-.347.347-.486a7.3,7.3,0,0,0,1.18-2.012.311.311,0,0,0-.127-.366l-.064-.038.055-.2a1.7,1.7,0,0,1,.206-.437.3.3,0,0,1,.486-.139,3.068,3.068,0,0,1,1.111-.416,9.119,9.119,0,0,1,1.944.069,7.587,7.587,0,0,0,2.5-.139,45.743,45.743,0,0,1,6.108-.694c.278-.069.555-.069.763-.139a1.173,1.173,0,0,0,.694-.486.441.441,0,0,0-.208-.694c-.278-.069-.555-.139-.763-.208a.149.149,0,0,1-.139-.139c0-.139,0-.208.069-.277l.416-.208c.764-.486.833-.832.208-1.457-.278-.208-.555-.347-.764-.486-.278-.208-.486-.347-.764-.555a.53.53,0,0,1-.139-.624c.347-.486.069-.763-.278-1.11a2.549,2.549,0,0,0-1.388-.624,16.759,16.759,0,0,0-2.638-.069,4.484,4.484,0,0,1-1.666,0,.675.675,0,0,1-.486-.763,14.526,14.526,0,0,1,.9-2.428,25.235,25.235,0,0,0,2.082-4.37,3.684,3.684,0,0,1,1.666-2.15v.069c0-.277,0-.486.278-.555a6.5,6.5,0,0,1,1.111-.277l3.956-.624a35.306,35.306,0,0,1,4.72-.208,5.539,5.539,0,0,1,2.568.555,2.218,2.218,0,0,0,.972.208c.347,0,.555-.208.486-.486a.984.984,0,0,1,.278-.971,1.265,1.265,0,0,0,.069-1.665,1.517,1.517,0,0,0-.208-.347,2.2,2.2,0,0,1-.486-1.6,2.177,2.177,0,0,0-.417-1.11,4.56,4.56,0,0,0-1.18-.832,6.263,6.263,0,0,0-2.985-.416c-.625.069-1.319.069-1.944.139-2.013.139-4.1.277-6.039.486a31.554,31.554,0,0,0-3.54.624,13.939,13.939,0,0,0-3.262,1.11,2.278,2.278,0,0,0-1.249,1.041.853.853,0,0,0-.069.9c.208.208.486.069.764,0,.139,0,.208-.069.347-.069s.278,0,.278.208c.069,0-.069.139-.139.139-.208.139-.625.139-.625.416,0,.624-.625.971-.833,1.6a6.89,6.89,0,0,1-.764,1.387c-1.458,1.873-2.915,3.815-4.234,5.827-1.735,2.636-3.679,5.064-5,7.908-.069.069-.139.139-.139.208a46.457,46.457,0,0,0-3.887,7.631,4.467,4.467,0,0,1-.764,1.387,3.517,3.517,0,0,0-.625,2.636,6.519,6.519,0,0,0,.764,2.5,7.358,7.358,0,0,1,1.111,2.359c.139.347.347.763.486,1.11a1.8,1.8,0,0,0,.694.763,9.871,9.871,0,0,0,6.455,2.22h2.36c2.429-.069,4.859.069,7.288.208,1.735.069,3.54.069,5.345.139a2.172,2.172,0,0,0,1.319-.277c.486-.277.625-.694.139-1.11-.278-.277-.486-.486-.278-.9a1.253,1.253,0,0,0-.416-1.734,4.857,4.857,0,0,0-.694-.555,2.317,2.317,0,0,1-.764-.9,2.924,2.924,0,0,0-1.8-1.457,9.833,9.833,0,0,0-1.527-.486c-2.291-.416-4.581-.763-6.872-.971-.972-.139-1.874-.277-2.777-.416-.416-.069-.555-.347-.486-.763A8.383,8.383,0,0,0,197.549-17.62Zm46.963-34.369-.547-.027.362-.181a5.9,5.9,0,0,1,3.06-.386c.139,0,.416,0,.416.208,0,.139-.278.139-.486.208C246.374-52.167,245.475-51.989,244.513-51.989Zm1.209,3.568c-.07,0-.07-.139-.07-.208a.242.242,0,0,1,.07-.139,3.291,3.291,0,0,1,2.152-.277.149.149,0,0,1,.139.139c.069.139,0,.277-.139.277-.416.069-.833.139-1.111.208C246.277-48.421,246-48.282,245.722-48.421ZM231.353-14.429a1,1,0,0,0-.208-.139.526.526,0,0,1,.139-.277,28.707,28.707,0,0,1,2.915-1.526,4.434,4.434,0,0,1,.486-.139c.069,0,.139.069.208.139,0,.069,0,.208-.069.208A7.164,7.164,0,0,1,231.353-14.429ZM234.06-9.92a.734.734,0,0,1-.347-.139.3.3,0,0,1,.07-.347,6.224,6.224,0,0,1,2.5-1.318c.139-.069.208.069.208.277a.255.255,0,0,1-.069.208A4.976,4.976,0,0,1,234.06-9.92Zm7.08-3.538a3.539,3.539,0,0,0,.833-1.387.435.435,0,0,1,.139-.555,2.346,2.346,0,0,0,.9-1.249,6.565,6.565,0,0,1,.347-1.249,17.121,17.121,0,0,0,.694-2.012,1.417,1.417,0,0,0-.069-1.387,3.847,3.847,0,0,1-.417-1.526,3.678,3.678,0,0,0-1.18-2.289,3.628,3.628,0,0,1-.833-1.179,1.825,1.825,0,0,0-1.111-1.041c-.555-.277-.972-.139-1.041.486a6.13,6.13,0,0,1-1.041,2.705,22.4,22.4,0,0,1-3.61,4.509,4.4,4.4,0,0,1-1.6,1.11c-.555.208-1.041.416-1.6.624a5.967,5.967,0,0,1-2.221.347.638.638,0,0,1-.694-.624,3.482,3.482,0,0,1-.139-1.457,18.884,18.884,0,0,1,.694-3.954,1.14,1.14,0,0,0,.139-.694,2.913,2.913,0,0,1,.416-1.457c.417-1.041.833-2.012,1.249-3.052a4.835,4.835,0,0,1,1.319-1.942,1.349,1.349,0,0,0,.625-.971c-.139-.139-.208-.277-.139-.416a10.4,10.4,0,0,0,1.319-2.22c.069-.208.278-.277.486-.416a3.938,3.938,0,0,0,.566-.654l.128-.248h.069a4.778,4.778,0,0,0,.208-.555,2.276,2.276,0,0,1-.159.4l-.089.119-.083-.078c-.2-.238-.1-.476.193-.714l.417-.208a3.216,3.216,0,0,1,.833-1.6c.278-.416.694-.763.764-1.249a2.442,2.442,0,0,1,.972-1.526,11.332,11.332,0,0,0,1.18-1.387,2.721,2.721,0,0,1,1.458-1.179,3.022,3.022,0,0,0,1.111-.694.463.463,0,0,1,0-.694,9.5,9.5,0,0,1,4.512-2.567,3.519,3.519,0,0,1,.9-.139c.069,0,.139.069.208.139a1,1,0,0,1-.139.208l-.833.208a3.976,3.976,0,0,0-1.944.971c.694-.208,1.319-.416,1.944-.624.347-.069.625-.208.9.069s.069.624-.069.832c-.278.555-.555,1.041-.833,1.526-.347.624-.694,1.249-1.041,1.8a2.578,2.578,0,0,0-.347,1.387c.069.763.069,1.526.069,2.22a.621.621,0,0,0,.555.694,2.027,2.027,0,0,1,.625.139.229.229,0,0,1,0,.347c-.139.208-.208.347.139.347a3.389,3.389,0,0,0,1.18-.069h.278a1.45,1.45,0,0,1,.278-.416,28.367,28.367,0,0,0,2.568-4.44,9.372,9.372,0,0,0,.764-2.359,14.386,14.386,0,0,0-.9-6.868c-.139-.347-.347-.624-.486-.971a4.354,4.354,0,0,0-2.638-1.873,11.08,11.08,0,0,0-5.206.347,3.842,3.842,0,0,0-1.527.694,7.482,7.482,0,0,1-1.666.832,9.922,9.922,0,0,0-3.193,1.873c-1.18.971-2.429,2.012-3.609,3.052a23.762,23.762,0,0,0-2.291,2.289c-1.458,1.873-2.846,3.815-4.234,5.758-.486.694-.972,1.387-1.388,2.081a18.093,18.093,0,0,1-1.18,1.942,25.644,25.644,0,0,0-1.458,2.289c-.417.971-.833,1.873-1.249,2.775a16.207,16.207,0,0,0-1.319,3.469,15.006,15.006,0,0,0,.486,7.631,36.1,36.1,0,0,0,2.638,6.035,12.946,12.946,0,0,0,3.818,4.162c2.013,1.665,4.442,1.873,6.941,1.942.208,0,.347-.069.555-.069a9.058,9.058,0,0,0,5.761-3.885v-.208h0c-.417.069-.555.416-.833.624a11.37,11.37,0,0,1-4.373,2.844,9.187,9.187,0,0,1,2.013-1.665,26.278,26.278,0,0,0,2.638-2.22,3.341,3.341,0,0,1,1.111-.832A1.309,1.309,0,0,0,241.14-13.458ZM266.684-46.34a1.923,1.923,0,0,1-.625-.069c-.069,0-.208-.069-.208-.139s.069-.208.139-.208a3.131,3.131,0,0,1,.764-.208c.972-.139,2.013-.347,2.985-.416a30.8,30.8,0,0,1,5.137-.416c.555.139,1.388-.208,2.082.277a4.625,4.625,0,0,1-2.152.277A80.744,80.744,0,0,0,266.684-46.34Zm0,.624a.242.242,0,0,1-.07-.139.1.1,0,0,1,0-.139,1.174,1.174,0,0,1,.347-.139,64.513,64.513,0,0,1,7.358-.832c.555,0,1.18.069,1.8.069a.255.255,0,0,1-.069.208l-2.707.277h0c-2.082.139-4.1.486-6.108.694A1.494,1.494,0,0,1,266.684-45.715Zm.972,2.844h-.486a1.032,1.032,0,0,1-.416-.069.064.064,0,0,1-.067-.051l0-.3h0c.208-.069.416-.208.625-.277a45.058,45.058,0,0,1,5.345-.763c.9-.069,1.8-.139,2.707-.139a6.876,6.876,0,0,1,2.082.139c.069.069.139.139.139.208s-.069.208-.139.208a4.064,4.064,0,0,1-.9.139A54.332,54.332,0,0,0,267.656-42.871ZM261.062-25.39h-.278c-.069,0-.069-.069-.139-.139.069-.069.139-.139.208-.139.694-.139,1.458-.208,2.152-.277.972-.139,1.874-.208,2.777-.347,0,.069,0,.069.069.139-.069.069-.139.139-.208.139l-4.581.624Zm-6.594,7.769a6.145,6.145,0,0,0,.764-2.15h-.208c.139-.139.208-.347.347-.486a7.306,7.306,0,0,0,1.18-2.012.311.311,0,0,0-.127-.366l-.064-.038.055-.2a1.7,1.7,0,0,1,.206-.437.3.3,0,0,1,.486-.139,3.067,3.067,0,0,1,1.111-.416,9.118,9.118,0,0,1,1.944.069,7.587,7.587,0,0,0,2.5-.139,45.745,45.745,0,0,1,6.108-.694c.278-.069.555-.069.764-.139a1.174,1.174,0,0,0,.694-.486.441.441,0,0,0-.208-.694c-.278-.069-.555-.139-.764-.208a.149.149,0,0,1-.139-.139c0-.139,0-.208.069-.277l.417-.208c.764-.486.833-.832.208-1.457-.278-.208-.555-.347-.763-.486-.278-.208-.486-.347-.764-.555a.53.53,0,0,1-.139-.624c.347-.486.069-.763-.278-1.11a2.55,2.55,0,0,0-1.388-.624,16.758,16.758,0,0,0-2.638-.069,4.484,4.484,0,0,1-1.666,0,.675.675,0,0,1-.486-.763,14.523,14.523,0,0,1,.9-2.428,25.23,25.23,0,0,0,2.082-4.37A3.73,3.73,0,0,1,266-41.19l.34-.225,0-.088c.009-.2.053-.342.275-.4a6.5,6.5,0,0,1,1.111-.277l3.957-.624h0a35.307,35.307,0,0,1,4.72-.208,5.539,5.539,0,0,1,2.568.555,2.218,2.218,0,0,0,.972.208c.347,0,.555-.208.486-.486a.984.984,0,0,1,.278-.971,1.265,1.265,0,0,0,.069-1.665,1.516,1.516,0,0,0-.208-.347,2.2,2.2,0,0,1-.486-1.6,2.176,2.176,0,0,0-.417-1.11,4.558,4.558,0,0,0-1.18-.832,6.263,6.263,0,0,0-2.985-.416c-.625.069-1.319.069-1.943.139-2.013.139-4.1.277-6.039.486a31.55,31.55,0,0,0-3.54.624,13.939,13.939,0,0,0-3.262,1.11,2.277,2.277,0,0,0-1.249,1.041.852.852,0,0,0-.069.9c.208.208.486.069.763,0,.139,0,.208-.069.347-.069s.278,0,.278.208c.069,0-.069.139-.139.139-.208.139-.625.139-.625.416,0,.624-.625.971-.833,1.6a6.891,6.891,0,0,1-.763,1.387c-1.458,1.873-2.915,3.815-4.234,5.827-1.735,2.636-3.679,5.064-5,7.908-.069.069-.139.139-.139.208a46.448,46.448,0,0,0-3.887,7.631,4.467,4.467,0,0,1-.764,1.387,3.517,3.517,0,0,0-.625,2.636,6.521,6.521,0,0,0,.764,2.5,7.358,7.358,0,0,1,1.111,2.359c.139.347.347.763.486,1.11a1.8,1.8,0,0,0,.694.763,9.87,9.87,0,0,0,6.455,2.22h2.36c2.429-.069,4.859.069,7.288.208,1.735.069,3.54.069,5.345.139a2.172,2.172,0,0,0,1.319-.277c.486-.277.625-.694.139-1.11-.278-.277-.486-.486-.278-.9a1.253,1.253,0,0,0-.416-1.734,4.865,4.865,0,0,0-.694-.555,2.317,2.317,0,0,1-.764-.9,2.924,2.924,0,0,0-1.8-1.457,9.834,9.834,0,0,0-1.527-.486c-2.291-.416-4.581-.763-6.872-.971-.972-.139-1.874-.277-2.777-.416-.416-.069-.555-.347-.486-.763A8.374,8.374,0,0,0,254.467-17.62ZM292.02-32.674a17.524,17.524,0,0,0,1.249-2.567c.069-.277.139-.486-.139-.694a.343.343,0,0,1,.069-.486l.9-1.041h0v-.555h0a15.3,15.3,0,0,1,.833-1.873c.486-1.734,1.041-3.4,1.6-5.064.069-.347.139-.763.208-1.179a.932.932,0,0,0-.139-.624,2.527,2.527,0,0,1-.416-1.873,2.71,2.71,0,0,0-.555-1.873,12.76,12.76,0,0,1-1.18-1.526,1.7,1.7,0,0,0-2.846-.347,14.581,14.581,0,0,0-3.124,3.954,26.029,26.029,0,0,1-1.666,2.5,4.555,4.555,0,0,0-.833,1.179c-.764,1.526-1.527,3.122-2.36,4.648a28.509,28.509,0,0,0-1.944,4.509c-.555,1.6-1.111,3.122-1.735,4.648-.278.694-.694,1.387-.972,2.081-.417.9-.625,1.873-1.041,2.775a110.184,110.184,0,0,0-3.887,10.406,6.974,6.974,0,0,0-.486,3.954,3.077,3.077,0,0,0,1.111,2.012,2.115,2.115,0,0,1,.972,1.665,4.055,4.055,0,0,0,.278,1.318,1.641,1.641,0,0,0,.833.971c.417.069.694-.208.972-.347a.607.607,0,0,1,.9.208c.139.277.208.624.347.832a.507.507,0,0,0,.694.277,12.783,12.783,0,0,1,1.735-.624,1.013,1.013,0,0,0,.833-1.249,16.943,16.943,0,0,1,.486-2.705c0-.139.208-.277.347-.416v.069a8.541,8.541,0,0,0,.972-2.15,22.448,22.448,0,0,0,1.111-3.677c-.208-.069-.278-.139-.139-.347a3.023,3.023,0,0,0,.417-.486c-.07-.416.278-.694.416-1.041.208-.347.555-.694.417-1.11-.139-.555.208-.9.486-1.249,0-.139.069-.208.139-.347,0-.555-.069-1.041.486-1.387a.642.642,0,0,0,.208-.832c-.139-.416-.139-.624.278-.832a.853.853,0,0,0,.347-.971,1.262,1.262,0,0,1,.555-1.11,2.214,2.214,0,0,0,.625-1.11c-.069,0-.069.069-.139.069s-.278.069-.347.069c-.139-.069-.069-.277-.069-.347a2.112,2.112,0,0,1,.625-.9,3.393,3.393,0,0,0,1.18-1.734,14.821,14.821,0,0,1,.694-1.526A6.5,6.5,0,0,0,292.02-32.674Zm41.994-21.852c.208-.277.069-.486-.278-.624l.555-.555h0c.208-.277.764-.486.555-.971-.208-.416-.694-.277-1.111-.416a2.126,2.126,0,0,0-2.221.763c-.208.347-.486.624-.694.971a21.4,21.4,0,0,1-2.082,2.844,26.469,26.469,0,0,0-2.429,3.26,22.13,22.13,0,0,1-2.082,2.914,8.835,8.835,0,0,0-.9,1.318,54.882,54.882,0,0,1-3.332,5.48,2.864,2.864,0,0,0-.486.763,2.167,2.167,0,0,0-1.111,1.11,4.418,4.418,0,0,1-.694,1.249c-.694.763-1.18,1.734-1.8,2.567a17.167,17.167,0,0,1-1.319,1.8,21.638,21.638,0,0,0-2.36,3.26l-1.735,2.705h0a5.3,5.3,0,0,1-.625.624.381.381,0,0,1-.625-.208v-.694h0c.069-.486.208-.971.278-1.526.625-2.983,1.18-6.035,1.8-9.018.069-.347.347-.9-.347-1.041,0-.069-.069-.277,0-.416a6.422,6.422,0,0,1,.347-.694.255.255,0,0,1,.069-.208c.139,0,.139.139.208.208a6.509,6.509,0,0,0,.416-1.041,39.066,39.066,0,0,0,1.388-5.619,15.018,15.018,0,0,0,.278-1.734.343.343,0,0,1-.069-.486,2.2,2.2,0,0,0,.555-1.387h.069a.761.761,0,0,1-.208-.832,10.346,10.346,0,0,0,.139-1.457c-.069-.416-.208-.486-.625-.347-.486.069-.625,0-.694-.416a4.053,4.053,0,0,1,.139-1.318,1.339,1.339,0,0,0-.069-1.041c-.555-.763-.972-1.665-1.944-2.081a2.045,2.045,0,0,1-1.388-1.11,1.529,1.529,0,0,0-1.111-.832c-.347-.069-.764-.139-1.18-.208a1.534,1.534,0,0,0-1.666.763,2.868,2.868,0,0,0-.486.763c-.347.694-.625,1.387-.972,2.012a39.116,39.116,0,0,0-2.013,5.411c-.416,1.318-.694,2.636-1.18,3.954-.278.763-.278,1.526-.625,2.289a13.712,13.712,0,0,0-.694,2.914c-.07.416-.139.832-.208,1.318a27.9,27.9,0,0,0-.625,4.3,20.369,20.369,0,0,1-.347,3.538,48.614,48.614,0,0,0-1.041,7.77v.139h0a19.1,19.1,0,0,0-.208,5.272,1.18,1.18,0,0,1-.069.486c-.208,1.179-.139,2.289-.278,3.4a8.388,8.388,0,0,0,0,2.636,5.409,5.409,0,0,0,1.735,3.607,2.844,2.844,0,0,1,.9,1.6c.069.416.069.9.139,1.318a9.819,9.819,0,0,1,.278,1.387.882.882,0,0,0,.486.624,3.143,3.143,0,0,1,1.6,1.8,1.893,1.893,0,0,0,.625.832c.555.416.9.416,1.388-.139a15.076,15.076,0,0,0,2.638-3.607l1.041-1.665c0-.069.208-.208.278-.208a.241.241,0,0,1,.069.347c-.972,1.665-1.735,3.4-2.846,4.925l-.416.624c-.069.208-.069.416.069.486a.881.881,0,0,0,.417.069A3.083,3.083,0,0,0,306.6-1.179a87.631,87.631,0,0,0,4.789-7.631c1.527-2.636,3.124-5.272,4.72-7.908,1.6-2.705,3.332-5.342,5-8.047.972-1.457,1.874-2.983,2.776-4.509.694-1.041,1.458-2.081,2.082-3.191.9-1.526,1.944-3.052,2.915-4.578.417-.624.833-1.318,1.319-1.942a6.842,6.842,0,0,1,.877-1.157l.3-.231h0a2.551,2.551,0,0,1,.555-1.457,42.865,42.865,0,0,1,2.5-3.677l.417-.694h0c.347-.555.694-1.179,1.111-1.8.625-.9,1.18-1.942,1.874-2.844a3.591,3.591,0,0,0,.417-.9.416.416,0,0,0-.07-.277H337.9l-.833.624h0c-.139.069-.278.139-.347,0-.069-.069,0-.208,0-.277a7.581,7.581,0,0,0,.555-1.041,2.048,2.048,0,0,0-.555-2.289c-.347-.347-.9-.208-1.18-.694-.416.069-.486.486-.694.763a8.4,8.4,0,0,1-1.111,1.11A2.077,2.077,0,0,0,334.014-54.525Zm2.082,7.561a15.663,15.663,0,0,0,2.152-3.4A7.7,7.7,0,0,0,336.1-46.964Zm-5.761,8.879a2.6,2.6,0,0,0,1.111-1.179,52.838,52.838,0,0,1,3.332-5.342,5.874,5.874,0,0,0,1.041-2.081c-.069.139-.278.208-.347.347-.764,1.179-1.6,2.359-2.36,3.607a14.767,14.767,0,0,1-1.735,2.359,5.436,5.436,0,0,1-.625,1.457l-.416.832ZM327.7-33.853a1.621,1.621,0,0,0,.486-.486,20.666,20.666,0,0,0,1.874-3.122A6.869,6.869,0,0,0,327.7-33.853ZM324.5-28.789a6.543,6.543,0,0,0,.694-.694,31.838,31.838,0,0,0,2.429-4.232c-.208.139-.347.208-.417.416A29.857,29.857,0,0,0,324.5-28.789ZM308.123-1.942a5.091,5.091,0,0,0,.972-1.249c2.013-2.775,3.609-5.827,5.345-8.741a48.457,48.457,0,0,1,2.707-4.509l1.041-1.665c1.8-2.914,3.609-5.9,5.345-8.81a5.663,5.663,0,0,0,.972-1.8,3.53,3.53,0,0,0-.9,1.11c-1.666,2.567-3.332,5.133-4.928,7.77-1.735,2.705-3.332,5.48-5,8.255-1.041,1.8-2.082,3.607-3.193,5.411-.555.971-1.18,1.873-1.735,2.775A4.017,4.017,0,0,0,308.123-1.942Zm41.509-44.4a1.923,1.923,0,0,1-.625-.069c-.069,0-.208-.069-.208-.139s.069-.208.139-.208a3.131,3.131,0,0,1,.764-.208c.972-.139,2.013-.347,2.985-.416a30.8,30.8,0,0,1,5.137-.416c.555.139,1.388-.208,2.082.277a4.625,4.625,0,0,1-2.152.277A80.744,80.744,0,0,0,349.632-46.34Zm0,.624a.242.242,0,0,1-.069-.139.1.1,0,0,1,0-.139,1.173,1.173,0,0,1,.347-.139,64.513,64.513,0,0,1,7.358-.832c.555,0,1.18.069,1.8.069a.255.255,0,0,1-.069.208l-2.707.277h0c-2.082.139-4.1.486-6.108.694A1.5,1.5,0,0,1,349.632-45.715Zm.972,2.844h-.486a1.032,1.032,0,0,1-.417-.069.064.064,0,0,1-.067-.051l0-.3h0c.208-.069.416-.208.625-.277a45.058,45.058,0,0,1,5.345-.763c.9-.069,1.8-.139,2.707-.139a6.877,6.877,0,0,1,2.082.139c.069.069.139.139.139.208s-.069.208-.139.208a4.065,4.065,0,0,1-.9.139A54.333,54.333,0,0,0,350.6-42.871ZM344.009-25.39h-.278c-.069,0-.069-.069-.139-.139.069-.069.139-.139.208-.139.694-.139,1.458-.208,2.152-.277.972-.139,1.874-.208,2.777-.347,0,.069,0,.069.069.139-.069.069-.139.139-.208.139l-4.581.624Zm-6.594,7.769a6.145,6.145,0,0,0,.763-2.15h-.208c.139-.139.208-.347.347-.486a7.306,7.306,0,0,0,1.18-2.012.311.311,0,0,0-.127-.366l-.064-.038.055-.2a1.7,1.7,0,0,1,.206-.437.3.3,0,0,1,.486-.139,3.067,3.067,0,0,1,1.111-.416,9.118,9.118,0,0,1,1.944.069,7.588,7.588,0,0,0,2.5-.139,45.742,45.742,0,0,1,6.108-.694c.278-.069.555-.069.764-.139a1.174,1.174,0,0,0,.694-.486.441.441,0,0,0-.208-.694c-.278-.069-.555-.139-.764-.208a.149.149,0,0,1-.139-.139c0-.139,0-.208.069-.277l.417-.208c.763-.486.833-.832.208-1.457-.278-.208-.555-.347-.763-.486-.278-.208-.486-.347-.764-.555a.53.53,0,0,1-.139-.624c.347-.486.069-.763-.278-1.11a2.55,2.55,0,0,0-1.388-.624,16.758,16.758,0,0,0-2.638-.069,4.484,4.484,0,0,1-1.666,0,.675.675,0,0,1-.486-.763,14.526,14.526,0,0,1,.9-2.428,25.23,25.23,0,0,0,2.082-4.37,3.73,3.73,0,0,1,1.326-1.926l.34-.225,0-.088c.009-.2.053-.342.275-.4a6.5,6.5,0,0,1,1.111-.277l3.956-.624h0a35.307,35.307,0,0,1,4.72-.208,5.539,5.539,0,0,1,2.568.555,2.218,2.218,0,0,0,.972.208c.347,0,.555-.208.486-.486a.984.984,0,0,1,.278-.971,1.265,1.265,0,0,0,.07-1.665,1.52,1.52,0,0,0-.208-.347,2.2,2.2,0,0,1-.486-1.6,2.177,2.177,0,0,0-.416-1.11,4.56,4.56,0,0,0-1.18-.832,6.263,6.263,0,0,0-2.985-.416c-.625.069-1.319.069-1.943.139-2.013.139-4.1.277-6.039.486a31.55,31.55,0,0,0-3.54.624,13.939,13.939,0,0,0-3.262,1.11,2.277,2.277,0,0,0-1.249,1.041.852.852,0,0,0-.069.9c.208.208.486.069.763,0,.139,0,.208-.069.347-.069s.278,0,.278.208c.069,0-.069.139-.139.139-.208.139-.625.139-.625.416,0,.624-.625.971-.833,1.6a6.886,6.886,0,0,1-.763,1.387c-1.458,1.873-2.915,3.815-4.234,5.827-1.735,2.636-3.679,5.064-5,7.908-.069.069-.139.139-.139.208a46.441,46.441,0,0,0-3.887,7.631,4.466,4.466,0,0,1-.764,1.387,3.517,3.517,0,0,0-.625,2.636,6.522,6.522,0,0,0,.764,2.5,7.36,7.36,0,0,1,1.111,2.359c.139.347.347.763.486,1.11a1.8,1.8,0,0,0,.694.763,9.87,9.87,0,0,0,6.455,2.22h2.36c2.43-.069,4.859.069,7.288.208,1.735.069,3.54.069,5.345.139a2.172,2.172,0,0,0,1.319-.277c.486-.277.625-.694.139-1.11-.278-.277-.486-.486-.278-.9a1.254,1.254,0,0,0-.417-1.734,4.869,4.869,0,0,0-.694-.555,2.317,2.317,0,0,1-.764-.9,2.924,2.924,0,0,0-1.8-1.457,9.834,9.834,0,0,0-1.527-.486c-2.291-.416-4.581-.763-6.872-.971-.972-.139-1.874-.277-2.777-.416-.416-.069-.555-.347-.486-.763A8.384,8.384,0,0,0,337.415-17.62Z" fill="none"/>
    </clipPath>
    <clipPath id="clip-path-2">
      <path id="Path_22" data-name="Path 22" d="M-386,2615H980V-1038H-386Z" fill="none"/>
    </clipPath>
  </defs>
  <g id="Group_18" data-name="Group 18" transform="translate(-146 59)" clip-path="url(#clip-path)">
    <g id="Group_17" data-name="Group 17" clip-path="url(#clip-path-2)">
      <path id="Path_21" data-name="Path 21" d="M141-64H369V5H141Z" fill="#00beb3"/>
    </g>
  </g>
</svg>
