<svg width="39" height="39" viewBox="0 0 39 39" fill="none" xmlns="http://www.w3.org/2000/svg">
<circle cx="19.4565" cy="19.4565" r="19.4565" fill="#393939"/>
<path d="M19.4238 30.4056C17.656 30.4056 16.0467 30.1221 14.5958 29.5551C13.1449 28.988 11.8941 28.1875 10.8434 27.1536C9.79279 26.1196 8.98395 24.9105 8.41693 23.5263C7.84992 22.1254 7.56641 20.5995 7.56641 18.9485C7.56641 17.2974 7.84992 15.7798 8.41693 14.3956C8.98395 13.0115 9.79279 11.8107 10.8434 10.7934C11.9108 9.77611 13.1782 8.98395 14.6458 8.41694C16.1134 7.84992 17.7394 7.56641 19.5238 7.56641C21.2416 7.56641 22.8175 7.84158 24.2518 8.39192C25.686 8.92558 26.9201 9.68439 27.9541 10.6683C29.0047 11.6356 29.8135 12.7863 30.3806 14.1205C30.9643 15.4546 31.2561 16.9222 31.2561 18.5232C31.2561 19.9574 31.0643 21.1999 30.6808 22.2505C30.2972 23.2845 29.7468 24.0767 29.0297 24.627C28.3293 25.1773 27.4704 25.4525 26.4531 25.4525C25.4192 25.4525 24.5936 25.144 23.9766 24.5269C23.3762 23.9099 23.076 23.0177 23.076 21.8503V20.4244L23.1761 18.9985L22.951 15.7465V12.8947H25.7277V21.4C25.7277 22.0337 25.8528 22.484 26.1029 22.7508C26.3697 23.001 26.6783 23.1261 27.0285 23.1261C27.4788 23.1261 27.8623 22.951 28.1792 22.6007C28.4961 22.2505 28.7295 21.7335 28.8796 21.0498C29.0464 20.366 29.1298 19.5405 29.1298 18.5732C29.1298 17.2391 28.8963 16.0217 28.4294 14.921C27.9791 13.8203 27.3203 12.878 26.4531 12.0942C25.6026 11.2937 24.5853 10.685 23.4012 10.2681C22.2338 9.83448 20.9414 9.61768 19.5238 9.61768C18.0729 9.61768 16.7554 9.85116 15.5714 10.3181C14.3873 10.7684 13.37 11.4105 12.5195 12.2443C11.669 13.0782 11.0102 14.0704 10.5433 15.2212C10.093 16.3552 9.86784 17.5976 9.86784 18.9485C9.86784 20.3327 10.093 21.6001 10.5433 22.7508C10.9935 23.9015 11.6356 24.8855 12.4694 25.7027C13.32 26.5365 14.3289 27.1786 15.4963 27.6289C16.6637 28.0958 17.9729 28.3293 19.4238 28.3293C20.1909 28.3293 20.9997 28.2376 21.8503 28.0541C22.7008 27.8873 23.5096 27.6122 24.2768 27.2286L24.9522 29.2298C24.1851 29.6134 23.3012 29.9053 22.3006 30.1054C21.2999 30.3055 20.341 30.4056 19.4238 30.4056ZM18.7734 25.4525C17.6226 25.4525 16.597 25.1857 15.6965 24.652C14.7959 24.1017 14.0788 23.3512 13.5451 22.4006C13.0281 21.4333 12.7696 20.3243 12.7696 19.0735C12.7696 17.8394 13.0281 16.7471 13.5451 15.7965C14.0621 14.8292 14.7709 14.0788 15.6714 13.5451C16.5887 13.0115 17.6226 12.7446 18.7734 12.7446C19.8907 12.7446 20.8663 12.9948 21.7002 13.4951C22.534 13.9787 23.1844 14.6875 23.6514 15.6214C24.1183 16.5553 24.3518 17.706 24.3518 19.0735C24.3518 20.4411 24.1267 21.6001 23.6764 22.5507C23.2261 23.5013 22.5841 24.2267 21.7502 24.7271C20.9164 25.2107 19.9241 25.4525 18.7734 25.4525ZM19.2987 23.026C20.0158 23.026 20.6495 22.8759 21.1999 22.5757C21.7502 22.2589 22.1838 21.8002 22.5007 21.1999C22.8342 20.5995 23.001 19.8907 23.001 19.0735C23.001 18.2397 22.8342 17.5393 22.5007 16.9722C22.1838 16.3885 21.7502 15.9466 21.1999 15.6464C20.6495 15.3296 20.0158 15.1711 19.2987 15.1711C18.5649 15.1711 17.9145 15.3296 17.3475 15.6464C16.7971 15.9633 16.3635 16.4136 16.0467 16.9973C15.7465 17.581 15.5964 18.2731 15.5964 19.0735C15.5964 19.8907 15.7465 20.5912 16.0467 21.1749C16.3635 21.7585 16.7971 22.2172 17.3475 22.5507C17.9145 22.8676 18.5649 23.026 19.2987 23.026Z" fill="white"/>
</svg>
