<svg width="40" height="39" viewBox="0 0 40 39" fill="none" xmlns="http://www.w3.org/2000/svg">
<path d="M17.6748 23.1013L24.0038 19.4562L17.6748 15.811V23.1013Z" fill="#393939"/>
<path d="M20.0971 0C9.35325 0 0.640625 8.71262 0.640625 19.4565C0.640625 30.2004 9.35325 38.913 20.0971 38.913C30.841 38.913 39.5537 30.2004 39.5537 19.4565C39.5537 8.71262 30.841 0 20.0971 0ZM32.2545 19.4764C32.2545 19.4764 32.2545 23.4223 31.754 25.325C31.4734 26.3665 30.6522 27.1876 29.6108 27.4679C27.708 27.9687 20.0971 27.9687 20.0971 27.9687C20.0971 27.9687 12.5061 27.9687 10.5835 27.448C9.54207 27.1678 8.72089 26.3463 8.44033 25.3048C7.93949 23.4223 7.93949 19.4565 7.93949 19.4565C7.93949 19.4565 7.93949 15.5109 8.44033 13.6082C8.72059 12.5668 9.56196 11.7254 10.5835 11.4451C12.4863 10.9443 20.0971 10.9443 20.0971 10.9443C20.0971 10.9443 27.708 10.9443 29.6108 11.465C30.6522 11.7453 31.4734 12.5668 31.754 13.6082C32.2747 15.5109 32.2545 19.4764 32.2545 19.4764V19.4764Z" fill="#393939"/>
</svg>
